<svg xmlns="http://www.w3.org/2000/svg" xmlns:xlink="http://www.w3.org/1999/xlink" contentStyleType="text/css" data-diagram-type="ACTIVITY" height="1415px" preserveAspectRatio="none" style="width:2048px;height:1415px;background:#F5F5F5;" version="1.1" viewBox="0 0 2048 1415" width="2048px" zoomAndPan="magnify" role="img" aria-labelledby="activity_history-title activity_history-desc"><title id="activity_history-title">Activity — UC-06 lịch sử / UC-07 xóa hiện tại</title><desc id="activity_history-desc">AgriVision working tree sau AGRI-70, đối chiếu 2026-10-07; xem README và traceability.</desc><defs /><g><rect fill="#F5F5F5" height="1415" style="stroke:none;stroke-width:1;" width="2048" x="0" y="0" /><text fill="#2D3142" font-family="Arial" font-size="14" font-weight="bold" lengthAdjust="spacing" textLength="295.6611" x="875.0564" y="33.1318">Activity — UC-06 lịch sử / UC-07 xóa hiện tại</text><rect fill="none" height="16.0986" style="stroke:none;stroke-width:1;" width="2015.7739" x="15" y="48.5654" /><ellipse cx="274.5403" cy="79.6641" fill="#222222" rx="10" ry="10" style="stroke:#222222;stroke-width:1;" /><polygon fill="#FFFFFF" points="185.0408,109.6641,364.0398,109.6641,376.0398,121.6641,364.0398,133.6641,185.0408,133.6641,173.0408,121.6641,185.0408,109.6641" style="stroke:#2D3142;stroke-width:0.5;" /><text fill="#2D3142" font-family="Arial" font-size="14" lengthAdjust="spacing" textLength="178.999" x="185.0408" y="126.7466">Đã login/restore và vào app?</text><text fill="#2D3142" font-family="Arial" font-size="14" lengthAdjust="spacing" textLength="14.7861" x="158.2546" y="118.6973">có</text><text fill="#2D3142" font-family="Arial" font-size="14" lengthAdjust="spacing" textLength="38.1445" x="376.0398" y="118.6973">không</text><rect fill="#FFFFFF" height="36.0986" rx="3" ry="3" style="stroke:#2D3142;stroke-width:0.5;" width="269.7988" x="21" y="143.6641" /><text fill="#2D3142" font-family="Arial" font-size="14" lengthAdjust="spacing" textLength="249.7988" x="31" y="166.7959">GET /api/predictions page=1/100 + JWT</text><rect fill="#FFFFFF" height="36.0986" rx="3" ry="3" style="stroke:#2D3142;stroke-width:0.5;" width="164.7646" x="310.7988" y="143.6641" /><text fill="#2D3142" font-family="Arial" font-size="14" lengthAdjust="spacing" textLength="144.7646" x="320.7988" y="166.7959">IntroPage / LoginModal</text><ellipse cx="393.1812" cy="210.7627" fill="none" rx="11" ry="11" style="stroke:#222222;stroke-width:1;" /><ellipse cx="393.1812" cy="210.7627" fill="#222222" rx="6" ry="6" style="stroke:#222222;stroke-width:1;" /><rect fill="#FFFFFF" height="36.0986" rx="3" ry="3" style="stroke:#2D3142;stroke-width:0.5;" width="112.5928" x="80.573" y="460.1572" /><text fill="#2D3142" font-family="Arial" font-size="14" lengthAdjust="spacing" textLength="92.5928" x="90.573" y="483.2891">Hiển thị history</text><rect fill="#FFFFFF" height="36.0986" rx="3" ry="3" style="stroke:#2D3142;stroke-width:0.5;" width="158.5029" x="332.9597" y="356.8613" /><text fill="#2D3142" font-family="Arial" font-size="14" lengthAdjust="spacing" textLength="138.5029" x="342.9597" y="379.9932">Ghi warning tải history</text><ellipse cx="412.2112" cy="438.96" fill="none" rx="11" ry="11" style="stroke:#222222;stroke-width:1;" /><ellipse cx="412.2112" cy="438.96" fill="#222222" rx="6" ry="6" style="stroke:#222222;stroke-width:1;" /><rect fill="#FFFFFF" height="36.0986" rx="3" ry="3" style="stroke:#2D3142;stroke-width:0.5;" width="215.6924" x="166.6941" y="566.3052" /><text fill="#2D3142" font-family="Arial" font-size="14" lengthAdjust="spacing" textLength="195.6924" x="176.6941" y="589.437">GET /api/predictions/{id} + JWT</text><rect fill="#FFFFFF" height="36.0986" rx="3" ry="3" style="stroke:#2D3142;stroke-width:0.5;" width="241.375" x="153.8528" y="852.6504" /><text fill="#2D3142" font-family="Arial" font-size="14" lengthAdjust="spacing" textLength="221.375" x="163.8528" y="875.7822">DELETE /api/predictions/{id} + JWT</text><rect fill="#FFFFFF" height="52.1973" rx="3" ry="3" style="stroke:#2D3142;stroke-width:0.5;" width="163.2061" x="192.9373" y="1265.2422" /><text fill="#2D3142" font-family="Arial" font-size="14" lengthAdjust="spacing" textLength="143.2061" x="202.9373" y="1288.374">Loại khỏi state khi 204;</text><text fill="#2D3142" font-family="Arial" font-size="14" lengthAdjust="spacing" textLength="134.6406" x="202.9373" y="1304.4727">hiển thị lỗi khi thất bại</text><ellipse cx="274.5403" cy="1392.4395" fill="none" rx="11" ry="11" style="stroke:#222222;stroke-width:1;" /><ellipse cx="274.5403" cy="1392.4395" fill="#222222" rx="6" ry="6" style="stroke:#222222;stroke-width:1;" /><line style="stroke:#000000;stroke-width:1.5;" x1="15" x2="15" y1="48.5654" y2="1403.4395" /><polygon fill="#FFFFFF" points="748.4866,241.7627,979.8284,241.7627,991.8284,253.7627,979.8284,265.7627,748.4866,265.7627,736.4866,253.7627,748.4866,241.7627" style="stroke:#2D3142;stroke-width:0.5;" /><text fill="#2D3142" font-family="Arial" font-size="14" lengthAdjust="spacing" textLength="231.3418" x="748.4866" y="258.8452">JWT/UserId hợp lệ và page/size &gt; 0?</text><text fill="#2D3142" font-family="Arial" font-size="14" lengthAdjust="spacing" textLength="14.7861" x="721.7004" y="250.7959">có</text><text fill="#2D3142" font-family="Arial" font-size="14" lengthAdjust="spacing" textLength="38.1445" x="991.8284" y="250.7959">không</text><rect fill="#FFFFFF" height="52.1973" rx="3" ry="3" style="stroke:#2D3142;stroke-width:0.5;" width="260.5088" x="596.2322" y="372.96" /><text fill="#2D3142" font-family="Arial" font-size="14" lengthAdjust="spacing" textLength="190.6885" x="606.2322" y="396.0918">Snapshot hoặc catalog legacy;</text><text fill="#2D3142" font-family="Arial" font-size="14" lengthAdjust="spacing" textLength="240.5088" x="606.2322" y="412.1904">ẩn URL ảnh hết hạn; 200 PagedResult</text><rect fill="#FFFFFF" height="36.0986" rx="3" ry="3" style="stroke:#2D3142;stroke-width:0.5;" width="204.4951" x="899.5808" y="285.7627" /><text fill="#2D3142" font-family="Arial" font-size="14" lengthAdjust="spacing" textLength="184.4951" x="909.5808" y="308.8945">401 auth hoặc 400 pagination</text><polygon fill="#FFFFFF" points="735.0608,622.4038,993.2542,622.4038,1005.2542,634.4038,993.2542,646.4038,735.0608,646.4038,723.0608,634.4038,735.0608,622.4038" style="stroke:#2D3142;stroke-width:0.5;" /><text fill="#2D3142" font-family="Arial" font-size="14" lengthAdjust="spacing" textLength="258.1934" x="735.0608" y="639.4863">JWT hợp lệ / record tồn tại / đúng owner?</text><text fill="#2D3142" font-family="Arial" font-size="14" lengthAdjust="spacing" textLength="14.7861" x="708.2747" y="631.437">có</text><text fill="#2D3142" font-family="Arial" font-size="14" lengthAdjust="spacing" textLength="38.1445" x="1005.2542" y="631.437">không</text><rect fill="#FFFFFF" height="52.1973" rx="3" ry="3" style="stroke:#2D3142;stroke-width:0.5;" width="186.5645" x="619.7786" y="656.4038" /><text fill="#2D3142" font-family="Arial" font-size="14" lengthAdjust="spacing" textLength="166.5645" x="629.7786" y="679.5356">200 snapshot hoặc legacy;</text><text fill="#2D3142" font-family="Arial" font-size="14" lengthAdjust="spacing" textLength="98.0684" x="629.7786" y="695.6343">ẩn URL hết hạn</text><rect fill="#FFFFFF" height="36.0986" rx="3" ry="3" style="stroke:#2D3142;stroke-width:0.5;" width="258.9229" x="885.7927" y="656.4038" /><text fill="#2D3142" font-family="Arial" font-size="14" lengthAdjust="spacing" textLength="238.9229" x="895.7927" y="679.5356">401 auth / 404 missing hoặc sai owner</text><polygon fill="#FFFFFF" points="864.1575,714.6011,876.1575,726.6011,864.1575,738.6011,852.1575,726.6011,864.1575,714.6011" style="stroke:#2D3142;stroke-width:0.5;" /><polygon fill="#FFFFFF" points="735.4539,908.749,992.8611,908.749,1004.8611,920.749,992.8611,932.749,735.4539,932.749,723.4539,920.749,735.4539,908.749" style="stroke:#2D3142;stroke-width:0.5;" /><text fill="#2D3142" font-family="Arial" font-size="14" lengthAdjust="spacing" textLength="257.4072" x="735.4539" y="925.8315">JWT hợp lệ / tồn tại / owner hoặc Admin?</text><text fill="#2D3142" font-family="Arial" font-size="14" lengthAdjust="spacing" textLength="14.7861" x="708.6677" y="917.7822">có</text><text fill="#2D3142" font-family="Arial" font-size="14" lengthAdjust="spacing" textLength="38.1445" x="1004.8611" y="917.7822">không</text><rect fill="#FFFFFF" height="52.1973" rx="3" ry="3" style="stroke:#2D3142;stroke-width:0.5;" width="205.9922" x="501.4626" y="1125.0449" /><text fill="#2D3142" font-family="Arial" font-size="14" lengthAdjust="spacing" textLength="151.0059" x="511.4626" y="1148.1768">204 nếu DB thành công;</text><text fill="#2D3142" font-family="Arial" font-size="14" lengthAdjust="spacing" textLength="185.9922" x="511.4626" y="1164.2754">exception DB qua middleware</text><rect fill="#FFFFFF" height="52.1973" rx="3" ry="3" style="stroke:#2D3142;stroke-width:0.5;" width="134.4268" x="727.4548" y="1052.8477" /><text fill="#2D3142" font-family="Arial" font-size="14" lengthAdjust="spacing" textLength="114.3994" x="737.4548" y="1075.9795">Giữ history; trả lỗi;</text><text fill="#2D3142" font-family="Arial" font-size="14" lengthAdjust="spacing" textLength="114.4268" x="737.4548" y="1092.0781">400 nếu bool false</text><rect fill="#FFFFFF" height="36.0986" rx="3" ry="3" style="stroke:#2D3142;stroke-width:0.5;" width="229.3711" x="914.0659" y="952.749" /><text fill="#2D3142" font-family="Arial" font-size="14" lengthAdjust="spacing" textLength="209.3711" x="924.0659" y="975.8809">401 auth/quyền hoặc 404 missing</text><polygon fill="#FFFFFF" points="864.1575,1221.2422,876.1575,1233.2422,864.1575,1245.2422,852.1575,1233.2422,864.1575,1221.2422" style="stroke:#2D3142;stroke-width:0.5;" /><line style="stroke:#000000;stroke-width:1.5;" x1="495.4626" x2="495.4626" y1="48.5654" y2="1403.4395" /><rect fill="#FFFFFF" height="52.1973" rx="3" ry="3" style="stroke:#2D3142;stroke-width:0.5;" width="181.8477" x="1286.8708" y="285.7627" /><text fill="#2D3142" font-family="Arial" font-size="14" lengthAdjust="spacing" textLength="138.5098" x="1296.8708" y="308.8945">Count/list theo UserId;</text><text fill="#2D3142" font-family="Arial" font-size="14" lengthAdjust="spacing" textLength="161.8477" x="1296.8708" y="324.9932">sort / skip / take / Includes</text><rect fill="#FFFFFF" height="52.1973" rx="3" ry="3" style="stroke:#2D3142;stroke-width:0.5;" width="202.1025" x="1154.7156" y="1052.8477" /><text fill="#2D3142" font-family="Arial" font-size="14" lengthAdjust="spacing" textLength="182.1025" x="1164.7156" y="1075.9795">DeleteAsync / SaveChanges;</text><text fill="#2D3142" font-family="Arial" font-size="14" lengthAdjust="spacing" textLength="164.1992" x="1164.7156" y="1092.0781">cascade details và images</text><line style="stroke:#000000;stroke-width:1.5;" x1="1148.7156" x2="1148.7156" y1="48.5654" y2="1403.4395" /><polygon fill="#FFFFFF" points="1503.6184,516.2559,1589.2249,516.2559,1601.2249,528.2559,1589.2249,540.2559,1503.6184,540.2559,1491.6184,528.2559,1503.6184,516.2559" style="stroke:#2D3142;stroke-width:0.5;" /><text fill="#2D3142" font-family="Arial" font-size="14" lengthAdjust="spacing" textLength="14.7861" x="1550.4216" y="553.3877">có</text><text fill="#2D3142" font-family="Arial" font-size="14" lengthAdjust="spacing" textLength="85.6064" x="1503.6184" y="533.3384">Chọn chi tiết?</text><polygon fill="#FFFFFF" points="1546.4216,758.6011,1558.4216,770.6011,1546.4216,782.6011,1534.4216,770.6011,1546.4216,758.6011" style="stroke:#2D3142;stroke-width:0.5;" /><polygon fill="#FFFFFF" points="1499.7185,802.6011,1593.1248,802.6011,1605.1248,814.6011,1593.1248,826.6011,1499.7185,826.6011,1487.7185,814.6011,1499.7185,802.6011" style="stroke:#2D3142;stroke-width:0.5;" /><text fill="#2D3142" font-family="Arial" font-size="14" lengthAdjust="spacing" textLength="14.7861" x="1550.4216" y="839.7329">có</text><text fill="#2D3142" font-family="Arial" font-size="14" lengthAdjust="spacing" textLength="93.4063" x="1499.7185" y="819.6836">Xác nhận xóa?</text><polygon fill="#FFFFFF" points="1546.4216,1337.4395,1558.4216,1349.4395,1546.4216,1361.4395,1534.4216,1349.4395,1546.4216,1337.4395" style="stroke:#2D3142;stroke-width:0.5;" /><line style="stroke:#000000;stroke-width:1.5;" x1="1472.7185" x2="1472.7185" y1="48.5654" y2="1403.4395" /><rect fill="#FFFFFF" height="36.0986" rx="3" ry="3" style="stroke:#2D3142;stroke-width:0.5;" width="142.9854" x="1758.834" y="952.749" /><text fill="#2D3142" font-family="Arial" font-size="14" lengthAdjust="spacing" textLength="122.9854" x="1768.834" y="975.8809">Xóa từng ID distinct</text><polygon fill="#FFFFFF" points="1757.5684,1008.8477,1903.085,1008.8477,1915.085,1020.8477,1903.085,1032.8477,1757.5684,1032.8477,1745.5684,1020.8477,1757.5684,1008.8477" style="stroke:#2D3142;stroke-width:0.5;" /><text fill="#2D3142" font-family="Arial" font-size="14" lengthAdjust="spacing" textLength="145.5166" x="1757.5684" y="1025.9302">Tất cả storage trả true?</text><text fill="#2D3142" font-family="Arial" font-size="14" lengthAdjust="spacing" textLength="101.165" x="1644.4033" y="1017.8809">có / không có ID</text><text fill="#2D3142" font-family="Arial" font-size="14" lengthAdjust="spacing" textLength="109.7441" x="1915.085" y="1017.8809">không / exception</text><polygon fill="#FFFFFF" points="1830.3267,1187.2422,1842.3267,1199.2422,1830.3267,1211.2422,1818.3267,1199.2422,1830.3267,1187.2422" style="stroke:#2D3142;stroke-width:0.5;" /><line style="stroke:#000000;stroke-width:1.5;" x1="1639.4033" x2="1639.4033" y1="48.5654" y2="1403.4395" /><line style="stroke:#000000;stroke-width:1.5;" x1="2029.8291" x2="2029.8291" y1="48.5654" y2="1403.4395" /><line style="stroke:#4F5D75;stroke-width:1;" x1="393.1812" x2="393.1812" y1="179.7627" y2="199.7627" /><polygon fill="#4F5D75" points="389.1812,189.7627,393.1812,199.7627,397.1812,189.7627,393.1812,193.7627" style="stroke:#4F5D75;stroke-width:1;" /><line style="stroke:#4F5D75;stroke-width:1;" x1="173.0408" x2="155.8994" y1="121.6641" y2="121.6641" /><line style="stroke:#4F5D75;stroke-width:1;" x1="155.8994" x2="155.8994" y1="121.6641" y2="143.6641" /><polygon fill="#4F5D75" points="151.8994,133.6641,155.8994,143.6641,159.8994,133.6641,155.8994,137.6641" style="stroke:#4F5D75;stroke-width:1;" /><line style="stroke:#4F5D75;stroke-width:1;" x1="376.0398" x2="393.1812" y1="121.6641" y2="121.6641" /><line style="stroke:#4F5D75;stroke-width:1;" x1="393.1812" x2="393.1812" y1="121.6641" y2="143.6641" /><polygon fill="#4F5D75" points="389.1812,133.6641,393.1812,143.6641,397.1812,133.6641,393.1812,137.6641" style="stroke:#4F5D75;stroke-width:1;" /><line style="stroke:#4F5D75;stroke-width:1;" x1="155.8994" x2="155.8994" y1="179.7627" y2="226.7627" /><line style="stroke:#4F5D75;stroke-width:1;" x1="155.8994" x2="864.1575" y1="226.7627" y2="226.7627" /><line style="stroke:#4F5D75;stroke-width:1;" x1="864.1575" x2="864.1575" y1="226.7627" y2="241.7627" /><polygon fill="#4F5D75" points="860.1575,231.7627,864.1575,241.7627,868.1575,231.7627,864.1575,235.7627" style="stroke:#4F5D75;stroke-width:1;" /><line style="stroke:#4F5D75;stroke-width:1;" x1="274.5403" x2="274.5403" y1="89.6641" y2="109.6641" /><polygon fill="#4F5D75" points="270.5403,99.6641,274.5403,109.6641,278.5403,99.6641,274.5403,103.6641" style="stroke:#4F5D75;stroke-width:1;" /><line style="stroke:#4F5D75;stroke-width:1;" x1="412.2112" x2="412.2112" y1="392.96" y2="427.96" /><polygon fill="#4F5D75" points="408.2112,417.96,412.2112,427.96,416.2112,417.96,412.2112,421.96" style="stroke:#4F5D75;stroke-width:1;" /><line style="stroke:#4F5D75;stroke-width:1;" x1="991.8284" x2="1001.8284" y1="253.7627" y2="253.7627" /><line style="stroke:#4F5D75;stroke-width:1;" x1="1001.8284" x2="1001.8284" y1="253.7627" y2="285.7627" /><polygon fill="#4F5D75" points="997.8284,275.7627,1001.8284,285.7627,1005.8284,275.7627,1001.8284,279.7627" style="stroke:#4F5D75;stroke-width:1;" /><line style="stroke:#4F5D75;stroke-width:1;" x1="723.0608" x2="713.0608" y1="634.4038" y2="634.4038" /><line style="stroke:#4F5D75;stroke-width:1;" x1="713.0608" x2="713.0608" y1="634.4038" y2="656.4038" /><polygon fill="#4F5D75" points="709.0608,646.4038,713.0608,656.4038,717.0608,646.4038,713.0608,650.4038" style="stroke:#4F5D75;stroke-width:1;" /><line style="stroke:#4F5D75;stroke-width:1;" x1="1005.2542" x2="1015.2542" y1="634.4038" y2="634.4038" /><line style="stroke:#4F5D75;stroke-width:1;" x1="1015.2542" x2="1015.2542" y1="634.4038" y2="656.4038" /><polygon fill="#4F5D75" points="1011.2542,646.4038,1015.2542,656.4038,1019.2542,646.4038,1015.2542,650.4038" style="stroke:#4F5D75;stroke-width:1;" /><line style="stroke:#4F5D75;stroke-width:1;" x1="713.0608" x2="713.0608" y1="708.6011" y2="726.6011" /><line style="stroke:#4F5D75;stroke-width:1;" x1="713.0608" x2="852.1575" y1="726.6011" y2="726.6011" /><polygon fill="#4F5D75" points="842.1575,722.6011,852.1575,726.6011,842.1575,730.6011,846.1575,726.6011" style="stroke:#4F5D75;stroke-width:1;" /><line style="stroke:#4F5D75;stroke-width:1;" x1="1015.2542" x2="1015.2542" y1="692.5024" y2="726.6011" /><line style="stroke:#4F5D75;stroke-width:1;" x1="1015.2542" x2="876.1575" y1="726.6011" y2="726.6011" /><polygon fill="#4F5D75" points="886.1575,722.6011,876.1575,726.6011,886.1575,730.6011,882.1575,726.6011" style="stroke:#4F5D75;stroke-width:1;" /><line style="stroke:#4F5D75;stroke-width:1;" x1="1004.8611" x2="1028.7515" y1="920.749" y2="920.749" /><line style="stroke:#4F5D75;stroke-width:1;" x1="1028.7515" x2="1028.7515" y1="920.749" y2="952.749" /><polygon fill="#4F5D75" points="1024.7515,942.749,1028.7515,952.749,1032.7515,942.749,1028.7515,946.749" style="stroke:#4F5D75;stroke-width:1;" /><line style="stroke:#4F5D75;stroke-width:1;" x1="1028.7515" x2="1028.7515" y1="988.8477" y2="1233.2422" /><line style="stroke:#4F5D75;stroke-width:1;" x1="1028.7515" x2="876.1575" y1="1233.2422" y2="1233.2422" /><polygon fill="#4F5D75" points="886.1575,1229.2422,876.1575,1233.2422,886.1575,1237.2422,882.1575,1233.2422" style="stroke:#4F5D75;stroke-width:1;" /><line style="stroke:#4F5D75;stroke-width:1;" x1="1601.2249" x2="1620.4033" y1="528.2559" y2="528.2559" /><polygon fill="#4F5D75" points="1616.4033,634.9531,1620.4033,644.9531,1624.4033,634.9531,1620.4033,638.9531" style="stroke:#4F5D75;stroke-width:1;" /><line style="stroke:#4F5D75;stroke-width:1;" x1="1620.4033" x2="1620.4033" y1="528.2559" y2="770.6011" /><line style="stroke:#4F5D75;stroke-width:1;" x1="1620.4033" x2="1558.4216" y1="770.6011" y2="770.6011" /><polygon fill="#4F5D75" points="1568.4216,766.6011,1558.4216,770.6011,1568.4216,774.6011,1564.4216,770.6011" style="stroke:#4F5D75;stroke-width:1;" /><line style="stroke:#4F5D75;stroke-width:1;" x1="1605.1248" x2="1619.1248" y1="814.6011" y2="814.6011" /><polygon fill="#4F5D75" points="1615.1248,1075.0449,1619.1248,1085.0449,1623.1248,1075.0449,1619.1248,1079.0449" style="stroke:#4F5D75;stroke-width:1;" /><line style="stroke:#4F5D75;stroke-width:1;" x1="1619.1248" x2="1619.1248" y1="814.6011" y2="1349.4395" /><line style="stroke:#4F5D75;stroke-width:1;" x1="1619.1248" x2="1558.4216" y1="1349.4395" y2="1349.4395" /><polygon fill="#4F5D75" points="1568.4216,1345.4395,1558.4216,1349.4395,1568.4216,1353.4395,1564.4216,1349.4395" style="stroke:#4F5D75;stroke-width:1;" /><line style="stroke:#4F5D75;stroke-width:1;" x1="1546.4216" x2="1546.4216" y1="782.6011" y2="802.6011" /><polygon fill="#4F5D75" points="1542.4216,792.6011,1546.4216,802.6011,1550.4216,792.6011,1546.4216,796.6011" style="stroke:#4F5D75;stroke-width:1;" /><line style="stroke:#4F5D75;stroke-width:1;" x1="1830.3267" x2="1830.3267" y1="988.8477" y2="1008.8477" /><polygon fill="#4F5D75" points="1826.3267,998.8477,1830.3267,1008.8477,1834.3267,998.8477,1830.3267,1002.8477" style="stroke:#4F5D75;stroke-width:1;" /><line style="stroke:#4F5D75;stroke-width:1;" x1="1377.7947" x2="1377.7947" y1="337.96" y2="355.46" /><line style="stroke:#4F5D75;stroke-width:1;" x1="1377.7947" x2="726.4866" y1="355.46" y2="355.46" /><line style="stroke:#4F5D75;stroke-width:1;" x1="726.4866" x2="726.4866" y1="355.46" y2="372.96" /><polygon fill="#4F5D75" points="722.4866,362.96,726.4866,372.96,730.4866,362.96,726.4866,366.96" style="stroke:#4F5D75;stroke-width:1;" /><line style="stroke:#4F5D75;stroke-width:1;" x1="726.4866" x2="726.4866" y1="425.1572" y2="442.6572" /><line style="stroke:#4F5D75;stroke-width:1;" x1="726.4866" x2="136.8694" y1="442.6572" y2="442.6572" /><line style="stroke:#4F5D75;stroke-width:1;" x1="136.8694" x2="136.8694" y1="442.6572" y2="460.1572" /><polygon fill="#4F5D75" points="132.8694,450.1572,136.8694,460.1572,140.8694,450.1572,136.8694,454.1572" style="stroke:#4F5D75;stroke-width:1;" /><line style="stroke:#4F5D75;stroke-width:1;" x1="1001.8284" x2="1001.8284" y1="321.8613" y2="339.3613" /><line style="stroke:#4F5D75;stroke-width:1;" x1="1001.8284" x2="412.2112" y1="339.3613" y2="339.3613" /><line style="stroke:#4F5D75;stroke-width:1;" x1="412.2112" x2="412.2112" y1="339.3613" y2="356.8613" /><polygon fill="#4F5D75" points="408.2112,346.8613,412.2112,356.8613,416.2112,346.8613,412.2112,350.8613" style="stroke:#4F5D75;stroke-width:1;" /><line style="stroke:#4F5D75;stroke-width:1;" x1="736.4866" x2="724.4866" y1="253.7627" y2="253.7627" /><line style="stroke:#4F5D75;stroke-width:1;" x1="724.4866" x2="724.4866" y1="253.7627" y2="271.7627" /><line style="stroke:#4F5D75;stroke-width:1;" x1="724.4866" x2="1377.7947" y1="271.7627" y2="271.7627" /><line style="stroke:#4F5D75;stroke-width:1;" x1="1377.7947" x2="1377.7947" y1="271.7627" y2="285.7627" /><polygon fill="#4F5D75" points="1373.7947,275.7627,1377.7947,285.7627,1381.7947,275.7627,1377.7947,279.7627" style="stroke:#4F5D75;stroke-width:1;" /><line style="stroke:#4F5D75;stroke-width:1;" x1="136.8694" x2="136.8694" y1="496.2559" y2="501.2559" /><line style="stroke:#4F5D75;stroke-width:1;" x1="136.8694" x2="1546.4216" y1="501.2559" y2="501.2559" /><line style="stroke:#4F5D75;stroke-width:1;" x1="1546.4216" x2="1546.4216" y1="501.2559" y2="516.2559" /><polygon fill="#4F5D75" points="1542.4216,506.2559,1546.4216,516.2559,1550.4216,506.2559,1546.4216,510.2559" style="stroke:#4F5D75;stroke-width:1;" /><line style="stroke:#4F5D75;stroke-width:1;" x1="274.5403" x2="274.5403" y1="602.4038" y2="607.4038" /><line style="stroke:#4F5D75;stroke-width:1;" x1="274.5403" x2="864.1575" y1="607.4038" y2="607.4038" /><line style="stroke:#4F5D75;stroke-width:1;" x1="864.1575" x2="864.1575" y1="607.4038" y2="622.4038" /><polygon fill="#4F5D75" points="860.1575,612.4038,864.1575,622.4038,868.1575,612.4038,864.1575,616.4038" style="stroke:#4F5D75;stroke-width:1;" /><line style="stroke:#4F5D75;stroke-width:1;" x1="1546.4216" x2="1546.4216" y1="540.2559" y2="553.2805" /><line style="stroke:#4F5D75;stroke-width:1;" x1="1546.4216" x2="274.5403" y1="553.2805" y2="553.2805" /><line style="stroke:#4F5D75;stroke-width:1;" x1="274.5403" x2="274.5403" y1="553.2805" y2="566.3052" /><polygon fill="#4F5D75" points="270.5403,556.3052,274.5403,566.3052,278.5403,556.3052,274.5403,560.3052" style="stroke:#4F5D75;stroke-width:1;" /><line style="stroke:#4F5D75;stroke-width:1;" x1="864.1575" x2="864.1575" y1="738.6011" y2="745.5764" /><line style="stroke:#4F5D75;stroke-width:1;" x1="864.1575" x2="1546.4216" y1="745.5764" y2="745.5764" /><line style="stroke:#4F5D75;stroke-width:1;" x1="1546.4216" x2="1546.4216" y1="745.5764" y2="758.6011" /><polygon fill="#4F5D75" points="1542.4216,748.6011,1546.4216,758.6011,1550.4216,748.6011,1546.4216,752.6011" style="stroke:#4F5D75;stroke-width:1;" /><line style="stroke:#4F5D75;stroke-width:1;" x1="1255.7668" x2="1255.7668" y1="1105.0449" y2="1110.0449" /><line style="stroke:#4F5D75;stroke-width:1;" x1="1255.7668" x2="604.4587" y1="1110.0449" y2="1110.0449" /><line style="stroke:#4F5D75;stroke-width:1;" x1="604.4587" x2="604.4587" y1="1110.0449" y2="1125.0449" /><polygon fill="#4F5D75" points="600.4587,1115.0449,604.4587,1125.0449,608.4587,1115.0449,604.4587,1119.0449" style="stroke:#4F5D75;stroke-width:1;" /><line style="stroke:#4F5D75;stroke-width:1;" x1="1745.5684" x2="1255.7668" y1="1020.8477" y2="1020.8477" /><line style="stroke:#4F5D75;stroke-width:1;" x1="1255.7668" x2="1255.7668" y1="1020.8477" y2="1052.8477" /><polygon fill="#4F5D75" points="1251.7668,1042.8477,1255.7668,1052.8477,1259.7668,1042.8477,1255.7668,1046.8477" style="stroke:#4F5D75;stroke-width:1;" /><line style="stroke:#4F5D75;stroke-width:1;" x1="1915.085" x2="1927.085" y1="1020.8477" y2="1020.8477" /><line style="stroke:#4F5D75;stroke-width:1;" x1="1927.085" x2="1927.085" y1="1020.8477" y2="1038.8477" /><line style="stroke:#4F5D75;stroke-width:1;" x1="1927.085" x2="794.6682" y1="1038.8477" y2="1038.8477" /><line style="stroke:#4F5D75;stroke-width:1;" x1="794.6682" x2="794.6682" y1="1038.8477" y2="1052.8477" /><polygon fill="#4F5D75" points="790.6682,1042.8477,794.6682,1052.8477,798.6682,1042.8477,794.6682,1046.8477" style="stroke:#4F5D75;stroke-width:1;" /><line style="stroke:#4F5D75;stroke-width:1;" x1="604.4587" x2="604.4587" y1="1177.2422" y2="1199.2422" /><line style="stroke:#4F5D75;stroke-width:1;" x1="604.4587" x2="1818.3267" y1="1199.2422" y2="1199.2422" /><polygon fill="#4F5D75" points="1808.3267,1195.2422,1818.3267,1199.2422,1808.3267,1203.2422,1812.3267,1199.2422" style="stroke:#4F5D75;stroke-width:1;" /><line style="stroke:#4F5D75;stroke-width:1;" x1="794.6682" x2="794.6682" y1="1105.0449" y2="1181.2422" /><line style="stroke:#4F5D75;stroke-width:1;" x1="794.6682" x2="1860.3267" y1="1181.2422" y2="1181.2422" /><line style="stroke:#4F5D75;stroke-width:1;" x1="1860.3267" x2="1860.3267" y1="1181.2422" y2="1199.2422" /><line style="stroke:#4F5D75;stroke-width:1;" x1="1860.3267" x2="1842.3267" y1="1199.2422" y2="1199.2422" /><polygon fill="#4F5D75" points="1852.3267,1195.2422,1842.3267,1199.2422,1852.3267,1203.2422,1848.3267,1199.2422" style="stroke:#4F5D75;stroke-width:1;" /><line style="stroke:#4F5D75;stroke-width:1;" x1="723.4539" x2="711.4539" y1="920.749" y2="920.749" /><line style="stroke:#4F5D75;stroke-width:1;" x1="711.4539" x2="711.4539" y1="920.749" y2="938.749" /><line style="stroke:#4F5D75;stroke-width:1;" x1="711.4539" x2="1830.3267" y1="938.749" y2="938.749" /><line style="stroke:#4F5D75;stroke-width:1;" x1="1830.3267" x2="1830.3267" y1="938.749" y2="952.749" /><polygon fill="#4F5D75" points="1826.3267,942.749,1830.3267,952.749,1834.3267,942.749,1830.3267,946.749" style="stroke:#4F5D75;stroke-width:1;" /><line style="stroke:#4F5D75;stroke-width:1;" x1="1830.3267" x2="1830.3267" y1="1211.2422" y2="1215.2422" /><line style="stroke:#4F5D75;stroke-width:1;" x1="1830.3267" x2="834.1575" y1="1215.2422" y2="1215.2422" /><line style="stroke:#4F5D75;stroke-width:1;" x1="834.1575" x2="834.1575" y1="1215.2422" y2="1233.2422" /><line style="stroke:#4F5D75;stroke-width:1;" x1="834.1575" x2="852.1575" y1="1233.2422" y2="1233.2422" /><polygon fill="#4F5D75" points="842.1575,1229.2422,852.1575,1233.2422,842.1575,1237.2422,846.1575,1233.2422" style="stroke:#4F5D75;stroke-width:1;" /><line style="stroke:#4F5D75;stroke-width:1;" x1="274.5403" x2="274.5403" y1="888.749" y2="893.749" /><line style="stroke:#4F5D75;stroke-width:1;" x1="274.5403" x2="864.1575" y1="893.749" y2="893.749" /><line style="stroke:#4F5D75;stroke-width:1;" x1="864.1575" x2="864.1575" y1="893.749" y2="908.749" /><polygon fill="#4F5D75" points="860.1575,898.749,864.1575,908.749,868.1575,898.749,864.1575,902.749" style="stroke:#4F5D75;stroke-width:1;" /><line style="stroke:#4F5D75;stroke-width:1;" x1="864.1575" x2="864.1575" y1="1245.2422" y2="1250.2422" /><line style="stroke:#4F5D75;stroke-width:1;" x1="864.1575" x2="274.5403" y1="1250.2422" y2="1250.2422" /><line style="stroke:#4F5D75;stroke-width:1;" x1="274.5403" x2="274.5403" y1="1250.2422" y2="1265.2422" /><polygon fill="#4F5D75" points="270.5403,1255.2422,274.5403,1265.2422,278.5403,1255.2422,274.5403,1259.2422" style="stroke:#4F5D75;stroke-width:1;" /><line style="stroke:#4F5D75;stroke-width:1;" x1="1546.4216" x2="1546.4216" y1="826.6011" y2="839.6257" /><line style="stroke:#4F5D75;stroke-width:1;" x1="1546.4216" x2="274.5403" y1="839.6257" y2="839.6257" /><line style="stroke:#4F5D75;stroke-width:1;" x1="274.5403" x2="274.5403" y1="839.6257" y2="852.6504" /><polygon fill="#4F5D75" points="270.5403,842.6504,274.5403,852.6504,278.5403,842.6504,274.5403,846.6504" style="stroke:#4F5D75;stroke-width:1;" /><line style="stroke:#4F5D75;stroke-width:1;" x1="274.5403" x2="274.5403" y1="1317.4395" y2="1324.4148" /><line style="stroke:#4F5D75;stroke-width:1;" x1="274.5403" x2="1546.4216" y1="1324.4148" y2="1324.4148" /><line style="stroke:#4F5D75;stroke-width:1;" x1="1546.4216" x2="1546.4216" y1="1324.4148" y2="1337.4395" /><polygon fill="#4F5D75" points="1542.4216,1327.4395,1546.4216,1337.4395,1550.4216,1327.4395,1546.4216,1331.4395" style="stroke:#4F5D75;stroke-width:1;" /><line style="stroke:#4F5D75;stroke-width:1;" x1="1546.4216" x2="1546.4216" y1="1361.4395" y2="1366.4395" /><line style="stroke:#4F5D75;stroke-width:1;" x1="1546.4216" x2="274.5403" y1="1366.4395" y2="1366.4395" /><line style="stroke:#4F5D75;stroke-width:1;" x1="274.5403" x2="274.5403" y1="1366.4395" y2="1381.4395" /><polygon fill="#4F5D75" points="270.5403,1371.4395,274.5403,1381.4395,278.5403,1371.4395,274.5403,1375.4395" style="stroke:#4F5D75;stroke-width:1;" /><text fill="#2D3142" font-family="Arial" font-size="14" lengthAdjust="spacing" textLength="56.0342" x="227.2142" y="61.6973">Frontend</text><text fill="#2D3142" font-family="Arial" font-size="14" lengthAdjust="spacing" textLength="54.4824" x="794.8479" y="61.6973">Backend</text><text fill="#2D3142" font-family="Arial" font-size="14" lengthAdjust="spacing" textLength="59.9307" x="1280.7517" y="61.6973">Database</text><text fill="#2D3142" font-family="Arial" font-size="14" lengthAdjust="spacing" textLength="29.5586" x="1541.2816" y="61.6973">User</text><text fill="#2D3142" font-family="Arial" font-size="14" lengthAdjust="spacing" textLength="89.4961" x="1789.8682" y="61.6973">Image storage</text><!--SRC=[fLP1Qnj75BxlhtYa5vjILdAL12pQeaYEg-264DiqXrn6ioFjeDNCUcRMZbeLMdh88OGqfD1hZEcXbD132WNfa8FoHxQ_fE-jLj9g9MH39QHbTzvyxtlVzzv8jYzLp0mRG8VnVi_eH0LD7Ma3dtHlqzkpYuX0T5aIkVjQkOTi8E1MmqWMtTeSSIo_4r2jRLxCC-m5drThUuMGXZ7w8b-iTMy7TulfRSW2VI5L3xeiigAmah7csYXXu4xXEO-OjGtdZEmaJhIvLXchIY5ae9NceT5OJXdreNRYNbaKmUbTZj8c42QFw7HvXHTJM76M2CN58sQSv39cogt1ThFNDPkAMTQaOzp9S-c6rqCl8hVYMSSsbB_ECmlRYfIvS3tIB6mhKc85P_O6hEQ1Mz6Cu8wfNdG3l6NezagbuJU1o-CsO3df8W6Dt27uzyTVuRJvMUKEHEda1G_1ffDtu6VFxiApwNi6eKmdpnMuT7mflT5zWzCbL33oq1ZZFDc5dO-_JAyWqZsfV2EiqqR0-VGjVJImEFvg5rme5EpmwVjT3_OF3qx0Px7qOoC2YKoqiX2pdlYYwbSh5VWK7dnxKlS43WlizCFftwf7szhA6Vq8mv3U4INxHWSigdlO8Jhsa9BiUYEI9cD7l136FxN2j0C8qybLJ3K-pwXHDj_Ig7u9bHA_KOivra5pHvYqYIexFvBMKOo66LpzgRBQE2I2aiTuSQnFjDgAHqaWB99QCe7zOyLY6se7eKx7_t3Wc03bWaZq61yYM3h-Gy7fuoD8nrSgHBBZ3uw-BrKTzb0HgZfuB2mURWIzz03slqPtVaPtiC0NQ1MfFrpJhaYcLga2Irmu9rD3V9H3AaP6bE4FGmaNp2Ww5B43hkGonuhkfCjCz2OoUQc0uqOdgP2ol2lm6rh1_ru6FyoRe4WzjxJefK-3WrsEt2PlyXx5XnzVJyT8M5_WULrA3_iag2qvikv4qGCFIdeMLFHHm1eCfBKaKGvdcPmbfwsPG6ioFPbUSb28_qvbOxPDfTR1qS79mVyKQbMXZDsSRYCOI5NMQTGUqAoHsNWTKT5Fw3X0d3-nqdOB0km4gJYrP9Ro91t_xe1ZbyntWJDqvqmYYl2OVoObq4sxHUbMnWvpjKGad6ZOeU8OVipEHJF40n9dwwd2avUpGE3llMCoijb4Is9BWmT59JAxQu2sVaYWTGyfJD_YW75AZa3Y6HSnQKbhPmb37uCW4jZmWf2AhYE9HVJkUfP37CE_5hEHrutA_oOn3OtOZ497wsZsDo33pvfYhRcAo8j6yy-IOJhvIIt7Tj5rYoPRxPeZdNdTnovu9MS_etWZyK2f8QUmU6vaHBD5l2SJExIrddSjpVb_]--></g></svg>
