<svg xmlns="http://www.w3.org/2000/svg" xmlns:xlink="http://www.w3.org/1999/xlink" contentStyleType="text/css" data-diagram-type="CLASS" height="1123px" preserveAspectRatio="none" style="width:1044px;height:1123px;background:#F5F5F5;" version="1.1" viewBox="0 0 1044 1123" width="1044px" zoomAndPan="magnify" role="img" aria-labelledby="class_entities-title class_entities-desc"><title id="class_entities-title">Class — 9 Domain entities sau AGRI-70</title><desc id="class_entities-desc">AgriVision working tree sau AGRI-70, đối chiếu 2026-10-07; xem README và traceability.</desc><defs /><g><rect fill="#F5F5F5" height="1123" style="stroke:none;stroke-width:1;" width="1044" x="0" y="0" /><text fill="#2D3142" font-family="Arial" font-size="14" font-weight="bold" lengthAdjust="spacing" textLength="262.1924" x="383.9697" y="23.1318">Class — 9 Domain entities sau AGRI-70</text><!--class Disease--><g class="entity" data-entity="Disease" data-source-line="28" data-uid="ent0002" id="class_entities-entity_Disease"><rect fill="#FFFFFF" height="263.3809" rx="3" ry="3" style="stroke:#2D3142;stroke-width:0.5;" width="281.6504" x="7" y="44.0986" /><ellipse cx="118.5356" cy="59.0986" fill="#ADD1B2" rx="10" ry="10" style="stroke:#181818;stroke-width:1;" /><path d="M119.9419,55.1611 Q120.0669,54.9893 120.2231,54.9111 Q120.3794,54.8174 120.5513,54.8174 Q120.8638,54.8174 121.0513,55.0361 Q121.2544,55.2393 121.2544,55.7393 L121.2544,56.9268 Q121.2544,57.4424 121.0513,57.6611 Q120.8638,57.8643 120.5513,57.8643 Q120.27,57.8643 120.0981,57.708 Q119.9263,57.5518 119.8481,57.1299 Q119.8013,56.833 119.6606,56.6768 Q119.3794,56.3643 118.8638,56.1924 Q118.3638,56.0049 117.8638,56.0049 Q117.2388,56.0049 116.7075,56.2861 Q116.1763,56.5518 115.77,57.1768 Q115.3794,57.7861 115.3794,58.6299 L115.3794,59.5361 Q115.3794,60.5518 116.1138,61.2236 Q116.8481,61.8955 118.145,61.8955 Q118.9263,61.8955 119.4731,61.6924 Q119.7856,61.5674 120.145,61.208 Q120.3638,60.9893 120.4731,60.9268 Q120.5981,60.8486 120.7544,60.8486 Q121.0356,60.8486 121.2544,61.0674 Q121.4731,61.2861 121.4731,61.5674 Q121.4731,61.8486 121.1763,62.1768 Q120.7544,62.6611 120.0981,62.9268 Q119.2231,63.3018 118.1606,63.3018 Q116.9106,63.3018 115.9106,62.7861 Q115.1138,62.3799 114.5356,61.5049 Q113.9731,60.6143 113.9731,59.5674 L113.9731,58.6143 Q113.9731,57.5205 114.4731,56.583 Q114.9888,55.6299 115.895,55.1143 Q116.8013,54.5986 117.8013,54.5986 Q118.4106,54.5986 118.9419,54.7393 Q119.4731,54.8799 119.9419,55.1611 Z " fill="#2D3142" /><text fill="#2D3142" font-family="Arial" font-size="14" lengthAdjust="spacing" textLength="50.5791" x="137.5356" y="64.1812">Disease</text><line style="stroke:#2D3142;stroke-width:0.5;" x1="8" x2="287.6504" y1="74.0986" y2="74.0986" /><text fill="#2D3142" font-family="Arial" font-size="14" lengthAdjust="spacing" textLength="57.2031" x="13" y="91.2305">+Id: Guid</text><text fill="#2D3142" font-family="Arial" font-size="14" lengthAdjust="spacing" textLength="87.5342" x="13" y="107.3291">+Name: string</text><text fill="#2D3142" font-family="Arial" font-size="14" lengthAdjust="spacing" textLength="169.251" x="13" y="123.4277">+VietnameseName: string?</text><text fill="#2D3142" font-family="Arial" font-size="14" lengthAdjust="spacing" textLength="128.0029" x="13" y="139.5264">+Description: string?</text><text fill="#2D3142" font-family="Arial" font-size="14" lengthAdjust="spacing" textLength="124.0996" x="13" y="155.625">+Symptoms: string?</text><text fill="#2D3142" font-family="Arial" font-size="14" lengthAdjust="spacing" textLength="121.7754" x="13" y="171.7236">+Treatment: string?</text><text fill="#2D3142" font-family="Arial" font-size="14" lengthAdjust="spacing" textLength="124.9063" x="13" y="187.8223">+Prevention: string?</text><text fill="#2D3142" font-family="Arial" font-size="14" lengthAdjust="spacing" textLength="140.4648" x="13" y="203.9209">+ConditionType: string</text><text fill="#2D3142" font-family="Arial" font-size="14" lengthAdjust="spacing" textLength="162.2783" x="13" y="220.0195">+IsContentApproved: bool</text><text fill="#2D3142" font-family="Arial" font-size="14" lengthAdjust="spacing" textLength="125.6787" x="13" y="236.1182">+Medication: string?</text><text fill="#2D3142" font-family="Arial" font-size="14" lengthAdjust="spacing" textLength="91.4375" x="13" y="252.2168">+IsActive: bool</text><text fill="#2D3142" font-family="Arial" font-size="14" lengthAdjust="spacing" textLength="139.6719" x="13" y="268.3154">+CreatedAt: DateTime</text><text fill="#2D3142" font-family="Arial" font-size="14" lengthAdjust="spacing" textLength="150.582" x="13" y="284.4141">+UpdatedAt: DateTime?</text><text fill="#2D3142" font-family="Arial" font-size="14" lengthAdjust="spacing" textLength="269.6504" x="13" y="300.5127">+PlantDiseases: ICollection&lt;PlantDisease&gt;</text></g><!--class Plant--><g class="entity" data-entity="Plant" data-source-line="44" data-uid="ent0003" id="class_entities-entity_Plant"><rect fill="#FFFFFF" height="182.8877" rx="3" ry="3" style="stroke:#2D3142;stroke-width:0.5;" width="281.6504" x="324" y="84.0986" /><ellipse cx="444.8701" cy="99.0986" fill="#ADD1B2" rx="10" ry="10" style="stroke:#181818;stroke-width:1;" /><path d="M446.2764,95.1611 Q446.4014,94.9893 446.5576,94.9111 Q446.7139,94.8174 446.8857,94.8174 Q447.1982,94.8174 447.3857,95.0361 Q447.5889,95.2393 447.5889,95.7393 L447.5889,96.9268 Q447.5889,97.4424 447.3857,97.6611 Q447.1982,97.8643 446.8857,97.8643 Q446.6045,97.8643 446.4326,97.708 Q446.2607,97.5518 446.1826,97.1299 Q446.1357,96.833 445.9951,96.6768 Q445.7139,96.3643 445.1982,96.1924 Q444.6982,96.0049 444.1982,96.0049 Q443.5732,96.0049 443.042,96.2861 Q442.5107,96.5518 442.1045,97.1768 Q441.7139,97.7861 441.7139,98.6299 L441.7139,99.5361 Q441.7139,100.5518 442.4482,101.2236 Q443.1826,101.8955 444.4795,101.8955 Q445.2607,101.8955 445.8076,101.6924 Q446.1201,101.5674 446.4795,101.208 Q446.6982,100.9893 446.8076,100.9268 Q446.9326,100.8486 447.0889,100.8486 Q447.3701,100.8486 447.5889,101.0674 Q447.8076,101.2861 447.8076,101.5674 Q447.8076,101.8486 447.5107,102.1768 Q447.0889,102.6611 446.4326,102.9268 Q445.5576,103.3018 444.4951,103.3018 Q443.2451,103.3018 442.2451,102.7861 Q441.4482,102.3799 440.8701,101.5049 Q440.3076,100.6143 440.3076,99.5674 L440.3076,98.6143 Q440.3076,97.5205 440.8076,96.583 Q441.3232,95.6299 442.2295,95.1143 Q443.1357,94.5986 444.1357,94.5986 Q444.7451,94.5986 445.2764,94.7393 Q445.8076,94.8799 446.2764,95.1611 Z " fill="#2D3142" /><text fill="#2D3142" font-family="Arial" font-size="14" lengthAdjust="spacing" textLength="31.9102" x="463.8701" y="104.1812">Plant</text><line style="stroke:#2D3142;stroke-width:0.5;" x1="325" x2="604.6504" y1="114.0986" y2="114.0986" /><text fill="#2D3142" font-family="Arial" font-size="14" lengthAdjust="spacing" textLength="57.2031" x="330" y="131.2305">+Id: Guid</text><text fill="#2D3142" font-family="Arial" font-size="14" lengthAdjust="spacing" textLength="87.5342" x="330" y="147.3291">+Name: string</text><text fill="#2D3142" font-family="Arial" font-size="14" lengthAdjust="spacing" textLength="169.251" x="330" y="163.4277">+VietnameseName: string?</text><text fill="#2D3142" font-family="Arial" font-size="14" lengthAdjust="spacing" textLength="151.3408" x="330" y="179.5264">+ScientificName: string?</text><text fill="#2D3142" font-family="Arial" font-size="14" lengthAdjust="spacing" textLength="128.0029" x="330" y="195.625">+Description: string?</text><text fill="#2D3142" font-family="Arial" font-size="14" lengthAdjust="spacing" textLength="91.4375" x="330" y="211.7236">+IsActive: bool</text><text fill="#2D3142" font-family="Arial" font-size="14" lengthAdjust="spacing" textLength="139.6719" x="330" y="227.8223">+CreatedAt: DateTime</text><text fill="#2D3142" font-family="Arial" font-size="14" lengthAdjust="spacing" textLength="150.582" x="330" y="243.9209">+UpdatedAt: DateTime?</text><text fill="#2D3142" font-family="Arial" font-size="14" lengthAdjust="spacing" textLength="269.6504" x="330" y="260.0195">+PlantDiseases: ICollection&lt;PlantDisease&gt;</text></g><!--class PlantDisease--><g class="entity" data-entity="PlantDisease" data-source-line="55" data-uid="ent0004" id="class_entities-entity_PlantDisease"><rect fill="#FFFFFF" height="198.9863" rx="3" ry="3" style="stroke:#2D3142;stroke-width:0.5;" width="312.7676" x="149.5" y="367.0986" /><ellipse cx="260.6392" cy="382.0986" fill="#ADD1B2" rx="10" ry="10" style="stroke:#181818;stroke-width:1;" /><path d="M262.0454,378.1611 Q262.1704,377.9893 262.3267,377.9111 Q262.4829,377.8174 262.6548,377.8174 Q262.9673,377.8174 263.1548,378.0361 Q263.3579,378.2393 263.3579,378.7393 L263.3579,379.9268 Q263.3579,380.4424 263.1548,380.6611 Q262.9673,380.8643 262.6548,380.8643 Q262.3735,380.8643 262.2017,380.708 Q262.0298,380.5518 261.9517,380.1299 Q261.9048,379.833 261.7642,379.6768 Q261.4829,379.3643 260.9673,379.1924 Q260.4673,379.0049 259.9673,379.0049 Q259.3423,379.0049 258.811,379.2861 Q258.2798,379.5518 257.8735,380.1768 Q257.4829,380.7861 257.4829,381.6299 L257.4829,382.5361 Q257.4829,383.5518 258.2173,384.2236 Q258.9517,384.8955 260.2485,384.8955 Q261.0298,384.8955 261.5767,384.6924 Q261.8892,384.5674 262.2485,384.208 Q262.4673,383.9893 262.5767,383.9268 Q262.7017,383.8486 262.8579,383.8486 Q263.1392,383.8486 263.3579,384.0674 Q263.5767,384.2861 263.5767,384.5674 Q263.5767,384.8486 263.2798,385.1768 Q262.8579,385.6611 262.2017,385.9268 Q261.3267,386.3018 260.2642,386.3018 Q259.0142,386.3018 258.0142,385.7861 Q257.2173,385.3799 256.6392,384.5049 Q256.0767,383.6143 256.0767,382.5674 L256.0767,381.6143 Q256.0767,380.5205 256.5767,379.583 Q257.0923,378.6299 257.9985,378.1143 Q258.9048,377.5986 259.9048,377.5986 Q260.5142,377.5986 261.0454,377.7393 Q261.5767,377.8799 262.0454,378.1611 Z " fill="#2D3142" /><text fill="#2D3142" font-family="Arial" font-size="14" lengthAdjust="spacing" textLength="82.4893" x="279.6392" y="387.1812">PlantDisease</text><line style="stroke:#2D3142;stroke-width:0.5;" x1="150.5" x2="461.2676" y1="397.0986" y2="397.0986" /><text fill="#2D3142" font-family="Arial" font-size="14" lengthAdjust="spacing" textLength="57.2031" x="155.5" y="414.2305">+Id: Guid</text><text fill="#2D3142" font-family="Arial" font-size="14" lengthAdjust="spacing" textLength="89.1133" x="155.5" y="430.3291">+PlantId: Guid</text><text fill="#2D3142" font-family="Arial" font-size="14" lengthAdjust="spacing" textLength="107.7822" x="155.5" y="446.4277">+DiseaseId: Guid</text><text fill="#2D3142" font-family="Arial" font-size="14" lengthAdjust="spacing" textLength="122.541" x="155.5" y="462.5264">+ClassName: string</text><text fill="#2D3142" font-family="Arial" font-size="14" lengthAdjust="spacing" textLength="99.9961" x="155.5" y="478.625">+ClassIndex: int</text><text fill="#2D3142" font-family="Arial" font-size="14" lengthAdjust="spacing" textLength="91.4375" x="155.5" y="494.7236">+IsActive: bool</text><text fill="#2D3142" font-family="Arial" font-size="14" lengthAdjust="spacing" textLength="79.7754" x="155.5" y="510.8223">+Plant: Plant</text><text fill="#2D3142" font-family="Arial" font-size="14" lengthAdjust="spacing" textLength="117.1133" x="155.5" y="526.9209">+Disease: Disease</text><text fill="#2D3142" font-family="Arial" font-size="14" lengthAdjust="spacing" textLength="229.1816" x="155.5" y="543.0195">+Predictions: ICollection&lt;Prediction&gt;</text><text fill="#2D3142" font-family="Arial" font-size="14" lengthAdjust="spacing" textLength="300.7676" x="155.5" y="559.1182">+PredictionDetails: ICollection&lt;PredictionDetail&gt;</text></g><!--class Prediction--><g class="entity" data-entity="Prediction" data-source-line="67" data-uid="ent0005" id="class_entities-entity_Prediction"><rect fill="#FFFFFF" height="231.1836" rx="3" ry="3" style="stroke:#2D3142;stroke-width:0.5;" width="312.7676" x="270.5" y="626.0986" /><ellipse cx="391.7563" cy="641.0986" fill="#ADD1B2" rx="10" ry="10" style="stroke:#181818;stroke-width:1;" /><path d="M393.1626,637.1611 Q393.2876,636.9893 393.4438,636.9111 Q393.6001,636.8174 393.772,636.8174 Q394.0845,636.8174 394.272,637.0361 Q394.4751,637.2393 394.4751,637.7393 L394.4751,638.9268 Q394.4751,639.4424 394.272,639.6611 Q394.0845,639.8643 393.772,639.8643 Q393.4907,639.8643 393.3188,639.708 Q393.147,639.5518 393.0688,639.1299 Q393.022,638.833 392.8813,638.6768 Q392.6001,638.3643 392.0845,638.1924 Q391.5845,638.0049 391.0845,638.0049 Q390.4595,638.0049 389.9282,638.2861 Q389.397,638.5518 388.9907,639.1768 Q388.6001,639.7861 388.6001,640.6299 L388.6001,641.5361 Q388.6001,642.5518 389.3345,643.2236 Q390.0688,643.8955 391.3657,643.8955 Q392.147,643.8955 392.6938,643.6924 Q393.0063,643.5674 393.3657,643.208 Q393.5845,642.9893 393.6938,642.9268 Q393.8188,642.8486 393.9751,642.8486 Q394.2563,642.8486 394.4751,643.0674 Q394.6938,643.2861 394.6938,643.5674 Q394.6938,643.8486 394.397,644.1768 Q393.9751,644.6611 393.3188,644.9268 Q392.4438,645.3018 391.3813,645.3018 Q390.1313,645.3018 389.1313,644.7861 Q388.3345,644.3799 387.7563,643.5049 Q387.1938,642.6143 387.1938,641.5674 L387.1938,640.6143 Q387.1938,639.5205 387.6938,638.583 Q388.2095,637.6299 389.1157,637.1143 Q390.022,636.5986 391.022,636.5986 Q391.6313,636.5986 392.1626,636.7393 Q392.6938,636.8799 393.1626,637.1611 Z " fill="#2D3142" /><text fill="#2D3142" font-family="Arial" font-size="14" lengthAdjust="spacing" textLength="62.2549" x="410.7563" y="646.1812">Prediction</text><line style="stroke:#2D3142;stroke-width:0.5;" x1="271.5" x2="582.2676" y1="656.0986" y2="656.0986" /><text fill="#2D3142" font-family="Arial" font-size="14" lengthAdjust="spacing" textLength="57.2031" x="276.5" y="673.2305">+Id: Guid</text><text fill="#2D3142" font-family="Arial" font-size="14" lengthAdjust="spacing" textLength="94.5479" x="276.5" y="689.3291">+UserId: Guid?</text><text fill="#2D3142" font-family="Arial" font-size="14" lengthAdjust="spacing" textLength="117.8994" x="276.5" y="705.4277">+ImagePath: string</text><text fill="#2D3142" font-family="Arial" font-size="14" lengthAdjust="spacing" textLength="146.6924" x="276.5" y="721.5264">+ImagePublicId: string?</text><text fill="#2D3142" font-family="Arial" font-size="14" lengthAdjust="spacing" textLength="198.8369" x="276.5" y="737.625">+PredictedPlantDiseaseId: Guid</text><text fill="#2D3142" font-family="Arial" font-size="14" lengthAdjust="spacing" textLength="128.8232" x="276.5" y="753.7236">+Confidence: double</text><text fill="#2D3142" font-family="Arial" font-size="14" lengthAdjust="spacing" textLength="139.6719" x="276.5" y="769.8223">+CreatedAt: DateTime</text><text fill="#2D3142" font-family="Arial" font-size="14" lengthAdjust="spacing" textLength="186.3887" x="276.5" y="785.9209">+ResultSnapshotJson: string?</text><text fill="#2D3142" font-family="Arial" font-size="14" lengthAdjust="spacing" textLength="82.8584" x="276.5" y="802.0195">+User: User?</text><text fill="#2D3142" font-family="Arial" font-size="14" lengthAdjust="spacing" textLength="240.0781" x="276.5" y="818.1182">+PredictedPlantDisease: PlantDisease</text><text fill="#2D3142" font-family="Arial" font-size="14" lengthAdjust="spacing" textLength="300.7676" x="276.5" y="834.2168">+PredictionDetails: ICollection&lt;PredictionDetail&gt;</text><text fill="#2D3142" font-family="Arial" font-size="14" lengthAdjust="spacing" textLength="244.7471" x="276.5" y="850.3154">+Images: ICollection&lt;PredictionImage&gt;</text></g><!--class PredictionDetail--><g class="entity" data-entity="PredictionDetail" data-source-line="81" data-uid="ent0006" id="class_entities-entity_PredictionDetail"><rect fill="#FFFFFF" height="150.6904" rx="3" ry="3" style="stroke:#2D3142;stroke-width:0.5;" width="192.9336" x="118.5" y="941.0986" /><ellipse cx="161.9429" cy="956.0986" fill="#ADD1B2" rx="10" ry="10" style="stroke:#181818;stroke-width:1;" /><path d="M163.3491,952.1611 Q163.4741,951.9893 163.6304,951.9111 Q163.7866,951.8174 163.9585,951.8174 Q164.271,951.8174 164.4585,952.0361 Q164.6616,952.2393 164.6616,952.7393 L164.6616,953.9268 Q164.6616,954.4424 164.4585,954.6611 Q164.271,954.8643 163.9585,954.8643 Q163.6772,954.8643 163.5054,954.708 Q163.3335,954.5518 163.2554,954.1299 Q163.2085,953.833 163.0679,953.6768 Q162.7866,953.3643 162.271,953.1924 Q161.771,953.0049 161.271,953.0049 Q160.646,953.0049 160.1147,953.2861 Q159.5835,953.5518 159.1772,954.1768 Q158.7866,954.7861 158.7866,955.6299 L158.7866,956.5361 Q158.7866,957.5518 159.521,958.2236 Q160.2554,958.8955 161.5522,958.8955 Q162.3335,958.8955 162.8804,958.6924 Q163.1929,958.5674 163.5522,958.208 Q163.771,957.9893 163.8804,957.9268 Q164.0054,957.8486 164.1616,957.8486 Q164.4429,957.8486 164.6616,958.0674 Q164.8804,958.2861 164.8804,958.5674 Q164.8804,958.8486 164.5835,959.1768 Q164.1616,959.6611 163.5054,959.9268 Q162.6304,960.3018 161.5679,960.3018 Q160.3179,960.3018 159.3179,959.7861 Q158.521,959.3799 157.9429,958.5049 Q157.3804,957.6143 157.3804,956.5674 L157.3804,955.6143 Q157.3804,954.5205 157.8804,953.583 Q158.396,952.6299 159.3022,952.1143 Q160.2085,951.5986 161.2085,951.5986 Q161.8179,951.5986 162.3491,951.7393 Q162.8804,951.8799 163.3491,952.1611 Z " fill="#2D3142" /><text fill="#2D3142" font-family="Arial" font-size="14" lengthAdjust="spacing" textLength="98.0479" x="180.9429" y="961.1812">PredictionDetail</text><line style="stroke:#2D3142;stroke-width:0.5;" x1="119.5" x2="310.4336" y1="971.0986" y2="971.0986" /><text fill="#2D3142" font-family="Arial" font-size="14" lengthAdjust="spacing" textLength="57.2031" x="124.5" y="988.2305">+Id: Guid</text><text fill="#2D3142" font-family="Arial" font-size="14" lengthAdjust="spacing" textLength="119.458" x="124.5" y="1004.3291">+PredictionId: Guid</text><text fill="#2D3142" font-family="Arial" font-size="14" lengthAdjust="spacing" textLength="139.6924" x="124.5" y="1020.4277">+PlantDiseaseId: Guid</text><text fill="#2D3142" font-family="Arial" font-size="14" lengthAdjust="spacing" textLength="123.3613" x="124.5" y="1036.5264">+Probability: double</text><text fill="#2D3142" font-family="Arial" font-size="14" lengthAdjust="spacing" textLength="63.4238" x="124.5" y="1052.625">+Rank: int</text><text fill="#2D3142" font-family="Arial" font-size="14" lengthAdjust="spacing" textLength="140.4648" x="124.5" y="1068.7236">+Prediction: Prediction</text><text fill="#2D3142" font-family="Arial" font-size="14" lengthAdjust="spacing" textLength="180.9336" x="124.5" y="1084.8223">+PlantDisease: PlantDisease</text></g><!--class PredictionImage--><g class="entity" data-entity="PredictionImage" data-source-line="90" data-uid="ent0007" id="class_entities-entity_PredictionImage"><rect fill="#FFFFFF" height="198.9863" rx="3" ry="3" style="stroke:#2D3142;stroke-width:0.5;" width="161.8027" x="347" y="917.0986" /><ellipse cx="374.787" cy="932.0986" fill="#ADD1B2" rx="10" ry="10" style="stroke:#181818;stroke-width:1;" /><path d="M376.1932,928.1611 Q376.3182,927.9893 376.4745,927.9111 Q376.6307,927.8174 376.8026,927.8174 Q377.1151,927.8174 377.3026,928.0361 Q377.5057,928.2393 377.5057,928.7393 L377.5057,929.9268 Q377.5057,930.4424 377.3026,930.6611 Q377.1151,930.8643 376.8026,930.8643 Q376.5213,930.8643 376.3495,930.708 Q376.1776,930.5518 376.0995,930.1299 Q376.0526,929.833 375.912,929.6768 Q375.6307,929.3643 375.1151,929.1924 Q374.6151,929.0049 374.1151,929.0049 Q373.4901,929.0049 372.9588,929.2861 Q372.4276,929.5518 372.0213,930.1768 Q371.6307,930.7861 371.6307,931.6299 L371.6307,932.5361 Q371.6307,933.5518 372.3651,934.2236 Q373.0995,934.8955 374.3963,934.8955 Q375.1776,934.8955 375.7245,934.6924 Q376.037,934.5674 376.3963,934.208 Q376.6151,933.9893 376.7245,933.9268 Q376.8495,933.8486 377.0057,933.8486 Q377.287,933.8486 377.5057,934.0674 Q377.7245,934.2861 377.7245,934.5674 Q377.7245,934.8486 377.4276,935.1768 Q377.0057,935.6611 376.3495,935.9268 Q375.4745,936.3018 374.412,936.3018 Q373.162,936.3018 372.162,935.7861 Q371.3651,935.3799 370.787,934.5049 Q370.2245,933.6143 370.2245,932.5674 L370.2245,931.6143 Q370.2245,930.5205 370.7245,929.583 Q371.2401,928.6299 372.1463,928.1143 Q373.0526,927.5986 374.0526,927.5986 Q374.662,927.5986 375.1932,927.7393 Q375.7245,927.8799 376.1932,928.1611 Z " fill="#2D3142" /><text fill="#2D3142" font-family="Arial" font-size="14" lengthAdjust="spacing" textLength="101.165" x="390.8507" y="937.1812">PredictionImage</text><line style="stroke:#2D3142;stroke-width:0.5;" x1="348" x2="507.8027" y1="947.0986" y2="947.0986" /><text fill="#2D3142" font-family="Arial" font-size="14" lengthAdjust="spacing" textLength="57.2031" x="353" y="964.2305">+Id: Guid</text><text fill="#2D3142" font-family="Arial" font-size="14" lengthAdjust="spacing" textLength="119.458" x="353" y="980.3291">+PredictionId: Guid</text><text fill="#2D3142" font-family="Arial" font-size="14" lengthAdjust="spacing" textLength="80.5479" x="353" y="996.4277">+Position: int</text><text fill="#2D3142" font-family="Arial" font-size="14" lengthAdjust="spacing" textLength="125.6855" x="353" y="1012.5264">+ImagePath: string?</text><text fill="#2D3142" font-family="Arial" font-size="14" lengthAdjust="spacing" textLength="146.6924" x="353" y="1028.625">+ImagePublicId: string?</text><text fill="#2D3142" font-family="Arial" font-size="14" lengthAdjust="spacing" textLength="128.8232" x="353" y="1044.7236">+Confidence: double</text><text fill="#2D3142" font-family="Arial" font-size="14" lengthAdjust="spacing" textLength="149.8027" x="353" y="1060.8223">+UploadedAt: DateTime</text><text fill="#2D3142" font-family="Arial" font-size="14" lengthAdjust="spacing" textLength="136.5479" x="353" y="1076.9209">+ExpiresAt: DateTime</text><text fill="#2D3142" font-family="Arial" font-size="14" lengthAdjust="spacing" textLength="145.9063" x="353" y="1093.0195">+DeletedAt: DateTime?</text><text fill="#2D3142" font-family="Arial" font-size="14" lengthAdjust="spacing" textLength="140.4648" x="353" y="1109.1182">+Prediction: Prediction</text></g><!--class User--><g class="entity" data-entity="User" data-source-line="102" data-uid="ent0008" id="class_entities-entity_User"><rect fill="#FFFFFF" height="182.8877" rx="3" ry="3" style="stroke:#2D3142;stroke-width:0.5;" width="241.1816" x="586.5" y="375.0986" /><ellipse cx="688.3115" cy="390.0986" fill="#ADD1B2" rx="10" ry="10" style="stroke:#181818;stroke-width:1;" /><path d="M689.7178,386.1611 Q689.8428,385.9893 689.999,385.9111 Q690.1553,385.8174 690.3271,385.8174 Q690.6396,385.8174 690.8271,386.0361 Q691.0303,386.2393 691.0303,386.7393 L691.0303,387.9268 Q691.0303,388.4424 690.8271,388.6611 Q690.6396,388.8643 690.3271,388.8643 Q690.0459,388.8643 689.874,388.708 Q689.7021,388.5518 689.624,388.1299 Q689.5771,387.833 689.4365,387.6768 Q689.1553,387.3643 688.6396,387.1924 Q688.1396,387.0049 687.6396,387.0049 Q687.0146,387.0049 686.4834,387.2861 Q685.9521,387.5518 685.5459,388.1768 Q685.1553,388.7861 685.1553,389.6299 L685.1553,390.5361 Q685.1553,391.5518 685.8896,392.2236 Q686.624,392.8955 687.9209,392.8955 Q688.7021,392.8955 689.249,392.6924 Q689.5615,392.5674 689.9209,392.208 Q690.1396,391.9893 690.249,391.9268 Q690.374,391.8486 690.5303,391.8486 Q690.8115,391.8486 691.0303,392.0674 Q691.249,392.2861 691.249,392.5674 Q691.249,392.8486 690.9521,393.1768 Q690.5303,393.6611 689.874,393.9268 Q688.999,394.3018 687.9365,394.3018 Q686.6865,394.3018 685.6865,393.7861 Q684.8896,393.3799 684.3115,392.5049 Q683.749,391.6143 683.749,390.5674 L683.749,389.6143 Q683.749,388.5205 684.249,387.583 Q684.7646,386.6299 685.6709,386.1143 Q686.5771,385.5986 687.5771,385.5986 Q688.1865,385.5986 688.7178,385.7393 Q689.249,385.8799 689.7178,386.1611 Z " fill="#2D3142" /><text fill="#2D3142" font-family="Arial" font-size="14" lengthAdjust="spacing" textLength="29.5586" x="707.3115" y="395.1812">User</text><line style="stroke:#2D3142;stroke-width:0.5;" x1="587.5" x2="826.6816" y1="405.0986" y2="405.0986" /><text fill="#2D3142" font-family="Arial" font-size="14" lengthAdjust="spacing" textLength="57.2031" x="592.5" y="422.2305">+Id: Guid</text><text fill="#2D3142" font-family="Arial" font-size="14" lengthAdjust="spacing" textLength="110.0928" x="592.5" y="438.3291">+FullName: string</text><text fill="#2D3142" font-family="Arial" font-size="14" lengthAdjust="spacing" textLength="85.1963" x="592.5" y="454.4277">+Email: string</text><text fill="#2D3142" font-family="Arial" font-size="14" lengthAdjust="spacing" textLength="152.127" x="592.5" y="470.5264">+PasswordHash: string?</text><text fill="#2D3142" font-family="Arial" font-size="14" lengthAdjust="spacing" textLength="180.127" x="592.5" y="486.625">+EmailVerifiedAt: DateTime?</text><text fill="#2D3142" font-family="Arial" font-size="14" lengthAdjust="spacing" textLength="78.9824" x="592.5" y="502.7236">+Role: string</text><text fill="#2D3142" font-family="Arial" font-size="14" lengthAdjust="spacing" textLength="139.6719" x="592.5" y="518.8223">+CreatedAt: DateTime</text><text fill="#2D3142" font-family="Arial" font-size="14" lengthAdjust="spacing" textLength="150.582" x="592.5" y="534.9209">+UpdatedAt: DateTime?</text><text fill="#2D3142" font-family="Arial" font-size="14" lengthAdjust="spacing" textLength="229.1816" x="592.5" y="551.0195">+Predictions: ICollection&lt;Prediction&gt;</text></g><!--class UserActionToken--><g class="entity" data-entity="UserActionToken" data-source-line="113" data-uid="ent0009" id="class_entities-entity_UserActionToken"><rect fill="#FFFFFF" height="166.7891" rx="3" ry="3" style="stroke:#2D3142;stroke-width:0.5;" width="177.3545" x="618.5" y="658.0986" /><ellipse cx="650.489" cy="673.0986" fill="#ADD1B2" rx="10" ry="10" style="stroke:#181818;stroke-width:1;" /><path d="M651.8953,669.1611 Q652.0203,668.9893 652.1765,668.9111 Q652.3328,668.8174 652.5046,668.8174 Q652.8171,668.8174 653.0046,669.0361 Q653.2078,669.2393 653.2078,669.7393 L653.2078,670.9268 Q653.2078,671.4424 653.0046,671.6611 Q652.8171,671.8643 652.5046,671.8643 Q652.2234,671.8643 652.0515,671.708 Q651.8796,671.5518 651.8015,671.1299 Q651.7546,670.833 651.614,670.6768 Q651.3328,670.3643 650.8171,670.1924 Q650.3171,670.0049 649.8171,670.0049 Q649.1921,670.0049 648.6609,670.2861 Q648.1296,670.5518 647.7234,671.1768 Q647.3328,671.7861 647.3328,672.6299 L647.3328,673.5361 Q647.3328,674.5518 648.0671,675.2236 Q648.8015,675.8955 650.0984,675.8955 Q650.8796,675.8955 651.4265,675.6924 Q651.739,675.5674 652.0984,675.208 Q652.3171,674.9893 652.4265,674.9268 Q652.5515,674.8486 652.7078,674.8486 Q652.989,674.8486 653.2078,675.0674 Q653.4265,675.2861 653.4265,675.5674 Q653.4265,675.8486 653.1296,676.1768 Q652.7078,676.6611 652.0515,676.9268 Q651.1765,677.3018 650.114,677.3018 Q648.864,677.3018 647.864,676.7861 Q647.0671,676.3799 646.489,675.5049 Q645.9265,674.6143 645.9265,673.5674 L645.9265,672.6143 Q645.9265,671.5205 646.4265,670.583 Q646.9421,669.6299 647.8484,669.1143 Q648.7546,668.5986 649.7546,668.5986 Q650.364,668.5986 650.8953,668.7393 Q651.4265,668.8799 651.8953,669.1611 Z " fill="#2D3142" /><text fill="#2D3142" font-family="Arial" font-size="14" lengthAdjust="spacing" textLength="107.3789" x="667.4866" y="678.1812">UserActionToken</text><line style="stroke:#2D3142;stroke-width:0.5;" x1="619.5" x2="794.8545" y1="688.0986" y2="688.0986" /><text fill="#2D3142" font-family="Arial" font-size="14" lengthAdjust="spacing" textLength="57.2031" x="624.5" y="705.2305">+Id: Guid</text><text fill="#2D3142" font-family="Arial" font-size="14" lengthAdjust="spacing" textLength="86.7617" x="624.5" y="721.3291">+UserId: Guid</text><text fill="#2D3142" font-family="Arial" font-size="14" lengthAdjust="spacing" textLength="102.334" x="624.5" y="737.4277">+Purpose: string</text><text fill="#2D3142" font-family="Arial" font-size="14" lengthAdjust="spacing" textLength="121.7822" x="624.5" y="753.5264">+TokenHash: string</text><text fill="#2D3142" font-family="Arial" font-size="14" lengthAdjust="spacing" textLength="139.6719" x="624.5" y="769.625">+CreatedAt: DateTime</text><text fill="#2D3142" font-family="Arial" font-size="14" lengthAdjust="spacing" textLength="136.5479" x="624.5" y="785.7236">+ExpiresAt: DateTime</text><text fill="#2D3142" font-family="Arial" font-size="14" lengthAdjust="spacing" textLength="165.3545" x="624.5" y="801.8223">+ConsumedAt: DateTime?</text><text fill="#2D3142" font-family="Arial" font-size="14" lengthAdjust="spacing" textLength="75.0723" x="624.5" y="817.9209">+User: User</text></g><!--class UserIdentity--><g class="entity" data-entity="UserIdentity" data-source-line="123" data-uid="ent0010" id="class_entities-entity_UserIdentity"><rect fill="#FFFFFF" height="134.5918" rx="3" ry="3" style="stroke:#2D3142;stroke-width:0.5;" width="161.0166" x="830.5" y="674.0986" /><ellipse cx="869.8441" cy="689.0986" fill="#ADD1B2" rx="10" ry="10" style="stroke:#181818;stroke-width:1;" /><path d="M871.2504,685.1611 Q871.3754,684.9893 871.5316,684.9111 Q871.6879,684.8174 871.8598,684.8174 Q872.1723,684.8174 872.3598,685.0361 Q872.5629,685.2393 872.5629,685.7393 L872.5629,686.9268 Q872.5629,687.4424 872.3598,687.6611 Q872.1723,687.8643 871.8598,687.8643 Q871.5785,687.8643 871.4066,687.708 Q871.2348,687.5518 871.1566,687.1299 Q871.1098,686.833 870.9691,686.6768 Q870.6879,686.3643 870.1723,686.1924 Q869.6723,686.0049 869.1723,686.0049 Q868.5473,686.0049 868.016,686.2861 Q867.4848,686.5518 867.0785,687.1768 Q866.6879,687.7861 866.6879,688.6299 L866.6879,689.5361 Q866.6879,690.5518 867.4223,691.2236 Q868.1566,691.8955 869.4535,691.8955 Q870.2348,691.8955 870.7816,691.6924 Q871.0941,691.5674 871.4535,691.208 Q871.6723,690.9893 871.7816,690.9268 Q871.9066,690.8486 872.0629,690.8486 Q872.3441,690.8486 872.5629,691.0674 Q872.7816,691.2861 872.7816,691.5674 Q872.7816,691.8486 872.4848,692.1768 Q872.0629,692.6611 871.4066,692.9268 Q870.5316,693.3018 869.4691,693.3018 Q868.2191,693.3018 867.2191,692.7861 Q866.4223,692.3799 865.8441,691.5049 Q865.2816,690.6143 865.2816,689.5674 L865.2816,688.6143 Q865.2816,687.5205 865.7816,686.583 Q866.2973,685.6299 867.2035,685.1143 Q868.1098,684.5986 869.1098,684.5986 Q869.7191,684.5986 870.2504,684.7393 Q870.7816,684.8799 871.2504,685.1611 Z " fill="#2D3142" /><text fill="#2D3142" font-family="Arial" font-size="14" lengthAdjust="spacing" textLength="74.6963" x="888.4762" y="694.1812">UserIdentity</text><line style="stroke:#2D3142;stroke-width:0.5;" x1="831.5" x2="990.5166" y1="704.0986" y2="704.0986" /><text fill="#2D3142" font-family="Arial" font-size="14" lengthAdjust="spacing" textLength="57.2031" x="836.5" y="721.2305">+Id: Guid</text><text fill="#2D3142" font-family="Arial" font-size="14" lengthAdjust="spacing" textLength="86.7617" x="836.5" y="737.3291">+UserId: Guid</text><text fill="#2D3142" font-family="Arial" font-size="14" lengthAdjust="spacing" textLength="102.3203" x="836.5" y="753.4277">+Provider: string</text><text fill="#2D3142" font-family="Arial" font-size="14" lengthAdjust="spacing" textLength="149.0166" x="836.5" y="769.5264">+ProviderSubject: string</text><text fill="#2D3142" font-family="Arial" font-size="14" lengthAdjust="spacing" textLength="139.6719" x="836.5" y="785.625">+CreatedAt: DateTime</text><text fill="#2D3142" font-family="Arial" font-size="14" lengthAdjust="spacing" textLength="75.0723" x="836.5" y="801.7236">+User: User</text></g><g class="entity" data-entity="GMN20" data-source-line="141" data-uid="ent0021" id="class_entities-entity_GMN20"><path d="M544.5,990.5986 L544.5,1042.8945 A3,3 0 0 0 547.5,1045.8945 L1034.1318,1045.8945 A3,3 0 0 0 1037.1318,1042.8945 L1037.1318,997.5986 L1027.1318,987.5986 L757.5,987.5986 L579.79,857.1886 L749.5,987.5986 L547.5,987.5986 A3,3 0 0 0 544.5,990.5986" fill="#ECECEC" style="stroke:#BFC0C0;stroke-width:0.5;" /><path d="M1027.1318,987.5986 L1027.1318,996.0986 A1.5,1.5 0 0 0 1028.6318,997.5986 L1037.1318,997.5986 L1027.1318,987.5986" fill="#ECECEC" style="stroke:#BFC0C0;stroke-width:0.5;" /><text fill="#2D3142" font-family="Arial" font-size="14" lengthAdjust="spacing" textLength="292.6191" x="550.5" y="1005.7305">Public auto-properties / navigation theo source.</text><text fill="#2D3142" font-family="Arial" font-size="14" lengthAdjust="spacing" textLength="386.7773" x="550.5" y="1021.8291">ResultSnapshotJson là property; cột SQL tên result_snapshot.</text><text fill="#2D3142" font-family="Arial" font-size="14" lengthAdjust="spacing" textLength="471.6318" x="550.5" y="1037.9277">Không có Status hoặc model version; không suy ra composition từ cascade.</text></g><!--link User to Prediction--><g class="link" data-entity-1="User" data-entity-2="Prediction" data-source-line="131" data-uid="lnk11" id="class_entities-link_User_Prediction"><path codeLine="131" d="M614.15,558.1286 C591.87,579.8586 567.77,603.3386 544.53,626.0086" fill="none" id="class_entities-User-Prediction" style="stroke:#4F5D75;stroke-width:1;" /><text fill="#2D3142" font-family="Arial" font-size="14" lengthAdjust="spacing" textLength="23.3516" x="582.8414" y="579.2002">0..1</text><text fill="#2D3142" font-family="Arial" font-size="14" lengthAdjust="spacing" textLength="21.0137" x="530.3945" y="615.2203">0..*</text></g><!--link Plant to PlantDisease--><g class="link" data-entity-1="Plant" data-entity-2="PlantDisease" data-source-line="132" data-uid="lnk12" id="class_entities-link_Plant_PlantDisease"><path codeLine="132" d="M415.13,267.2486 C397.69,298.9486 378.03,334.6786 360.25,366.9986" fill="none" id="class_entities-Plant-PlantDisease" style="stroke:#4F5D75;stroke-width:1;" /><text fill="#2D3142" font-family="Arial" font-size="14" lengthAdjust="spacing" textLength="7.7861" x="404.0873" y="288.018">1</text><text fill="#2D3142" font-family="Arial" font-size="14" lengthAdjust="spacing" textLength="21.0137" x="342.4719" y="356.2327">0..*</text></g><!--link Disease to PlantDisease--><g class="link" data-entity-1="Disease" data-entity-2="PlantDisease" data-source-line="133" data-uid="lnk13" id="class_entities-link_Disease_PlantDisease"><path codeLine="133" d="M219.37,307.1486 C230.33,327.1886 241.49,347.5986 251.99,366.7986" fill="none" id="class_entities-Disease-PlantDisease" style="stroke:#4F5D75;stroke-width:1;" /><text fill="#2D3142" font-family="Arial" font-size="14" lengthAdjust="spacing" textLength="7.7861" x="216.5404" y="328.7757">1</text><text fill="#2D3142" font-family="Arial" font-size="14" lengthAdjust="spacing" textLength="21.0137" x="226.2616" y="356.018">0..*</text></g><!--link PlantDisease to Prediction--><g class="link" data-entity-1="PlantDisease" data-entity-2="Prediction" data-source-line="134" data-uid="lnk14" id="class_entities-link_PlantDisease_Prediction"><path codeLine="134" d="M349.68,566.1586 C358.28,585.5586 367.37,606.0586 376.18,625.9386" fill="none" id="class_entities-PlantDisease-Prediction" style="stroke:#4F5D75;stroke-width:1;" /><text fill="#2D3142" font-family="Arial" font-size="14" lengthAdjust="spacing" textLength="7.7861" x="345.6681" y="587.1935">1</text><text fill="#2D3142" font-family="Arial" font-size="14" lengthAdjust="spacing" textLength="21.0137" x="351.2596" y="615.1458">0..*</text></g><!--link Prediction to PredictionDetail--><g class="link" data-entity-1="Prediction" data-entity-2="PredictionDetail" data-source-line="135" data-uid="lnk15" id="class_entities-link_Prediction_PredictionDetail"><path codeLine="135" d="M338.01,857.1886 C316.03,885.4986 293.05,915.0986 272.97,940.9386" fill="none" id="class_entities-Prediction-PredictionDetail" style="stroke:#4F5D75;stroke-width:1;" /><text fill="#2D3142" font-family="Arial" font-size="14" lengthAdjust="spacing" textLength="7.7861" x="325.1175" y="878.2352">1</text><text fill="#2D3142" font-family="Arial" font-size="14" lengthAdjust="spacing" textLength="21.0137" x="256.4983" y="930.1161">0..*</text></g><!--link PlantDisease to PredictionDetail--><g class="link" data-entity-1="PlantDisease" data-entity-2="PredictionDetail" data-source-line="136" data-uid="lnk16" id="class_entities-link_PlantDisease_PredictionDetail"><path codeLine="136" d="M269.16,566.4186 C262.95,585.9786 257.17,606.5186 253,626.0986 C229.99,734.0786 220.88,861.9186 217.29,940.8886" fill="none" id="class_entities-PlantDisease-PredictionDetail" style="stroke:#4F5D75;stroke-width:1;" /><text fill="#2D3142" font-family="Arial" font-size="14" lengthAdjust="spacing" textLength="7.7861" x="259.3594" y="587.1355">1</text><text fill="#2D3142" font-family="Arial" font-size="14" lengthAdjust="spacing" textLength="21.0137" x="195.5113" y="930.0613">0..*</text></g><!--link Prediction to PredictionImage--><g class="link" data-entity-1="Prediction" data-entity-2="PredictionImage" data-source-line="137" data-uid="lnk17" id="class_entities-link_Prediction_PredictionImage"><path codeLine="137" d="M427.42,857.1886 C427.49,877.0286 427.57,897.5086 427.64,916.8886" fill="none" id="class_entities-Prediction-PredictionImage" style="stroke:#4F5D75;stroke-width:1;" /><text fill="#2D3142" font-family="Arial" font-size="14" lengthAdjust="spacing" textLength="7.7861" x="420.2553" y="878.2352">1</text><text fill="#2D3142" font-family="Arial" font-size="14" lengthAdjust="spacing" textLength="21.0137" x="405.8502" y="906.1146">0..*</text></g><!--link User to UserIdentity--><g class="link" data-entity-1="User" data-entity-2="UserIdentity" data-source-line="138" data-uid="lnk18" id="class_entities-link_User_UserIdentity"><path codeLine="138" d="M774.65,558.1286 C802.95,595.9986 835.24,639.2086 861.29,674.0786" fill="none" id="class_entities-User-UserIdentity" style="stroke:#4F5D75;stroke-width:1;" /><text fill="#2D3142" font-family="Arial" font-size="14" lengthAdjust="spacing" textLength="7.7861" x="772.786" y="579.2002">1</text><text fill="#2D3142" font-family="Arial" font-size="14" lengthAdjust="spacing" textLength="21.0137" x="833.7044" y="662.9782">0..*</text></g><!--link User to UserActionToken--><g class="link" data-entity-1="User" data-entity-2="UserActionToken" data-source-line="139" data-uid="lnk19" id="class_entities-link_User_UserActionToken"><path codeLine="139" d="M707,558.1286 C707,590.2486 707,626.2286 707,657.6886" fill="none" id="class_entities-User-UserActionToken" style="stroke:#4F5D75;stroke-width:1;" /><text fill="#2D3142" font-family="Arial" font-size="14" lengthAdjust="spacing" textLength="7.7861" x="699.7452" y="579.2002">1</text><text fill="#2D3142" font-family="Arial" font-size="14" lengthAdjust="spacing" textLength="21.0137" x="685.1164" y="647.222">0..*</text></g><!--SRC=[nLVDZYCr4BxdAKhX1femiyoo8ejs5IQxInPO3PEPlIB7hYGcRhkntPaD28c7uCADCnn1GcAFyoJ3ar1sEecxq_a13aoaIQVgy-Ugp-Mosysapfbb6OmOdqsiARIuCCfOU6VyC7nQReqGE6Q5yi-DzgzOXj3kMSbKknanbDyYd9qtEyiP7eWFpiuV992UjUQsT9wF7uf7wVHkoeIvbNe2OwOS9fuODJTMeuKF4pjNpBcUzrQE2ey3RdICwZI1P4ORFhM6qgcplZ8UFwcBWZnywYXZ1TeICHhpKvvEuV2R0ZN7IsQzv39dsc_HZkFVWK7fB5lICUxbNFh5OUerSY-VywmX_Uqu8smlKro5mqnBs5wcmY5dxeYeLi2zR1QvPtgYZk3RGFTdAYq_Xgx4DN1vwHN2HP02_lhXH_W8-YPZKWDgSabqu5W1lHTNWvD7fwsf50WP-gaHhXNrWxvqI9d3Toru3mQY2oyAAS9psB5TMYvB6oZyVYtHQx8vJ3rFWwkFZbkPUsbqnJvSPBatcQiOhoqodr5u5UkbnNa8kSPmORIGmNgzo2lH31ovF8tevRarSwJ0HyQeuFe2XUHiYshWUg6ESGEy296Ww54aVNgubXa6yqqkwkPbY8hsL2aNfJIWXL2qp3JFnwdhIUlxKjfe_K_23haCeembFrhp_odDdMKKlQcXHAQcMBvrMQ9ne0M-wOBKlZctoDvTVYNatTL3MLfK4261UZfhnvCghe-UIRKJlNGd0gmzs-dVEBIhtylroTY4chIVLgev6ekHaZo0g_iYSAD8LQveP_IOTZLr_Yu8GnIuPyslqD61EjGiTrFZNxfQxOHWk_7_xhcxbVN-Lxgj4ju9ZDucVPSC3KMs6LellGR9BgqPiP5KTAIbcbqnFLkNseQncppNMMjYR0SSCpawNkFaSiPLlTThvUd-OcckXPjS6IQsY-7PcrnQT7Lp7nKszeLcHLOvXwhPJlHveLHzOp-ZyqcbXaiQVqjdswVCLJEDoDTegG4s17HbLBLX_CC-TqnRIBFhHTkrcU61VHxP2viRLualZanpt1FqZhMX1NP5rf3CPkTMGXw8U0rO714l7Q9KEhQoBgLjM8o-9csEqJeD8rP4-xJJEMl3oKbyUhUTbixoV6nNtUb-MXqgUo2LmwUzSwPDXzw5MRQMu_XMsCEiSQ-MIbGWwUhiyYS5rzBqra2ddgVh59Xn9RVO2O0LtfpGLIX76wzzxuDcSpc9zo3mKpJWJ64vTbhRXm2ekv-X7Bju3Fp-xKyUXbz-3lxk5qrtsO3_ofK3EgtFfdU_qqiLl_iDXdIRBnnCpVsVVt1wDnAeO8xMqQIFORR4kM81bW4tMLusEF3tRty5kd1pwakT5ce18R-_0G00]--></g></svg>
