<svg xmlns="http://www.w3.org/2000/svg" xmlns:xlink="http://www.w3.org/1999/xlink" contentStyleType="text/css" data-diagram-type="SEQUENCE" height="1254px" preserveAspectRatio="none" style="width:1009px;height:1254px;background:#F5F5F5;" version="1.1" viewBox="0 0 1009 1254" width="1009px" zoomAndPan="magnify" role="img" aria-labelledby="sequence_prediction_errors-title sequence_prediction_errors-desc"><title id="sequence_prediction_errors-title">Sequence — UC-05 lỗi và cleanup hiện tại</title><desc id="sequence_prediction_errors-desc">AgriVision working tree sau AGRI-70, đối chiếu 2026-10-07; xem README và traceability.</desc><defs /><g><rect fill="#F5F5F5" height="1254" style="stroke:none;stroke-width:1;" width="1009" x="0" y="0" /><text fill="#2D3142" font-family="Arial" font-size="14" font-weight="bold" lengthAdjust="spacing" textLength="277.7441" x="366.792" y="28.1318">Sequence — UC-05 lỗi và cleanup hiện tại</text><rect fill="none" height="895.6494" rx="3" ry="3" style="stroke:#000000;stroke-width:1.5;" width="926.1216" x="76.2065" y="195.3945" /><rect fill="none" height="784.1563" rx="3" ry="3" style="stroke:#000000;stroke-width:1.5;" width="906.1216" x="86.2065" y="299.8877" /><rect fill="none" height="582.3672" rx="3" ry="3" style="stroke:#000000;stroke-width:1.5;" width="886.1216" x="96.2065" y="494.6768" /><rect fill="none" height="484.874" rx="3" ry="3" style="stroke:#000000;stroke-width:1.5;" width="866.1216" x="106.2065" y="585.1699" /><rect fill="none" height="277.085" rx="3" ry="3" style="stroke:#000000;stroke-width:1.5;" width="846.1216" x="116.2065" y="785.959" /><g><title>User</title><rect fill="#000000" fill-opacity="0.00000" height="1056.0439" width="8" x="83.7793" y="118.1973" /><line style="stroke:#181818;stroke-width:0.5;stroke-dasharray:5.0,5.0;" x1="87" x2="87" y1="118.1973" y2="1174.2412" /></g><g><title>Frontend / client API</title><rect fill="#000000" fill-opacity="0.00000" height="1056.0439" width="8" x="192.627" y="118.1973" /><line style="stroke:#181818;stroke-width:0.5;stroke-dasharray:5.0,5.0;" x1="196.2065" x2="196.2065" y1="118.1973" y2="1174.2412" /></g><g><title>PredictionService + middleware</title><rect fill="#000000" fill-opacity="0.00000" height="1056.0439" width="8" x="441.4199" y="118.1973" /><line style="stroke:#181818;stroke-width:0.5;stroke-dasharray:5.0,5.0;" x1="445.1807" x2="445.1807" y1="118.1973" y2="1174.2412" /></g><g><title>HTTP AI adapter</title><rect fill="#000000" fill-opacity="0.00000" height="1056.0439" width="8" x="650.5986" y="118.1973" /><line style="stroke:#181818;stroke-width:0.5;stroke-dasharray:5.0,5.0;" x1="654.0781" x2="654.0781" y1="118.1973" y2="1174.2412" /></g><g><title>IImageStorage</title><rect fill="#000000" fill-opacity="0.00000" height="1056.0439" width="8" x="803.1494" y="118.1973" /><line style="stroke:#181818;stroke-width:0.5;stroke-dasharray:5.0,5.0;" x1="806.2324" x2="806.2324" y1="118.1973" y2="1174.2412" /></g><g><title>PostgreSQL</title><rect fill="#000000" fill-opacity="0.00000" height="1056.0439" width="8" x="907.1973" y="118.1973" /><line style="stroke:#181818;stroke-width:0.5;stroke-dasharray:5.0,5.0;" x1="911.0664" x2="911.0664" y1="118.1973" y2="1174.2412" /></g><g class="participant participant-head" data-participant="User"><text fill="#2D3142" font-family="Arial" font-size="14" lengthAdjust="spacing" textLength="29.5586" x="70" y="115.2305">User</text><ellipse cx="87.7793" cy="50.5986" fill="#E2E2F0" rx="8" ry="8" style="stroke:#181818;stroke-width:0.5;" /><path d="M87.7793,58.5986 L87.7793,85.5986 M74.7793,66.5986 L100.7793,66.5986 M87.7793,85.5986 L74.7793,100.5986 M87.7793,85.5986 L100.7793,100.5986" fill="none" style="stroke:#181818;stroke-width:0.5;" /></g><g class="participant participant-tail" data-participant="User"><text fill="#2D3142" font-family="Arial" font-size="14" lengthAdjust="spacing" textLength="29.5586" x="70" y="1186.373">User</text><ellipse cx="87.7793" cy="1197.8398" fill="#E2E2F0" rx="8" ry="8" style="stroke:#181818;stroke-width:0.5;" /><path d="M87.7793,1205.8398 L87.7793,1232.8398 M74.7793,1213.8398 L100.7793,1213.8398 M87.7793,1232.8398 L74.7793,1247.8398 M87.7793,1232.8398 L100.7793,1247.8398" fill="none" style="stroke:#181818;stroke-width:0.5;" /></g><g class="participant participant-head" data-participant="Web"><rect fill="#FFFFFF" height="30.0986" rx="3" ry="3" style="stroke:#2D3142;stroke-width:0.5;" width="140.8408" x="126.2065" y="87.0986" /><text fill="#2D3142" font-family="Arial" font-size="14" lengthAdjust="spacing" textLength="126.8408" x="133.2065" y="107.2305">Frontend / client API</text></g><g class="participant participant-tail" data-participant="Web"><rect fill="#FFFFFF" height="30.0986" rx="3" ry="3" style="stroke:#2D3142;stroke-width:0.5;" width="140.8408" x="126.2065" y="1173.2412" /><text fill="#2D3142" font-family="Arial" font-size="14" lengthAdjust="spacing" textLength="126.8408" x="133.2065" y="1193.373">Frontend / client API</text></g><g class="participant participant-head" data-participant="API"><rect fill="#FFFFFF" height="30.0986" rx="3" ry="3" style="stroke:#2D3142;stroke-width:0.5;" width="210.4785" x="340.1807" y="87.0986" /><text fill="#2D3142" font-family="Arial" font-size="14" lengthAdjust="spacing" textLength="196.4785" x="347.1807" y="107.2305">PredictionService + middleware</text></g><g class="participant participant-tail" data-participant="API"><rect fill="#FFFFFF" height="30.0986" rx="3" ry="3" style="stroke:#2D3142;stroke-width:0.5;" width="210.4785" x="340.1807" y="1173.2412" /><text fill="#2D3142" font-family="Arial" font-size="14" lengthAdjust="spacing" textLength="196.4785" x="347.1807" y="1193.373">PredictionService + middleware</text></g><g class="participant participant-head" data-participant="AI"><rect fill="#FFFFFF" height="30.0986" rx="3" ry="3" style="stroke:#2D3142;stroke-width:0.5;" width="119.041" x="595.0781" y="87.0986" /><text fill="#2D3142" font-family="Arial" font-size="14" lengthAdjust="spacing" textLength="105.041" x="602.0781" y="107.2305">HTTP AI adapter</text></g><g class="participant participant-tail" data-participant="AI"><rect fill="#FFFFFF" height="30.0986" rx="3" ry="3" style="stroke:#2D3142;stroke-width:0.5;" width="119.041" x="595.0781" y="1173.2412" /><text fill="#2D3142" font-family="Arial" font-size="14" lengthAdjust="spacing" textLength="105.041" x="602.0781" y="1193.373">HTTP AI adapter</text></g><g class="participant participant-head" data-participant="Storage"><rect fill="#FFFFFF" height="30.0986" rx="3" ry="3" style="stroke:#2D3142;stroke-width:0.5;" width="105.834" x="754.2324" y="87.0986" /><text fill="#2D3142" font-family="Arial" font-size="14" lengthAdjust="spacing" textLength="91.834" x="761.2324" y="107.2305">IImageStorage</text></g><g class="participant participant-tail" data-participant="Storage"><rect fill="#FFFFFF" height="30.0986" rx="3" ry="3" style="stroke:#2D3142;stroke-width:0.5;" width="105.834" x="754.2324" y="1173.2412" /><text fill="#2D3142" font-family="Arial" font-size="14" lengthAdjust="spacing" textLength="91.834" x="761.2324" y="1193.373">IImageStorage</text></g><g class="participant participant-head" data-participant="DB"><text fill="#2D3142" font-family="Arial" font-size="14" lengthAdjust="spacing" textLength="76.2617" x="870.0664" y="115.2305">PostgreSQL</text><path d="M893.1973,66.0986 C893.1973,56.0986 911.1973,56.0986 911.1973,56.0986 C911.1973,56.0986 929.1973,56.0986 929.1973,66.0986 L929.1973,92.0986 C929.1973,102.0986 911.1973,102.0986 911.1973,102.0986 C911.1973,102.0986 893.1973,102.0986 893.1973,92.0986 L893.1973,66.0986" fill="#E2E2F0" style="stroke:#181818;stroke-width:1.5;" /><path d="M893.1973,66.0986 C893.1973,76.0986 911.1973,76.0986 911.1973,76.0986 C911.1973,76.0986 929.1973,76.0986 929.1973,66.0986" fill="none" style="stroke:#181818;stroke-width:1.5;" /></g><g class="participant participant-tail" data-participant="DB"><text fill="#2D3142" font-family="Arial" font-size="14" lengthAdjust="spacing" textLength="76.2617" x="870.0664" y="1186.373">PostgreSQL</text><path d="M893.1973,1199.3398 C893.1973,1189.3398 911.1973,1189.3398 911.1973,1189.3398 C911.1973,1189.3398 929.1973,1189.3398 929.1973,1199.3398 L929.1973,1225.3398 C929.1973,1235.3398 911.1973,1235.3398 911.1973,1235.3398 C911.1973,1235.3398 893.1973,1235.3398 893.1973,1225.3398 L893.1973,1199.3398" fill="#E2E2F0" style="stroke:#181818;stroke-width:1.5;" /><path d="M893.1973,1199.3398 C893.1973,1209.3398 911.1973,1209.3398 911.1973,1209.3398 C911.1973,1209.3398 929.1973,1209.3398 929.1973,1199.3398" fill="none" style="stroke:#181818;stroke-width:1.5;" /></g><g class="message" data-participant-1="User" data-participant-2="Web"><polygon fill="#4F5D75" points="184.627,146.2959,194.627,150.2959,184.627,154.2959,188.627,150.2959" style="stroke:#4F5D75;stroke-width:1;" /><line style="stroke:#4F5D75;stroke-width:1;" x1="87.7793" x2="190.627" y1="150.2959" y2="150.2959" /><text fill="#2D3142" font-family="Arial" font-size="14" lengthAdjust="spacing" textLength="84.8477" x="94.7793" y="145.3291">phân tích ảnh</text></g><g class="message" data-participant-1="Web" data-participant-2="API"><polygon fill="#4F5D75" points="433.4199,176.3945,443.4199,180.3945,433.4199,184.3945,437.4199,180.3945" style="stroke:#4F5D75;stroke-width:1;" /><line style="stroke:#4F5D75;stroke-width:1;" x1="196.627" x2="439.4199" y1="180.3945" y2="180.3945" /><text fill="#2D3142" font-family="Arial" font-size="14" lengthAdjust="spacing" textLength="136.1719" x="203.627" y="175.4277">POST /api/predictions</text></g><path d="M79.2065,195.3945 L137.5444,195.3945 L137.5444,203.4932 L127.5444,213.4932 L76.2065,213.4932 L76.2065,198.3945 A3,3 0 0 1 79.2065,195.3945" fill="#EEEEEE" style="stroke:#000000;stroke-width:1.5;" /><rect fill="none" height="895.6494" rx="3" ry="3" style="stroke:#000000;stroke-width:1.5;" width="926.1216" x="76.2065" y="195.3945" /><text fill="#2D3142" font-family="Arial" font-size="14" font-weight="bold" lengthAdjust="spacing" textLength="16.3379" x="91.2065" y="209.5264">alt</text><text fill="#2D3142" font-family="Arial" font-size="14" font-weight="bold" lengthAdjust="spacing" textLength="133" x="152.5444" y="210.5264">[File rỗng / đuôi sai]</text><g class="message" data-participant-1="API" data-participant-2="Web"><polygon fill="#4F5D75" points="207.627,232.6904,197.627,236.6904,207.627,240.6904,203.627,236.6904" style="stroke:#4F5D75;stroke-width:1;" /><line style="stroke:#4F5D75;stroke-width:1;stroke-dasharray:2.0,2.0;" x1="201.627" x2="444.4199" y1="236.6904" y2="236.6904" /><text fill="#2D3142" font-family="Arial" font-size="14" lengthAdjust="spacing" textLength="198.4541" x="213.627" y="231.7236">400; không AI / storage / ghi DB</text></g><line style="stroke:#000000;stroke-width:1;stroke-dasharray:2.0,2.0;" x1="76.2065" x2="1002.3281" y1="245.6904" y2="245.6904" /><text fill="#2D3142" font-family="Arial" font-size="14" font-weight="bold" lengthAdjust="spacing" textLength="79.9531" x="81.2065" y="258.8223">[File hợp lệ]</text><g class="message" data-participant-1="API" data-participant-2="AI"><polygon fill="#4F5D75" points="642.5986,280.8877,652.5986,284.8877,642.5986,288.8877,646.5986,284.8877" style="stroke:#4F5D75;stroke-width:1;" /><line style="stroke:#4F5D75;stroke-width:1;" x1="445.4199" x2="648.5986" y1="284.8877" y2="284.8877" /><text fill="#2D3142" font-family="Arial" font-size="14" lengthAdjust="spacing" textLength="185.1787" x="452.4199" y="279.9209">PredictAsync(bytes, filename)</text></g><path d="M89.2065,299.8877 L147.5444,299.8877 L147.5444,307.9863 L137.5444,317.9863 L86.2065,317.9863 L86.2065,302.8877 A3,3 0 0 1 89.2065,299.8877" fill="#EEEEEE" style="stroke:#000000;stroke-width:1.5;" /><rect fill="none" height="784.1563" rx="3" ry="3" style="stroke:#000000;stroke-width:1.5;" width="906.1216" x="86.2065" y="299.8877" /><text fill="#2D3142" font-family="Arial" font-size="14" font-weight="bold" lengthAdjust="spacing" textLength="16.3379" x="101.2065" y="314.0195">alt</text><text fill="#2D3142" font-family="Arial" font-size="14" font-weight="bold" lengthAdjust="spacing" textLength="245.0137" x="162.5444" y="315.0195">[HTTP / timeout / JSON / contract lỗi]</text><g class="message" data-participant-1="AI" data-participant-2="API"><polygon fill="#4F5D75" points="456.4199,337.1836,446.4199,341.1836,456.4199,345.1836,452.4199,341.1836" style="stroke:#4F5D75;stroke-width:1;" /><line style="stroke:#4F5D75;stroke-width:1;stroke-dasharray:2.0,2.0;" x1="450.4199" x2="653.5986" y1="341.1836" y2="341.1836" /><text fill="#2D3142" font-family="Arial" font-size="14" lengthAdjust="spacing" textLength="182.8887" x="462.4199" y="336.2168">AiServiceException 503 / 502</text></g><g class="message" data-participant-1="API" data-participant-2="Web"><polygon fill="#4F5D75" points="207.627,367.2822,197.627,371.2822,207.627,375.2822,203.627,371.2822" style="stroke:#4F5D75;stroke-width:1;" /><line style="stroke:#4F5D75;stroke-width:1;stroke-dasharray:2.0,2.0;" x1="201.627" x2="444.4199" y1="371.2822" y2="371.2822" /><text fill="#2D3142" font-family="Arial" font-size="14" lengthAdjust="spacing" textLength="149.5156" x="213.627" y="366.3154">503 / 502; chưa lưu ảnh</text></g><line style="stroke:#000000;stroke-width:1;stroke-dasharray:2.0,2.0;" x1="86.2065" x2="992.3281" y1="380.2822" y2="380.2822" /><text fill="#2D3142" font-family="Arial" font-size="14" font-weight="bold" lengthAdjust="spacing" textLength="69.8359" x="91.2065" y="393.4141">[AI hợp lệ]</text><g class="message" data-participant-1="AI" data-participant-2="API"><polygon fill="#4F5D75" points="456.4199,415.4795,446.4199,419.4795,456.4199,423.4795,452.4199,419.4795" style="stroke:#4F5D75;stroke-width:1;" /><line style="stroke:#4F5D75;stroke-width:1;stroke-dasharray:2.0,2.0;" x1="450.4199" x2="653.5986" y1="419.4795" y2="419.4795" /><text fill="#2D3142" font-family="Arial" font-size="14" lengthAdjust="spacing" textLength="114.3857" x="462.4199" y="414.5127">AiPredictionResult</text></g><g class="message" data-participant-1="API" data-participant-2="DB"><polygon fill="#4F5D75" points="899.1973,445.5781,909.1973,449.5781,899.1973,453.5781,903.1973,449.5781" style="stroke:#4F5D75;stroke-width:1;" /><line style="stroke:#4F5D75;stroke-width:1;" x1="445.4199" x2="905.1973" y1="449.5781" y2="449.5781" /><text fill="#2D3142" font-family="Arial" font-size="14" lengthAdjust="spacing" textLength="205.4336" x="452.4199" y="444.6113">tra ClassIndex của top-1 và top-k</text></g><g class="message" data-participant-1="DB" data-participant-2="API"><polygon fill="#4F5D75" points="456.4199,475.6768,446.4199,479.6768,456.4199,483.6768,452.4199,479.6768" style="stroke:#4F5D75;stroke-width:1;" /><line style="stroke:#4F5D75;stroke-width:1;stroke-dasharray:2.0,2.0;" x1="450.4199" x2="910.1973" y1="479.6768" y2="479.6768" /><text fill="#2D3142" font-family="Arial" font-size="14" lengthAdjust="spacing" textLength="113.6338" x="462.4199" y="474.71">mapping hoặc null</text></g><path d="M99.2065,494.6768 L157.5444,494.6768 L157.5444,502.7754 L147.5444,512.7754 L96.2065,512.7754 L96.2065,497.6768 A3,3 0 0 1 99.2065,494.6768" fill="#EEEEEE" style="stroke:#000000;stroke-width:1.5;" /><rect fill="none" height="582.3672" rx="3" ry="3" style="stroke:#000000;stroke-width:1.5;" width="886.1216" x="96.2065" y="494.6768" /><text fill="#2D3142" font-family="Arial" font-size="14" font-weight="bold" lengthAdjust="spacing" textLength="16.3379" x="111.2065" y="508.8086">alt</text><text fill="#2D3142" font-family="Arial" font-size="14" font-weight="bold" lengthAdjust="spacing" textLength="260.6201" x="172.5444" y="509.8086">[Thiếu mapping hoặc ClassName khác]</text><g class="message" data-participant-1="API" data-participant-2="Web"><polygon fill="#4F5D75" points="207.627,548.0713,197.627,552.0713,207.627,556.0713,203.627,552.0713" style="stroke:#4F5D75;stroke-width:1;" /><line style="stroke:#4F5D75;stroke-width:1;stroke-dasharray:2.0,2.0;" x1="201.627" x2="444.4199" y1="552.0713" y2="552.0713" /><text fill="#2D3142" font-family="Arial" font-size="14" lengthAdjust="spacing" textLength="194.5713" x="213.627" y="531.0059">400 InvalidOperationException;</text><text fill="#2D3142" font-family="Arial" font-size="14" lengthAdjust="spacing" textLength="190.7227" x="213.627" y="547.1045">không fallback / không lưu ảnh</text></g><line style="stroke:#000000;stroke-width:1;stroke-dasharray:2.0,2.0;" x1="96.2065" x2="982.3281" y1="561.0713" y2="561.0713" /><text fill="#2D3142" font-family="Arial" font-size="14" font-weight="bold" lengthAdjust="spacing" textLength="105.6016" x="101.2065" y="574.2031">[Mapping khớp]</text><path d="M109.2065,585.1699 L167.5444,585.1699 L167.5444,593.2686 L157.5444,603.2686 L106.2065,603.2686 L106.2065,588.1699 A3,3 0 0 1 109.2065,585.1699" fill="#EEEEEE" style="stroke:#000000;stroke-width:1.5;" /><rect fill="none" height="484.874" rx="3" ry="3" style="stroke:#000000;stroke-width:1.5;" width="866.1216" x="106.2065" y="585.1699" /><text fill="#2D3142" font-family="Arial" font-size="14" font-weight="bold" lengthAdjust="spacing" textLength="16.3379" x="121.2065" y="599.3018">alt</text><text fill="#2D3142" font-family="Arial" font-size="14" font-weight="bold" lengthAdjust="spacing" textLength="154.7793" x="182.5444" y="600.3018">[Khách (không UserId)]</text><g class="message" data-participant-1="API" data-participant-2="Web"><polygon fill="#4F5D75" points="207.627,622.4658,197.627,626.4658,207.627,630.4658,203.627,626.4658" style="stroke:#4F5D75;stroke-width:1;" /><line style="stroke:#4F5D75;stroke-width:1;stroke-dasharray:2.0,2.0;" x1="201.627" x2="444.4199" y1="626.4658" y2="626.4658" /><text fill="#2D3142" font-family="Arial" font-size="14" lengthAdjust="spacing" textLength="210.9365" x="213.627" y="621.499">200; không upload / không ghi DB</text></g><line style="stroke:#000000;stroke-width:1;stroke-dasharray:2.0,2.0;" x1="106.2065" x2="972.3281" y1="635.4658" y2="635.4658" /><text fill="#2D3142" font-family="Arial" font-size="14" font-weight="bold" lengthAdjust="spacing" textLength="75.4482" x="111.2065" y="648.5977">[Có UserId]</text><g class="message" data-participant-1="API" data-participant-2="Storage"><polygon fill="#4F5D75" points="795.1494,670.6631,805.1494,674.6631,795.1494,678.6631,799.1494,674.6631" style="stroke:#4F5D75;stroke-width:1;" /><line style="stroke:#4F5D75;stroke-width:1;" x1="445.4199" x2="801.1494" y1="674.6631" y2="674.6631" /><text fill="#2D3142" font-family="Arial" font-size="14" lengthAdjust="spacing" textLength="121.3994" x="452.4199" y="669.6963">UploadImageAsync</text></g><g class="message" data-participant-1="Storage" data-participant-2="API"><polygon fill="#4F5D75" points="456.4199,700.7617,446.4199,704.7617,456.4199,708.7617,452.4199,704.7617" style="stroke:#4F5D75;stroke-width:1;" /><line style="stroke:#4F5D75;stroke-width:1;stroke-dasharray:2.0,2.0;" x1="450.4199" x2="806.1494" y1="704.7617" y2="704.7617" /><text fill="#2D3142" font-family="Arial" font-size="14" lengthAdjust="spacing" textLength="193.7988" x="462.4199" y="699.7949">tham chiếu ảnh hoặc exception</text></g><path d="M368,720.7617 L368,740.7617 A3,3 0 0 0 371,743.7617 L879,743.7617 A3,3 0 0 0 882,740.7617 L882,727.7617 L872,717.7617 L371,717.7617 A3,3 0 0 0 368,720.7617" fill="#ECECEC" style="stroke:#BFC0C0;stroke-width:0.5;" /><path d="M872,717.7617 L872,726.2617 A1.5,1.5 0 0 0 873.5,727.7617 L882,727.7617 L872,717.7617" fill="#ECECEC" style="stroke:#BFC0C0;stroke-width:0.5;" /><text fill="#2D3142" font-family="Arial" font-size="14" lengthAdjust="spacing" textLength="365.8184" x="438.0337" y="735.8936">Storage exception dừng luồng; middleware trả lỗi theo loại.</text><g class="message" data-participant-1="API" data-participant-2="DB"><polygon fill="#4F5D75" points="899.1973,766.959,909.1973,770.959,899.1973,774.959,903.1973,770.959" style="stroke:#4F5D75;stroke-width:1;" /><line style="stroke:#4F5D75;stroke-width:1;" x1="445.4199" x2="905.1973" y1="770.959" y2="770.959" /><text fill="#2D3142" font-family="Arial" font-size="14" lengthAdjust="spacing" textLength="162.6543" x="452.4199" y="765.9922">AddAsync / SaveChanges</text></g><path d="M119.2065,785.959 L177.5444,785.959 L177.5444,794.0576 L167.5444,804.0576 L116.2065,804.0576 L116.2065,788.959 A3,3 0 0 1 119.2065,785.959" fill="#EEEEEE" style="stroke:#000000;stroke-width:1.5;" /><rect fill="none" height="277.085" rx="3" ry="3" style="stroke:#000000;stroke-width:1.5;" width="846.1216" x="116.2065" y="785.959" /><text fill="#2D3142" font-family="Arial" font-size="14" font-weight="bold" lengthAdjust="spacing" textLength="16.3379" x="131.2065" y="800.0908">alt</text><text fill="#2D3142" font-family="Arial" font-size="14" font-weight="bold" lengthAdjust="spacing" textLength="110.4346" x="192.5444" y="801.0908">[Ghi DB thất bại]</text><g class="message" data-participant-1="DB" data-participant-2="API"><polygon fill="#4F5D75" points="456.4199,823.2549,446.4199,827.2549,456.4199,831.2549,452.4199,827.2549" style="stroke:#4F5D75;stroke-width:1;" /><line style="stroke:#4F5D75;stroke-width:1;stroke-dasharray:2.0,2.0;" x1="450.4199" x2="910.1973" y1="827.2549" y2="827.2549" /><text fill="#2D3142" font-family="Arial" font-size="14" lengthAdjust="spacing" textLength="59.9307" x="462.4199" y="822.2881">exception</text></g><g class="message" data-participant-1="API" data-participant-2="Storage"><polygon fill="#4F5D75" points="795.1494,853.3535,805.1494,857.3535,795.1494,861.3535,799.1494,857.3535" style="stroke:#4F5D75;stroke-width:1;" /><line style="stroke:#4F5D75;stroke-width:1;" x1="445.4199" x2="801.1494" y1="857.3535" y2="857.3535" /><text fill="#2D3142" font-family="Arial" font-size="14" lengthAdjust="spacing" textLength="337.7295" x="452.4199" y="852.3867">DeleteImageAsync(PublicId, CancellationToken.None)</text></g><g class="message" data-participant-1="Storage" data-participant-2="API"><polygon fill="#4F5D75" points="456.4199,883.4521,446.4199,887.4521,456.4199,891.4521,452.4199,887.4521" style="stroke:#4F5D75;stroke-width:1;" /><line style="stroke:#4F5D75;stroke-width:1;stroke-dasharray:2.0,2.0;" x1="450.4199" x2="806.1494" y1="887.4521" y2="887.4521" /><text fill="#2D3142" font-family="Arial" font-size="14" lengthAdjust="spacing" textLength="136.9648" x="462.4199" y="882.4854">true / false / exception</text></g><g class="message" data-participant-1="API" data-participant-2="API"><line style="stroke:#4F5D75;stroke-width:1;" x1="445.4199" x2="487.4199" y1="933.6494" y2="933.6494" /><line style="stroke:#4F5D75;stroke-width:1;" x1="487.4199" x2="487.4199" y1="933.6494" y2="946.6494" /><line style="stroke:#4F5D75;stroke-width:1;" x1="446.4199" x2="487.4199" y1="946.6494" y2="946.6494" /><polygon fill="#4F5D75" points="456.4199,942.6494,446.4199,946.6494,456.4199,950.6494,452.4199,946.6494" style="stroke:#4F5D75;stroke-width:1;" /><text fill="#2D3142" font-family="Arial" font-size="14" lengthAdjust="spacing" textLength="172.7852" x="452.4199" y="912.584">log cleanup false/exception;</text><text fill="#2D3142" font-family="Arial" font-size="14" lengthAdjust="spacing" textLength="166.5234" x="452.4199" y="928.6826">rethrow lỗi persistence gốc</text></g><g class="message" data-participant-1="API" data-participant-2="Web"><polygon fill="#4F5D75" points="207.627,972.748,197.627,976.748,207.627,980.748,203.627,976.748" style="stroke:#4F5D75;stroke-width:1;" /><line style="stroke:#4F5D75;stroke-width:1;stroke-dasharray:2.0,2.0;" x1="201.627" x2="444.4199" y1="976.748" y2="976.748" /><text fill="#2D3142" font-family="Arial" font-size="14" lengthAdjust="spacing" textLength="224.793" x="213.627" y="971.7813">lỗi gốc; DB update error thường 500</text></g><line style="stroke:#000000;stroke-width:1;stroke-dasharray:2.0,2.0;" x1="116.2065" x2="962.3281" y1="985.748" y2="985.748" /><text fill="#2D3142" font-family="Arial" font-size="14" font-weight="bold" lengthAdjust="spacing" textLength="111.9795" x="121.2065" y="998.8799">[Ghi thành công]</text><g class="message" data-participant-1="DB" data-participant-2="API"><polygon fill="#4F5D75" points="456.4199,1020.9453,446.4199,1024.9453,456.4199,1028.9453,452.4199,1024.9453" style="stroke:#4F5D75;stroke-width:1;" /><line style="stroke:#4F5D75;stroke-width:1;stroke-dasharray:2.0,2.0;" x1="450.4199" x2="910.1973" y1="1024.9453" y2="1024.9453" /><text fill="#2D3142" font-family="Arial" font-size="14" lengthAdjust="spacing" textLength="37.3584" x="462.4199" y="1019.9785">saved</text></g><g class="message" data-participant-1="API" data-participant-2="Web"><polygon fill="#4F5D75" points="207.627,1051.0439,197.627,1055.0439,207.627,1059.0439,203.627,1055.0439" style="stroke:#4F5D75;stroke-width:1;" /><line style="stroke:#4F5D75;stroke-width:1;stroke-dasharray:2.0,2.0;" x1="201.627" x2="444.4199" y1="1055.0439" y2="1055.0439" /><text fill="#2D3142" font-family="Arial" font-size="14" lengthAdjust="spacing" textLength="23.3584" x="213.627" y="1050.0771">201</text></g><g class="message" data-participant-1="Web" data-participant-2="User"><polygon fill="#4F5D75" points="98.7793,1116.1426,88.7793,1120.1426,98.7793,1124.1426,94.7793,1120.1426" style="stroke:#4F5D75;stroke-width:1;" /><line style="stroke:#4F5D75;stroke-width:1;stroke-dasharray:2.0,2.0;" x1="92.7793" x2="195.627" y1="1120.1426" y2="1120.1426" /><text fill="#2D3142" font-family="Arial" font-size="14" lengthAdjust="spacing" textLength="71.5996" x="104.7793" y="1115.1758">kết quả / lỗi</text></g><path d="M5,1136.1426 L5,1156.1426 A3,3 0 0 0 8,1159.1426 L387,1159.1426 A3,3 0 0 0 390,1156.1426 L390,1143.1426 L380,1133.1426 L8,1133.1426 A3,3 0 0 0 5,1136.1426" fill="#ECECEC" style="stroke:#BFC0C0;stroke-width:0.5;" /><path d="M380,1133.1426 L380,1141.6426 A1.5,1.5 0 0 0 381.5,1143.1426 L390,1143.1426 L380,1133.1426" fill="#ECECEC" style="stroke:#BFC0C0;stroke-width:0.5;" /><text fill="#2D3142" font-family="Arial" font-size="14" lengthAdjust="spacing" textLength="364.1982" x="11" y="1151.2744">XHR timeout 60s, network và abort là luồng frontend riêng.</text><!--SRC=[ZLPDQoD74BthLnJEnKjiI_PQ6x31eDN6MUN3LbOsoI6NLaz9qwZLFTlT8wzpoctFIm8vXC1kbX1821Yo4B0EEIZuVqn-IQfxHgEHBEori6QOUlMgwbLrZUn8g8GPDeO-uwEXqQcAsbfg0nyCclvJioKYmW5BfJlMofsmCS96omWcDzOZUk9RXDtzzSOYmbxqS7T_hm9f6QCl2kF-e1bzL0rlOnRf2w66C63IOiKIikRQA3JmgFASIsPjopaZ-gd33jSgPDMeGCPQQHuRJUMiifveXuzNHK7kFwieRI8q1Q8_u0rU3M7nUOgAOvSP9xX8c7AtQ0VXxnwdQfHRqZ7kn4Iuo_kfI-ITVDQnDUNVpZF0xcGANRYVAOVToPHQvCo-HrPpu9ri1hbZQYZVWsy1lRjIOVZxq1MuDLnEE8dGAveF_ttt0votjnjDaDdqHm6JsMlI2PbA4uX5Ddsfm6NNRqIDUaeivnPDBLbC36mS6pfjg2Aeavz0UjJgTZQ0MVWA-ylGhi58q6ZG8K4p4HJzGnYBA99umGm67_9TzdbwTjQ5LWTOn1A79WSjOpgTCHjYZzAZYxSNjxM8ETQd9a5NMpSqsFloSsz-yhZcou3j8vyY740IptwXCcT_yXYowxSghlddPAPioDmzxPr1dIMYdfG5s1gJ3eu5IMb8DzeOTVZtLJfx9y0oKGkUssM0_KRZ44Rnx1tXg9OwpNIUR1s6iV098Is6d2xEfcyJtuoN1SkHTw4iyjWjUwduPl_IeTs20JaesfCFQk3J2LhLmOanwjJHtQUzqnFV5-gGeVxbBQw19zmkosk9eXiVl-2O-EAWsNX8Rit6diSkLL9Q3e77DrSCvCrLMeW6eGZYhfQm6cin0y_GqgwUHpWY5GX0UKBR7zEEYl05y6pw6mEda-tTC9d-RaGkX5sGZbcI-9qTw-pwRmugbP8WNf0pck3hVz9LH0WGtY_KapUSmBVx1HqrOL94fmaQvjCjrJdyHXMjf7Kk_JkD52cULDN8vVYY23qYKNvAV2YVs6S-RWoRXPiVnqxqm5jNCjchJ4wQICsYHR1YTA28r9xzLH0jU8xcPu6epeDxE2jXY09gRbwewMA_FWhXGYbpsN2kGF1Kz5O2FQ5pH7vR1Sz1ILY28SgcVtXfqcpwlHeULauyTPi258l7nQX1QhzhTge5XB5eHL78cOhliGcsOrgLQ0FCo_b9K88eikjV7VJ3llAsvJbPpl-sG4zG8ht3Iu4sksbV2jw9jg3DQ5TA6GRXJ8zGxPneXNd3rcbeKd-sm-kUhki3vr2fX-M-3VWwLWRDeADV3XU5H3IALbWNzlOmcxxY5RvoOd9eC1_w-jE4rY3rWtxt65BevYgR_apjQ3OQmJkCZjVFnRFNr6lkHskDU9PaZzR5sslivaGgcFDB-FPV_ZyiKyA7fNi08vei1yzJt_fwiP8MmqJW0_ZwwRDoYprgqA9Jw2wq6OKTmFhQq2gZksAaO31_1Han-rqDT_u7]--></g></svg>
