<svg xmlns="http://www.w3.org/2000/svg" xmlns:xlink="http://www.w3.org/1999/xlink" contentStyleType="text/css" data-diagram-type="SEQUENCE" height="1220px" preserveAspectRatio="none" style="width:1513px;height:1220px;background:#F5F5F5;" version="1.1" viewBox="0 0 1513 1220" width="1513px" zoomAndPan="magnify" role="img" aria-labelledby="sequence_catalog-title sequence_catalog-desc"><title id="sequence_catalog-title">Sequence — UC-08 / UC-09 danh mục (Plant; Disease tương tự)</title><desc id="sequence_catalog-desc">AgriVision working tree sau AGRI-70, đối chiếu 2026-10-07; xem README và traceability.</desc><defs /><g><rect fill="#F5F5F5" height="1220" style="stroke:none;stroke-width:1;" width="1513" x="0" y="0" /><text fill="#2D3142" font-family="Arial" font-size="14" font-weight="bold" lengthAdjust="spacing" textLength="423.8623" x="546.3481" y="28.1318">Sequence — UC-08 / UC-09 danh mục (Plant; Disease tương tự)</text><rect fill="none" height="610.5645" rx="3" ry="3" style="stroke:#000000;stroke-width:1.5;" width="1276.3433" x="231.2153" y="428.1836" /><rect fill="none" height="531.1699" rx="3" ry="3" style="stroke:#000000;stroke-width:1.5;" width="1256.3433" x="241.2153" y="500.5781" /><rect fill="none" height="359.4795" rx="3" ry="3" style="stroke:#000000;stroke-width:1.5;" width="1236.3433" x="251.2153" y="665.2686" /><rect fill="none" height="217.8877" rx="3" ry="3" style="stroke:#000000;stroke-width:1.5;" width="1216.3433" x="261.2153" y="799.8604" /><g><title>Khách / User / Admin</title><rect fill="#000000" fill-opacity="0.00000" height="1021.9453" width="8" x="78.1377" y="118.1973" /><line style="stroke:#181818;stroke-width:0.5;stroke-dasharray:5.0,5.0;" x1="82" x2="82" y1="118.1973" y2="1140.1426" /></g><g><title>Web catalogApi / API caller</title><rect fill="#000000" fill-opacity="0.00000" height="1021.9453" width="8" x="359.0322" y="118.1973" /><line style="stroke:#181818;stroke-width:0.5;stroke-dasharray:5.0,5.0;" x1="362.2153" x2="362.2153" y1="118.1973" y2="1140.1426" /></g><g><title>PlantsController + authorization</title><rect fill="#000000" fill-opacity="0.00000" height="1021.9453" width="8" x="641.376" y="118.1973" /><line style="stroke:#181818;stroke-width:0.5;stroke-dasharray:5.0,5.0;" x1="644.5161" x2="644.5161" y1="118.1973" y2="1140.1426" /></g><g><title>PlantService</title><rect fill="#000000" fill-opacity="0.00000" height="1021.9453" width="8" x="930.7197" y="118.1973" /><line style="stroke:#181818;stroke-width:0.5;stroke-dasharray:5.0,5.0;" x1="934.4233" x2="934.4233" y1="118.1973" y2="1140.1426" /></g><g><title>PlantRepository / PostgreSQL</title><rect fill="#000000" fill-opacity="0.00000" height="1021.9453" width="8" x="1367.1797" y="118.1973" /><line style="stroke:#181818;stroke-width:0.5;stroke-dasharray:5.0,5.0;" x1="1370.8008" x2="1370.8008" y1="118.1973" y2="1140.1426" /></g><g class="participant participant-head" data-participant="User"><text fill="#2D3142" font-family="Arial" font-size="14" lengthAdjust="spacing" textLength="132.2754" x="13" y="115.2305">Khách / User / Admin</text><ellipse cx="82.1377" cy="50.5986" fill="#E2E2F0" rx="8" ry="8" style="stroke:#181818;stroke-width:0.5;" /><path d="M82.1377,58.5986 L82.1377,85.5986 M69.1377,66.5986 L95.1377,66.5986 M82.1377,85.5986 L69.1377,100.5986 M82.1377,85.5986 L95.1377,100.5986" fill="none" style="stroke:#181818;stroke-width:0.5;" /></g><g class="participant participant-tail" data-participant="User"><text fill="#2D3142" font-family="Arial" font-size="14" lengthAdjust="spacing" textLength="132.2754" x="13" y="1152.2744">Khách / User / Admin</text><ellipse cx="82.1377" cy="1163.7412" fill="#E2E2F0" rx="8" ry="8" style="stroke:#181818;stroke-width:0.5;" /><path d="M82.1377,1171.7412 L82.1377,1198.7412 M69.1377,1179.7412 L95.1377,1179.7412 M82.1377,1198.7412 L69.1377,1213.7412 M82.1377,1198.7412 L95.1377,1213.7412" fill="none" style="stroke:#181818;stroke-width:0.5;" /></g><g class="participant participant-head" data-participant="Web"><rect fill="#FFFFFF" height="30.0986" rx="3" ry="3" style="stroke:#2D3142;stroke-width:0.5;" width="183.6338" x="271.2153" y="87.0986" /><text fill="#2D3142" font-family="Arial" font-size="14" lengthAdjust="spacing" textLength="169.6338" x="278.2153" y="107.2305">Web catalogApi / API caller</text></g><g class="participant participant-tail" data-participant="Web"><rect fill="#FFFFFF" height="30.0986" rx="3" ry="3" style="stroke:#2D3142;stroke-width:0.5;" width="183.6338" x="271.2153" y="1139.1426" /><text fill="#2D3142" font-family="Arial" font-size="14" lengthAdjust="spacing" textLength="169.6338" x="278.2153" y="1159.2744">Web catalogApi / API caller</text></g><g class="participant participant-head" data-participant="API"><rect fill="#FFFFFF" height="30.0986" rx="3" ry="3" style="stroke:#2D3142;stroke-width:0.5;" width="209.7197" x="540.5161" y="87.0986" /><text fill="#2D3142" font-family="Arial" font-size="14" lengthAdjust="spacing" textLength="195.7197" x="547.5161" y="107.2305">PlantsController + authorization</text></g><g class="participant participant-tail" data-participant="API"><rect fill="#FFFFFF" height="30.0986" rx="3" ry="3" style="stroke:#2D3142;stroke-width:0.5;" width="209.7197" x="540.5161" y="1139.1426" /><text fill="#2D3142" font-family="Arial" font-size="14" lengthAdjust="spacing" textLength="195.7197" x="547.5161" y="1159.2744">PlantsController + authorization</text></g><g class="participant participant-head" data-participant="Service"><rect fill="#FFFFFF" height="30.0986" rx="3" ry="3" style="stroke:#2D3142;stroke-width:0.5;" width="92.5928" x="888.4233" y="87.0986" /><text fill="#2D3142" font-family="Arial" font-size="14" lengthAdjust="spacing" textLength="78.5928" x="895.4233" y="107.2305">PlantService</text></g><g class="participant participant-tail" data-participant="Service"><rect fill="#FFFFFF" height="30.0986" rx="3" ry="3" style="stroke:#2D3142;stroke-width:0.5;" width="92.5928" x="888.4233" y="1139.1426" /><text fill="#2D3142" font-family="Arial" font-size="14" lengthAdjust="spacing" textLength="78.5928" x="895.4233" y="1159.2744">PlantService</text></g><g class="participant participant-head" data-participant="DB"><text fill="#2D3142" font-family="Arial" font-size="14" lengthAdjust="spacing" textLength="186.7578" x="1274.8008" y="115.2305">PlantRepository / PostgreSQL</text><path d="M1353.1797,66.0986 C1353.1797,56.0986 1371.1797,56.0986 1371.1797,56.0986 C1371.1797,56.0986 1389.1797,56.0986 1389.1797,66.0986 L1389.1797,92.0986 C1389.1797,102.0986 1371.1797,102.0986 1371.1797,102.0986 C1371.1797,102.0986 1353.1797,102.0986 1353.1797,92.0986 L1353.1797,66.0986" fill="#E2E2F0" style="stroke:#181818;stroke-width:1.5;" /><path d="M1353.1797,66.0986 C1353.1797,76.0986 1371.1797,76.0986 1371.1797,76.0986 C1371.1797,76.0986 1389.1797,76.0986 1389.1797,66.0986" fill="none" style="stroke:#181818;stroke-width:1.5;" /></g><g class="participant participant-tail" data-participant="DB"><text fill="#2D3142" font-family="Arial" font-size="14" lengthAdjust="spacing" textLength="186.7578" x="1274.8008" y="1152.2744">PlantRepository / PostgreSQL</text><path d="M1353.1797,1165.2412 C1353.1797,1155.2412 1371.1797,1155.2412 1371.1797,1155.2412 C1371.1797,1155.2412 1389.1797,1155.2412 1389.1797,1165.2412 L1389.1797,1191.2412 C1389.1797,1201.2412 1371.1797,1201.2412 1371.1797,1201.2412 C1371.1797,1201.2412 1353.1797,1201.2412 1353.1797,1191.2412 L1353.1797,1165.2412" fill="#E2E2F0" style="stroke:#181818;stroke-width:1.5;" /><path d="M1353.1797,1165.2412 C1353.1797,1175.2412 1371.1797,1175.2412 1371.1797,1175.2412 C1371.1797,1175.2412 1389.1797,1175.2412 1389.1797,1165.2412" fill="none" style="stroke:#181818;stroke-width:1.5;" /></g><path d="M5,136.1973 L5,156.1973 A3,3 0 0 0 8,159.1973 L438,159.1973 A3,3 0 0 0 441,156.1973 L441,143.1973 L431,133.1973 L8,133.1973 A3,3 0 0 0 5,136.1973" fill="#ECECEC" style="stroke:#BFC0C0;stroke-width:0.5;" /><path d="M431,133.1973 L431,141.6973 A1.5,1.5 0 0 0 432.5,143.1973 L441,143.1973 L431,133.1973" fill="#ECECEC" style="stroke:#BFC0C0;stroke-width:0.5;" /><text fill="#2D3142" font-family="Arial" font-size="14" lengthAdjust="spacing" textLength="384.46" x="26.6946" y="151.3291">Web: User đã đăng nhập/restore. Khách: chỉ gọi API trực tiếp.</text><g class="message" data-participant-1="User" data-participant-2="Web"><polygon fill="#4F5D75" points="351.0322,182.3945,361.0322,186.3945,351.0322,190.3945,355.0322,186.3945" style="stroke:#4F5D75;stroke-width:1;" /><line style="stroke:#4F5D75;stroke-width:1;" x1="82.1377" x2="357.0322" y1="186.3945" y2="186.3945" /><text fill="#2D3142" font-family="Arial" font-size="14" lengthAdjust="spacing" textLength="114.4063" x="89.1377" y="181.4277">yêu cầu danh mục</text></g><g class="message" data-participant-1="Web" data-participant-2="API"><polygon fill="#4F5D75" points="633.376,228.5918,643.376,232.5918,633.376,236.5918,637.376,232.5918" style="stroke:#4F5D75;stroke-width:1;" /><line style="stroke:#4F5D75;stroke-width:1;" x1="363.0322" x2="639.376" y1="232.5918" y2="232.5918" /><text fill="#2D3142" font-family="Arial" font-size="14" lengthAdjust="spacing" textLength="234.6367" x="370.0322" y="211.5264">GET /api/plants?includeInactive=false</text><text fill="#2D3142" font-family="Arial" font-size="14" lengthAdjust="spacing" textLength="154.875" x="370.0322" y="227.625">hoặc GET /api/plants/{id}</text></g><g class="message" data-participant-1="API" data-participant-2="Service"><polygon fill="#4F5D75" points="922.7197,258.6904,932.7197,262.6904,922.7197,266.6904,926.7197,262.6904" style="stroke:#4F5D75;stroke-width:1;" /><line style="stroke:#4F5D75;stroke-width:1;" x1="645.376" x2="928.7197" y1="262.6904" y2="262.6904" /><text fill="#2D3142" font-family="Arial" font-size="14" lengthAdjust="spacing" textLength="176.6201" x="652.376" y="257.7236">GetAllAsync / GetByIdAsync</text></g><g class="message" data-participant-1="Service" data-participant-2="DB"><polygon fill="#4F5D75" points="1359.1797,288.7891,1369.1797,292.7891,1359.1797,296.7891,1363.1797,292.7891" style="stroke:#4F5D75;stroke-width:1;" /><line style="stroke:#4F5D75;stroke-width:1;" x1="934.7197" x2="1365.1797" y1="292.7891" y2="292.7891" /><text fill="#2D3142" font-family="Arial" font-size="14" lengthAdjust="spacing" textLength="35.0205" x="941.7197" y="287.8223">query</text></g><g class="message" data-participant-1="DB" data-participant-2="Service"><polygon fill="#4F5D75" points="945.7197,318.8877,935.7197,322.8877,945.7197,326.8877,941.7197,322.8877" style="stroke:#4F5D75;stroke-width:1;" /><line style="stroke:#4F5D75;stroke-width:1;stroke-dasharray:2.0,2.0;" x1="939.7197" x2="1370.1797" y1="322.8877" y2="322.8877" /><text fill="#2D3142" font-family="Arial" font-size="14" lengthAdjust="spacing" textLength="44.3584" x="951.7197" y="317.9209">entities</text></g><g class="message" data-participant-1="Service" data-participant-2="API"><polygon fill="#4F5D75" points="656.376,348.9863,646.376,352.9863,656.376,356.9863,652.376,352.9863" style="stroke:#4F5D75;stroke-width:1;" /><line style="stroke:#4F5D75;stroke-width:1;stroke-dasharray:2.0,2.0;" x1="650.376" x2="933.7197" y1="352.9863" y2="352.9863" /><text fill="#2D3142" font-family="Arial" font-size="14" lengthAdjust="spacing" textLength="134.627" x="662.376" y="348.0195">PlantDto/list hoặc null</text></g><g class="message" data-participant-1="API" data-participant-2="Web"><polygon fill="#4F5D75" points="374.0322,379.085,364.0322,383.085,374.0322,387.085,370.0322,383.085" style="stroke:#4F5D75;stroke-width:1;" /><line style="stroke:#4F5D75;stroke-width:1;stroke-dasharray:2.0,2.0;" x1="368.0322" x2="644.376" y1="383.085" y2="383.085" /><text fill="#2D3142" font-family="Arial" font-size="14" lengthAdjust="spacing" textLength="122.2129" x="380.0322" y="378.1182">200 hoặc detail 404</text></g><g class="message" data-participant-1="Web" data-participant-2="User"><polygon fill="#4F5D75" points="93.1377,409.1836,83.1377,413.1836,93.1377,417.1836,89.1377,413.1836" style="stroke:#4F5D75;stroke-width:1;" /><line style="stroke:#4F5D75;stroke-width:1;stroke-dasharray:2.0,2.0;" x1="87.1377" x2="362.0322" y1="413.1836" y2="413.1836" /><text fill="#2D3142" font-family="Arial" font-size="14" lengthAdjust="spacing" textLength="256.8945" x="99.1377" y="408.2168">danh mục (web có dữ liệu tĩnh dự phòng)</text></g><path d="M234.2153,428.1836 L297.981,428.1836 L297.981,436.2822 L287.981,446.2822 L231.2153,446.2822 L231.2153,431.1836 A3,3 0 0 1 234.2153,428.1836" fill="#EEEEEE" style="stroke:#000000;stroke-width:1.5;" /><rect fill="none" height="610.5645" rx="3" ry="3" style="stroke:#000000;stroke-width:1.5;" width="1276.3433" x="231.2153" y="428.1836" /><text fill="#2D3142" font-family="Arial" font-size="14" font-weight="bold" lengthAdjust="spacing" textLength="21.7656" x="246.2153" y="442.3154">opt</text><text fill="#2D3142" font-family="Arial" font-size="14" font-weight="bold" lengthAdjust="spacing" textLength="166.4482" x="312.981" y="443.3154">[thao tác Admin qua API]</text><g class="message" data-participant-1="Web" data-participant-2="API"><polygon fill="#4F5D75" points="633.376,481.5781,643.376,485.5781,633.376,489.5781,637.376,485.5781" style="stroke:#4F5D75;stroke-width:1;" /><line style="stroke:#4F5D75;stroke-width:1;" x1="363.0322" x2="639.376" y1="485.5781" y2="485.5781" /><text fill="#2D3142" font-family="Arial" font-size="14" lengthAdjust="spacing" textLength="258.3438" x="370.0322" y="464.5127">POST /api/plants hoặc PUT/DELETE /{id}</text><text fill="#2D3142" font-family="Arial" font-size="14" lengthAdjust="spacing" textLength="74.6758" x="370.0322" y="480.6113">Bearer JWT</text></g><path d="M244.2153,500.5781 L302.5532,500.5781 L302.5532,508.6768 L292.5532,518.6768 L241.2153,518.6768 L241.2153,503.5781 A3,3 0 0 1 244.2153,500.5781" fill="#EEEEEE" style="stroke:#000000;stroke-width:1.5;" /><rect fill="none" height="531.1699" rx="3" ry="3" style="stroke:#000000;stroke-width:1.5;" width="1256.3433" x="241.2153" y="500.5781" /><text fill="#2D3142" font-family="Arial" font-size="14" font-weight="bold" lengthAdjust="spacing" textLength="16.3379" x="256.2153" y="514.71">alt</text><text fill="#2D3142" font-family="Arial" font-size="14" font-weight="bold" lengthAdjust="spacing" textLength="221.6826" x="317.5532" y="515.71">[JWT sai hoặc role không Admin]</text><g class="message" data-participant-1="API" data-participant-2="Web"><polygon fill="#4F5D75" points="374.0322,537.874,364.0322,541.874,374.0322,545.874,370.0322,541.874" style="stroke:#4F5D75;stroke-width:1;" /><line style="stroke:#4F5D75;stroke-width:1;stroke-dasharray:2.0,2.0;" x1="368.0322" x2="644.376" y1="541.874" y2="541.874" /><text fill="#2D3142" font-family="Arial" font-size="14" lengthAdjust="spacing" textLength="58.3857" x="380.0322" y="536.9072">401 / 403</text></g><line style="stroke:#000000;stroke-width:1;stroke-dasharray:2.0,2.0;" x1="241.2153" x2="1497.5586" y1="550.874" y2="550.874" /><text fill="#2D3142" font-family="Arial" font-size="14" font-weight="bold" lengthAdjust="spacing" textLength="99.3877" x="246.2153" y="564.0059">[Admin hợp lệ]</text><g class="message" data-participant-1="API" data-participant-2="Service"><polygon fill="#4F5D75" points="922.7197,586.0713,932.7197,590.0713,922.7197,594.0713,926.7197,590.0713" style="stroke:#4F5D75;stroke-width:1;" /><line style="stroke:#4F5D75;stroke-width:1;" x1="645.376" x2="928.7197" y1="590.0713" y2="590.0713" /><text fill="#2D3142" font-family="Arial" font-size="14" lengthAdjust="spacing" textLength="265.3438" x="652.376" y="585.1045">CreateAsync / UpdateAsync / DeleteAsync</text></g><g class="message" data-participant-1="Service" data-participant-2="DB"><polygon fill="#4F5D75" points="1359.1797,616.1699,1369.1797,620.1699,1359.1797,624.1699,1363.1797,620.1699" style="stroke:#4F5D75;stroke-width:1;" /><line style="stroke:#4F5D75;stroke-width:1;" x1="934.7197" x2="1365.1797" y1="620.1699" y2="620.1699" /><text fill="#2D3142" font-family="Arial" font-size="14" lengthAdjust="spacing" textLength="168.8887" x="941.7197" y="615.2031">tải record khi update/delete</text></g><g class="message" data-participant-1="DB" data-participant-2="Service"><polygon fill="#4F5D75" points="945.7197,646.2686,935.7197,650.2686,945.7197,654.2686,941.7197,650.2686" style="stroke:#4F5D75;stroke-width:1;" /><line style="stroke:#4F5D75;stroke-width:1;stroke-dasharray:2.0,2.0;" x1="939.7197" x2="1370.1797" y1="650.2686" y2="650.2686" /><text fill="#2D3142" font-family="Arial" font-size="14" lengthAdjust="spacing" textLength="93.3926" x="951.7197" y="645.3018">entity hoặc null</text></g><path d="M254.2153,665.2686 L312.5532,665.2686 L312.5532,673.3672 L302.5532,683.3672 L251.2153,683.3672 L251.2153,668.2686 A3,3 0 0 1 254.2153,665.2686" fill="#EEEEEE" style="stroke:#000000;stroke-width:1.5;" /><rect fill="none" height="359.4795" rx="3" ry="3" style="stroke:#000000;stroke-width:1.5;" width="1236.3433" x="251.2153" y="665.2686" /><text fill="#2D3142" font-family="Arial" font-size="14" font-weight="bold" lengthAdjust="spacing" textLength="16.3379" x="266.2153" y="679.4004">alt</text><text fill="#2D3142" font-family="Arial" font-size="14" font-weight="bold" lengthAdjust="spacing" textLength="223.0635" x="327.5532" y="680.4004">[ID không tồn tại ở update/delete]</text><g class="message" data-participant-1="Service" data-participant-2="API"><polygon fill="#4F5D75" points="656.376,702.5645,646.376,706.5645,656.376,710.5645,652.376,706.5645" style="stroke:#4F5D75;stroke-width:1;" /><line style="stroke:#4F5D75;stroke-width:1;stroke-dasharray:2.0,2.0;" x1="650.376" x2="933.7197" y1="706.5645" y2="706.5645" /><text fill="#2D3142" font-family="Arial" font-size="14" lengthAdjust="spacing" textLength="147.0889" x="662.376" y="701.5977">KeyNotFoundException</text></g><g class="message" data-participant-1="API" data-participant-2="Web"><polygon fill="#4F5D75" points="374.0322,732.6631,364.0322,736.6631,374.0322,740.6631,370.0322,736.6631" style="stroke:#4F5D75;stroke-width:1;" /><line style="stroke:#4F5D75;stroke-width:1;stroke-dasharray:2.0,2.0;" x1="368.0322" x2="644.376" y1="736.6631" y2="736.6631" /><text fill="#2D3142" font-family="Arial" font-size="14" lengthAdjust="spacing" textLength="98.834" x="380.0322" y="731.6963">middleware 404</text></g><line style="stroke:#000000;stroke-width:1;stroke-dasharray:2.0,2.0;" x1="251.2153" x2="1487.5586" y1="745.6631" y2="745.6631" /><text fill="#2D3142" font-family="Arial" font-size="14" font-weight="bold" lengthAdjust="spacing" textLength="141.6064" x="256.2153" y="758.7949">[tiếp tục tạo/sửa/xóa]</text><g class="message" data-participant-1="Service" data-participant-2="DB"><polygon fill="#4F5D75" points="1359.1797,780.8604,1369.1797,784.8604,1359.1797,788.8604,1363.1797,784.8604" style="stroke:#4F5D75;stroke-width:1;" /><line style="stroke:#4F5D75;stroke-width:1;" x1="934.7197" x2="1365.1797" y1="784.8604" y2="784.8604" /><text fill="#2D3142" font-family="Arial" font-size="14" lengthAdjust="spacing" textLength="412.46" x="941.7197" y="779.8936">Add/Update; DELETE = IsActive=false / UpdatedAt; SaveChanges</text></g><path d="M264.2153,799.8604 L322.5532,799.8604 L322.5532,807.959 L312.5532,817.959 L261.2153,817.959 L261.2153,802.8604 A3,3 0 0 1 264.2153,799.8604" fill="#EEEEEE" style="stroke:#000000;stroke-width:1.5;" /><rect fill="none" height="217.8877" rx="3" ry="3" style="stroke:#000000;stroke-width:1.5;" width="1216.3433" x="261.2153" y="799.8604" /><text fill="#2D3142" font-family="Arial" font-size="14" font-weight="bold" lengthAdjust="spacing" textLength="16.3379" x="276.2153" y="813.9922">alt</text><text fill="#2D3142" font-family="Arial" font-size="14" font-weight="bold" lengthAdjust="spacing" textLength="202.2344" x="337.5532" y="814.9922">[unique hoặc DB update error]</text><g class="message" data-participant-1="DB" data-participant-2="Service"><polygon fill="#4F5D75" points="945.7197,837.1563,935.7197,841.1563,945.7197,845.1563,941.7197,841.1563" style="stroke:#4F5D75;stroke-width:1;" /><line style="stroke:#4F5D75;stroke-width:1;stroke-dasharray:2.0,2.0;" x1="939.7197" x2="1370.1797" y1="841.1563" y2="841.1563" /><text fill="#2D3142" font-family="Arial" font-size="14" lengthAdjust="spacing" textLength="124.5234" x="951.7197" y="836.1895">DbUpdateException</text></g><g class="message" data-participant-1="Service" data-participant-2="API"><polygon fill="#4F5D75" points="656.376,867.2549,646.376,871.2549,656.376,875.2549,652.376,871.2549" style="stroke:#4F5D75;stroke-width:1;" /><line style="stroke:#4F5D75;stroke-width:1;stroke-dasharray:2.0,2.0;" x1="650.376" x2="933.7197" y1="871.2549" y2="871.2549" /><text fill="#2D3142" font-family="Arial" font-size="14" lengthAdjust="spacing" textLength="59.9307" x="662.376" y="866.2881">exception</text></g><g class="message" data-participant-1="API" data-participant-2="Web"><polygon fill="#4F5D75" points="374.0322,897.3535,364.0322,901.3535,374.0322,905.3535,370.0322,901.3535" style="stroke:#4F5D75;stroke-width:1;" /><line style="stroke:#4F5D75;stroke-width:1;stroke-dasharray:2.0,2.0;" x1="368.0322" x2="644.376" y1="901.3535" y2="901.3535" /><text fill="#2D3142" font-family="Arial" font-size="14" lengthAdjust="spacing" textLength="148.5244" x="380.0322" y="896.3867">middleware thường 500</text></g><line style="stroke:#000000;stroke-width:1;stroke-dasharray:2.0,2.0;" x1="261.2153" x2="1477.5586" y1="910.3535" y2="910.3535" /><text fill="#2D3142" font-family="Arial" font-size="14" font-weight="bold" lengthAdjust="spacing" textLength="84.7588" x="266.2153" y="923.4854">[thành công]</text><g class="message" data-participant-1="DB" data-participant-2="Service"><polygon fill="#4F5D75" points="945.7197,945.5508,935.7197,949.5508,945.7197,953.5508,941.7197,949.5508" style="stroke:#4F5D75;stroke-width:1;" /><line style="stroke:#4F5D75;stroke-width:1;stroke-dasharray:2.0,2.0;" x1="939.7197" x2="1370.1797" y1="949.5508" y2="949.5508" /><text fill="#2D3142" font-family="Arial" font-size="14" lengthAdjust="spacing" textLength="37.3584" x="951.7197" y="944.584">saved</text></g><g class="message" data-participant-1="Service" data-participant-2="API"><polygon fill="#4F5D75" points="656.376,975.6494,646.376,979.6494,656.376,983.6494,652.376,979.6494" style="stroke:#4F5D75;stroke-width:1;" /><line style="stroke:#4F5D75;stroke-width:1;stroke-dasharray:2.0,2.0;" x1="650.376" x2="933.7197" y1="979.6494" y2="979.6494" /><text fill="#2D3142" font-family="Arial" font-size="14" lengthAdjust="spacing" textLength="132.2822" x="662.376" y="974.6826">DTO hoặc completed</text></g><g class="message" data-participant-1="API" data-participant-2="Web"><polygon fill="#4F5D75" points="374.0322,1005.748,364.0322,1009.748,374.0322,1013.748,370.0322,1009.748" style="stroke:#4F5D75;stroke-width:1;" /><line style="stroke:#4F5D75;stroke-width:1;stroke-dasharray:2.0,2.0;" x1="368.0322" x2="644.376" y1="1009.748" y2="1009.748" /><text fill="#2D3142" font-family="Arial" font-size="14" lengthAdjust="spacing" textLength="225.6611" x="380.0322" y="1004.7813">POST 201 / PUT 200 / DELETE 204</text></g><path d="M547,1053.748 L547,1121.748 A3,3 0 0 0 550,1124.748 L1466,1124.748 A3,3 0 0 0 1469,1121.748 L1469,1060.748 L1459,1050.748 L550,1050.748 A3,3 0 0 0 547,1053.748" fill="#ECECEC" style="stroke:#BFC0C0;stroke-width:0.5;" /><path d="M1459,1050.748 L1459,1059.248 A1.5,1.5 0 0 0 1460.5,1060.748 L1469,1060.748 L1459,1050.748" fill="#ECECEC" style="stroke:#BFC0C0;stroke-width:0.5;" /><text fill="#2D3142" font-family="Arial" font-size="14" lengthAdjust="spacing" textLength="340.8057" x="800.405" y="1068.8799">DiseasesController/DiseaseService/DiseaseRepository</text><text fill="#2D3142" font-family="Arial" font-size="14" lengthAdjust="spacing" textLength="201.4756" x="800.405" y="1084.9785">có API /api/diseases tương ứng.</text><text fill="#2D3142" font-family="Arial" font-size="14" lengthAdjust="spacing" textLength="376.7012" x="800.405" y="1101.0771">Chưa thấy UI Admin; API caller không đồng nghĩa màn hình.</text><text fill="#2D3142" font-family="Arial" font-size="14" lengthAdjust="spacing" textLength="406.2324" x="800.405" y="1117.1758">DELETE catalog là soft-delete; không xóa plant_diseases/history.</text><!--SRC=[ZLRFRnj55BxlN_4KBbGqMITr-96e8CTEaMdL6foebqfeF3lsZZAUMMPcaxe82Oa3ui2XWYkYKLIX82fQYeHa7pWuol-n_2MycTrrrh6RD5OstfdtlddVztvCp06N2T5a23r23mPQfJ9gAg4qlDFVT9_0p2mYrYUfi7UKjFV9aC5AGtCYLfPRTFaJ1klrvPl52HlHhVNwHiMaeRKwAZRh_SteW-hn9YQHEk9o07qY3Ali-AYfqf9fUB-oJWKnfc6jvhtKiZPLqaTLgvWCbLGqrWhfN4QzhopRkImAe-vpsKhfYEd2ejUdDLezmh2lKYOfwn1jEUK9aNO1jkz_hd6gdh8W7Q6M7t8xkXvwPdabdh5a2Vt5EBtPbKW-2zSZvMPN8gM6KMBU8ghIy4eqpQWbSY3U0k_2z6gcNDEtWIlibc1PRWM3Rf5y-E_Rds6_kLhx44B_zoE8Y8nXc4sUKtYt8x0gjg753KEoOCzVdXzZTzXiykf6W5b6t9MxyVIOnixTO7E4q8Y6NAu0CNuXI2xA2rOUiXvGOebGWqR2dN6dZGj2CEqzS3-GMEwW3X7B-T_4fItm3uz_zdHwWe-pxp0C6MVZ5qcecS50s1haaMm1ZRF93p389ZzoVu3L62y5oxFnlydQV4IUeMdYnD3AXG7l0Kbjh3H_GYnNEH44cVFoJbsc3pagYFl5ro12QZqdL0xx1KkKuHZR29bsbB43pRgVt_EGhPt0yrdzs963BHXDVq-1PkFVqae60hU79ex55dowkmSXINYO-A0_uPAAD69jwVkDtVRZvP6CLJR-Xrws3h_cqJU10qAyCdR4PBOXHCEC9CKWyMrdr8xyQr0QeNrh1qsnOlGemA-hSmXCOabnPYxiPm5x5LfMXO8R2qLSCXKYZsF6VQDMAtSZPWaNKA_LS-veutNQcglB8rT7qzSGPPC_GV1iydqAzkmK3N3b5IJnz2yvk16en8ADYGABXP4N9h8WFfym9stdGNTEhJASplvUsDgzjxkt2rx0HtA74OtnVFPmBm0YhFi2Xl3I0Qk8mK4y_HlhqnyO0CoJhTVMKUbwxLO03FDLX8KbUvA0G2QbGrNZfcOu1CiixITHvQt512lUqFLoqcmsFk5kkk0emBWufDuvZBmNEYpFvsWkM-2PjbibCUp_dwI3FkQGJNvTm8J5KhZBHdYFtN4pQ_SnPOdhBMSvhysGHv5WHwYmhm385SeRrvsAkNUdgj1aanSaV3nzJUQEAqWteYZCHSBPbMVlDhHDez8cCncZ1WwuBZbapHZdBvOnv6nJoR7WInaGDYS93F-1qCveKRbMBuUS8xX42pQt_qO5R7p-CflyWdflrchED1SZdZx3EgSk4Sl3C4WcUiFHhRq79IMgXedBLxGa2jyE6xvGiGDyVuQbaXi-CLWcpj4_tSFzNankHBk94wwuDohZDIoMYiZAruj96RYsTi7uPemAWDdDaqrEvM0jQA8q1AN8niz7iD_EUsYxSfkKbNhsr9KgNXM3-EoKm12rWtZwXupNWe9ESHs1c3u3e_fsDQ_YxHB1rHZueV1b6KqOStVZZDOSQt2i_mS0]--></g></svg>
