<svg xmlns="http://www.w3.org/2000/svg" xmlns:xlink="http://www.w3.org/1999/xlink" contentStyleType="text/css" data-diagram-type="SEQUENCE" height="1224px" preserveAspectRatio="none" style="width:1262px;height:1224px;background:#F5F5F5;" version="1.1" viewBox="0 0 1262 1224" width="1262px" zoomAndPan="magnify" role="img" aria-labelledby="sequence_authentication-title sequence_authentication-desc"><title id="sequence_authentication-title">Sequence — UC-01 đăng ký / UC-02 đăng nhập</title><desc id="sequence_authentication-desc">AgriVision working tree sau AGRI-70, đối chiếu 2026-10-07; xem README và traceability.</desc><defs /><g><rect fill="#F5F5F5" height="1224" style="stroke:none;stroke-width:1;" width="1262" x="0" y="0" /><text fill="#2D3142" font-family="Arial" font-size="14" font-weight="bold" lengthAdjust="spacing" textLength="311.9512" x="476.0718" y="28.1318">Sequence — UC-01 đăng ký / UC-02 đăng nhập</text><rect fill="none" height="888.2549" rx="3" ry="3" style="stroke:#000000;stroke-width:1.5;" width="1159.416" x="95.6787" y="165.2959" /><rect fill="none" height="321.1836" rx="3" ry="3" style="stroke:#000000;stroke-width:1.5;" width="1139.416" x="105.6787" y="311.8877" /><rect fill="none" height="217.8877" rx="3" ry="3" style="stroke:#000000;stroke-width:1.5;" width="1139.416" x="105.6787" y="828.6631" /><g><title>User</title><rect fill="#000000" fill-opacity="0.00000" height="1025.5508" width="8" x="18.7793" y="118.1973" /><line style="stroke:#181818;stroke-width:0.5;stroke-dasharray:5.0,5.0;" x1="22" x2="22" y1="118.1973" y2="1143.748" /></g><g><title>LoginModal / authApi</title><rect fill="#000000" fill-opacity="0.00000" height="1025.5508" width="8" x="184.4473" y="118.1973" /><line style="stroke:#181818;stroke-width:0.5;stroke-dasharray:5.0,5.0;" x1="187.6787" x2="187.6787" y1="118.1973" y2="1143.748" /></g><g><title>AuthController</title><rect fill="#000000" fill-opacity="0.00000" height="1025.5508" width="8" x="407.0459" y="118.1973" /><line style="stroke:#181818;stroke-width:0.5;stroke-dasharray:5.0,5.0;" x1="410.3013" x2="410.3013" y1="118.1973" y2="1143.748" /></g><g><title>AuthService</title><rect fill="#000000" fill-opacity="0.00000" height="1025.5508" width="8" x="620.9277" y="118.1973" /><line style="stroke:#181818;stroke-width:0.5;stroke-dasharray:5.0,5.0;" x1="624.1865" x2="624.1865" y1="118.1973" y2="1143.748" /></g><g><title>UserRepository / PostgreSQL</title><rect fill="#000000" fill-opacity="0.00000" height="1025.5508" width="8" x="988.9473" y="118.1973" /><line style="stroke:#181818;stroke-width:0.5;stroke-dasharray:5.0,5.0;" x1="992.7441" x2="992.7441" y1="118.1973" y2="1143.748" /></g><g><title>JwtTokenGenerator</title><rect fill="#000000" fill-opacity="0.00000" height="1025.5508" width="8" x="1162.6226" y="118.1973" /><line style="stroke:#181818;stroke-width:0.5;stroke-dasharray:5.0,5.0;" x1="1166.1504" x2="1166.1504" y1="118.1973" y2="1143.748" /></g><g class="participant participant-head" data-participant="User"><text fill="#2D3142" font-family="Arial" font-size="14" lengthAdjust="spacing" textLength="29.5586" x="5" y="115.2305">User</text><ellipse cx="22.7793" cy="50.5986" fill="#E2E2F0" rx="8" ry="8" style="stroke:#181818;stroke-width:0.5;" /><path d="M22.7793,58.5986 L22.7793,85.5986 M9.7793,66.5986 L35.7793,66.5986 M22.7793,85.5986 L9.7793,100.5986 M22.7793,85.5986 L35.7793,100.5986" fill="none" style="stroke:#181818;stroke-width:0.5;" /></g><g class="participant participant-tail" data-participant="User"><text fill="#2D3142" font-family="Arial" font-size="14" lengthAdjust="spacing" textLength="29.5586" x="5" y="1155.8799">User</text><ellipse cx="22.7793" cy="1167.3467" fill="#E2E2F0" rx="8" ry="8" style="stroke:#181818;stroke-width:0.5;" /><path d="M22.7793,1175.3467 L22.7793,1202.3467 M9.7793,1183.3467 L35.7793,1183.3467 M22.7793,1202.3467 L9.7793,1217.3467 M22.7793,1202.3467 L35.7793,1217.3467" fill="none" style="stroke:#181818;stroke-width:0.5;" /></g><g class="participant participant-head" data-participant="Web"><rect fill="#FFFFFF" height="30.0986" rx="3" ry="3" style="stroke:#2D3142;stroke-width:0.5;" width="145.5371" x="115.6787" y="87.0986" /><text fill="#2D3142" font-family="Arial" font-size="14" lengthAdjust="spacing" textLength="131.5371" x="122.6787" y="107.2305">LoginModal / authApi</text></g><g class="participant participant-tail" data-participant="Web"><rect fill="#FFFFFF" height="30.0986" rx="3" ry="3" style="stroke:#2D3142;stroke-width:0.5;" width="145.5371" x="115.6787" y="1142.748" /><text fill="#2D3142" font-family="Arial" font-size="14" lengthAdjust="spacing" textLength="131.5371" x="122.6787" y="1162.8799">LoginModal / authApi</text></g><g class="participant participant-head" data-participant="Controller"><rect fill="#FFFFFF" height="30.0986" rx="3" ry="3" style="stroke:#2D3142;stroke-width:0.5;" width="103.4893" x="359.3013" y="87.0986" /><text fill="#2D3142" font-family="Arial" font-size="14" lengthAdjust="spacing" textLength="89.4893" x="366.3013" y="107.2305">AuthController</text></g><g class="participant participant-tail" data-participant="Controller"><rect fill="#FFFFFF" height="30.0986" rx="3" ry="3" style="stroke:#2D3142;stroke-width:0.5;" width="103.4893" x="359.3013" y="1142.748" /><text fill="#2D3142" font-family="Arial" font-size="14" lengthAdjust="spacing" textLength="89.4893" x="366.3013" y="1162.8799">AuthController</text></g><g class="participant participant-head" data-participant="Service"><rect fill="#FFFFFF" height="30.0986" rx="3" ry="3" style="stroke:#2D3142;stroke-width:0.5;" width="89.4824" x="580.1865" y="87.0986" /><text fill="#2D3142" font-family="Arial" font-size="14" lengthAdjust="spacing" textLength="75.4824" x="587.1865" y="107.2305">AuthService</text></g><g class="participant participant-tail" data-participant="Service"><rect fill="#FFFFFF" height="30.0986" rx="3" ry="3" style="stroke:#2D3142;stroke-width:0.5;" width="89.4824" x="580.1865" y="1142.748" /><text fill="#2D3142" font-family="Arial" font-size="14" lengthAdjust="spacing" textLength="75.4824" x="587.1865" y="1162.8799">AuthService</text></g><g class="participant participant-head" data-participant="DB"><text fill="#2D3142" font-family="Arial" font-size="14" lengthAdjust="spacing" textLength="184.4063" x="897.7441" y="115.2305">UserRepository / PostgreSQL</text><path d="M974.9473,66.0986 C974.9473,56.0986 992.9473,56.0986 992.9473,56.0986 C992.9473,56.0986 1010.9473,56.0986 1010.9473,66.0986 L1010.9473,92.0986 C1010.9473,102.0986 992.9473,102.0986 992.9473,102.0986 C992.9473,102.0986 974.9473,102.0986 974.9473,92.0986 L974.9473,66.0986" fill="#E2E2F0" style="stroke:#181818;stroke-width:1.5;" /><path d="M974.9473,66.0986 C974.9473,76.0986 992.9473,76.0986 992.9473,76.0986 C992.9473,76.0986 1010.9473,76.0986 1010.9473,66.0986" fill="none" style="stroke:#181818;stroke-width:1.5;" /></g><g class="participant participant-tail" data-participant="DB"><text fill="#2D3142" font-family="Arial" font-size="14" lengthAdjust="spacing" textLength="184.4063" x="897.7441" y="1155.8799">UserRepository / PostgreSQL</text><path d="M974.9473,1168.8467 C974.9473,1158.8467 992.9473,1158.8467 992.9473,1158.8467 C992.9473,1158.8467 1010.9473,1158.8467 1010.9473,1168.8467 L1010.9473,1194.8467 C1010.9473,1204.8467 992.9473,1204.8467 992.9473,1204.8467 C992.9473,1204.8467 974.9473,1204.8467 974.9473,1194.8467 L974.9473,1168.8467" fill="#E2E2F0" style="stroke:#181818;stroke-width:1.5;" /><path d="M974.9473,1168.8467 C974.9473,1178.8467 992.9473,1178.8467 992.9473,1178.8467 C992.9473,1178.8467 1010.9473,1178.8467 1010.9473,1168.8467" fill="none" style="stroke:#181818;stroke-width:1.5;" /></g><g class="participant participant-head" data-participant="JWT"><rect fill="#FFFFFF" height="30.0986" rx="3" ry="3" style="stroke:#2D3142;stroke-width:0.5;" width="136.9443" x="1098.1504" y="87.0986" /><text fill="#2D3142" font-family="Arial" font-size="14" lengthAdjust="spacing" textLength="122.9443" x="1105.1504" y="107.2305">JwtTokenGenerator</text></g><g class="participant participant-tail" data-participant="JWT"><rect fill="#FFFFFF" height="30.0986" rx="3" ry="3" style="stroke:#2D3142;stroke-width:0.5;" width="136.9443" x="1098.1504" y="1142.748" /><text fill="#2D3142" font-family="Arial" font-size="14" lengthAdjust="spacing" textLength="122.9443" x="1105.1504" y="1162.8799">JwtTokenGenerator</text></g><g class="message" data-participant-1="User" data-participant-2="Web"><polygon fill="#4F5D75" points="176.4473,146.2959,186.4473,150.2959,176.4473,154.2959,180.4473,150.2959" style="stroke:#4F5D75;stroke-width:1;" /><line style="stroke:#4F5D75;stroke-width:1;" x1="22.7793" x2="182.4473" y1="150.2959" y2="150.2959" /><text fill="#2D3142" font-family="Arial" font-size="14" lengthAdjust="spacing" textLength="112.8271" x="29.7793" y="145.3291">submit credentials</text></g><path d="M98.6787,165.2959 L157.0166,165.2959 L157.0166,173.3945 L147.0166,183.3945 L95.6787,183.3945 L95.6787,168.2959 A3,3 0 0 1 98.6787,165.2959" fill="#EEEEEE" style="stroke:#000000;stroke-width:1.5;" /><rect fill="none" height="888.2549" rx="3" ry="3" style="stroke:#000000;stroke-width:1.5;" width="1159.416" x="95.6787" y="165.2959" /><text fill="#2D3142" font-family="Arial" font-size="14" font-weight="bold" lengthAdjust="spacing" textLength="16.3379" x="110.6787" y="179.4277">alt</text><text fill="#2D3142" font-family="Arial" font-size="14" font-weight="bold" lengthAdjust="spacing" textLength="60.6826" x="172.0166" y="180.4277">[register]</text><g class="message" data-participant-1="Web" data-participant-2="Controller"><polygon fill="#4F5D75" points="399.0459,202.5918,409.0459,206.5918,399.0459,210.5918,403.0459,206.5918" style="stroke:#4F5D75;stroke-width:1;" /><line style="stroke:#4F5D75;stroke-width:1;" x1="188.4473" x2="405.0459" y1="206.5918" y2="206.5918" /><text fill="#2D3142" font-family="Arial" font-size="14" lengthAdjust="spacing" textLength="146.2891" x="195.4473" y="201.625">POST /api/auth/register</text></g><g class="message" data-participant-1="Controller" data-participant-2="Service"><polygon fill="#4F5D75" points="612.9277,232.6904,622.9277,236.6904,612.9277,240.6904,616.9277,236.6904" style="stroke:#4F5D75;stroke-width:1;" /><line style="stroke:#4F5D75;stroke-width:1;" x1="411.0459" x2="618.9277" y1="236.6904" y2="236.6904" /><text fill="#2D3142" font-family="Arial" font-size="14" lengthAdjust="spacing" textLength="90.2549" x="418.0459" y="231.7236">RegisterAsync</text></g><g class="message" data-participant-1="Service" data-participant-2="DB"><polygon fill="#4F5D75" points="980.9473,262.7891,990.9473,266.7891,980.9473,270.7891,984.9473,266.7891" style="stroke:#4F5D75;stroke-width:1;" /><line style="stroke:#4F5D75;stroke-width:1;" x1="624.9277" x2="986.9473" y1="266.7891" y2="266.7891" /><text fill="#2D3142" font-family="Arial" font-size="14" lengthAdjust="spacing" textLength="126.8066" x="631.9277" y="261.8223">ExistsByEmailAsync</text></g><g class="message" data-participant-1="DB" data-participant-2="Service"><polygon fill="#4F5D75" points="635.9277,292.8877,625.9277,296.8877,635.9277,300.8877,631.9277,296.8877" style="stroke:#4F5D75;stroke-width:1;" /><line style="stroke:#4F5D75;stroke-width:1;stroke-dasharray:2.0,2.0;" x1="629.9277" x2="991.9473" y1="296.8877" y2="296.8877" /><text fill="#2D3142" font-family="Arial" font-size="14" lengthAdjust="spacing" textLength="35.7861" x="641.9277" y="291.9209">exists</text></g><path d="M108.6787,311.8877 L167.0166,311.8877 L167.0166,319.9863 L157.0166,329.9863 L105.6787,329.9863 L105.6787,314.8877 A3,3 0 0 1 108.6787,311.8877" fill="#EEEEEE" style="stroke:#000000;stroke-width:1.5;" /><rect fill="none" height="321.1836" rx="3" ry="3" style="stroke:#000000;stroke-width:1.5;" width="1139.416" x="105.6787" y="311.8877" /><text fill="#2D3142" font-family="Arial" font-size="14" font-weight="bold" lengthAdjust="spacing" textLength="16.3379" x="120.6787" y="326.0195">alt</text><text fill="#2D3142" font-family="Arial" font-size="14" font-weight="bold" lengthAdjust="spacing" textLength="85.5791" x="182.0166" y="327.0195">[email đã có]</text><g class="message" data-participant-1="Service" data-participant-2="Controller"><polygon fill="#4F5D75" points="422.0459,349.1836,412.0459,353.1836,422.0459,357.1836,418.0459,353.1836" style="stroke:#4F5D75;stroke-width:1;" /><line style="stroke:#4F5D75;stroke-width:1;stroke-dasharray:2.0,2.0;" x1="416.0459" x2="623.9277" y1="353.1836" y2="353.1836" /><text fill="#2D3142" font-family="Arial" font-size="14" lengthAdjust="spacing" textLength="163.4336" x="428.0459" y="348.2168">InvalidOperationException</text></g><g class="message" data-participant-1="Controller" data-participant-2="Web"><polygon fill="#4F5D75" points="199.4473,379.2822,189.4473,383.2822,199.4473,387.2822,195.4473,383.2822" style="stroke:#4F5D75;stroke-width:1;" /><line style="stroke:#4F5D75;stroke-width:1;stroke-dasharray:2.0,2.0;" x1="193.4473" x2="410.0459" y1="383.2822" y2="383.2822" /><text fill="#2D3142" font-family="Arial" font-size="14" lengthAdjust="spacing" textLength="98.834" x="205.4473" y="378.3154">middleware 400</text></g><line style="stroke:#000000;stroke-width:1;stroke-dasharray:2.0,2.0;" x1="105.6787" x2="1245.0947" y1="392.2822" y2="392.2822" /><text fill="#2D3142" font-family="Arial" font-size="14" font-weight="bold" lengthAdjust="spacing" textLength="103.5029" x="110.6787" y="405.4141">[email chưa có]</text><g class="message" data-participant-1="Service" data-participant-2="Service"><line style="stroke:#4F5D75;stroke-width:1;" x1="624.9277" x2="666.9277" y1="431.4795" y2="431.4795" /><line style="stroke:#4F5D75;stroke-width:1;" x1="666.9277" x2="666.9277" y1="431.4795" y2="444.4795" /><line style="stroke:#4F5D75;stroke-width:1;" x1="625.9277" x2="666.9277" y1="444.4795" y2="444.4795" /><polygon fill="#4F5D75" points="635.9277,440.4795,625.9277,444.4795,635.9277,448.4795,631.9277,444.4795" style="stroke:#4F5D75;stroke-width:1;" /><text fill="#2D3142" font-family="Arial" font-size="14" lengthAdjust="spacing" textLength="242.7373" x="631.9277" y="426.5127">BCrypt.HashPassword / User role User</text></g><g class="message" data-participant-1="Service" data-participant-2="DB"><polygon fill="#4F5D75" points="980.9473,470.5781,990.9473,474.5781,980.9473,478.5781,984.9473,474.5781" style="stroke:#4F5D75;stroke-width:1;" /><line style="stroke:#4F5D75;stroke-width:1;" x1="624.9277" x2="986.9473" y1="474.5781" y2="474.5781" /><text fill="#2D3142" font-family="Arial" font-size="14" lengthAdjust="spacing" textLength="162.6543" x="631.9277" y="469.6113">AddAsync / SaveChanges</text></g><g class="message" data-participant-1="DB" data-participant-2="Service"><polygon fill="#4F5D75" points="635.9277,500.6768,625.9277,504.6768,635.9277,508.6768,631.9277,504.6768" style="stroke:#4F5D75;stroke-width:1;" /><line style="stroke:#4F5D75;stroke-width:1;stroke-dasharray:2.0,2.0;" x1="629.9277" x2="991.9473" y1="504.6768" y2="504.6768" /><text fill="#2D3142" font-family="Arial" font-size="14" lengthAdjust="spacing" textLength="37.3584" x="641.9277" y="499.71">saved</text></g><g class="message" data-participant-1="Service" data-participant-2="JWT"><polygon fill="#4F5D75" points="1154.6226,530.7754,1164.6226,534.7754,1154.6226,538.7754,1158.6226,534.7754" style="stroke:#4F5D75;stroke-width:1;" /><line style="stroke:#4F5D75;stroke-width:1;" x1="624.9277" x2="1160.6226" y1="534.7754" y2="534.7754" /><text fill="#2D3142" font-family="Arial" font-size="14" lengthAdjust="spacing" textLength="133.8408" x="631.9277" y="529.8086">GenerateToken(user)</text></g><g class="message" data-participant-1="JWT" data-participant-2="Service"><polygon fill="#4F5D75" points="635.9277,560.874,625.9277,564.874,635.9277,568.874,631.9277,564.874" style="stroke:#4F5D75;stroke-width:1;" /><line style="stroke:#4F5D75;stroke-width:1;stroke-dasharray:2.0,2.0;" x1="629.9277" x2="1165.6226" y1="564.874" y2="564.874" /><text fill="#2D3142" font-family="Arial" font-size="14" lengthAdjust="spacing" textLength="73.9102" x="641.9277" y="559.9072">signed JWT</text></g><g class="message" data-participant-1="Service" data-participant-2="Controller"><polygon fill="#4F5D75" points="422.0459,590.9727,412.0459,594.9727,422.0459,598.9727,418.0459,594.9727" style="stroke:#4F5D75;stroke-width:1;" /><line style="stroke:#4F5D75;stroke-width:1;stroke-dasharray:2.0,2.0;" x1="416.0459" x2="623.9277" y1="594.9727" y2="594.9727" /><text fill="#2D3142" font-family="Arial" font-size="14" lengthAdjust="spacing" textLength="91.8408" x="428.0459" y="590.0059">AuthResponse</text></g><g class="message" data-participant-1="Controller" data-participant-2="Web"><polygon fill="#4F5D75" points="199.4473,621.0713,189.4473,625.0713,199.4473,629.0713,195.4473,625.0713" style="stroke:#4F5D75;stroke-width:1;" /><line style="stroke:#4F5D75;stroke-width:1;stroke-dasharray:2.0,2.0;" x1="193.4473" x2="410.0459" y1="625.0713" y2="625.0713" /><text fill="#2D3142" font-family="Arial" font-size="14" lengthAdjust="spacing" textLength="128.7959" x="205.4473" y="620.1045">200 token + UserDto</text></g><line style="stroke:#000000;stroke-width:1;stroke-dasharray:2.0,2.0;" x1="95.6787" x2="1255.0947" y1="641.0713" y2="641.0713" /><text fill="#2D3142" font-family="Arial" font-size="14" font-weight="bold" lengthAdjust="spacing" textLength="42.7588" x="100.6787" y="654.2031">[login]</text><g class="message" data-participant-1="Web" data-participant-2="Controller"><polygon fill="#4F5D75" points="399.0459,676.2686,409.0459,680.2686,399.0459,684.2686,403.0459,680.2686" style="stroke:#4F5D75;stroke-width:1;" /><line style="stroke:#4F5D75;stroke-width:1;" x1="188.4473" x2="405.0459" y1="680.2686" y2="680.2686" /><text fill="#2D3142" font-family="Arial" font-size="14" lengthAdjust="spacing" textLength="129.1855" x="195.4473" y="675.3018">POST /api/auth/login</text></g><g class="message" data-participant-1="Controller" data-participant-2="Service"><polygon fill="#4F5D75" points="612.9277,706.3672,622.9277,710.3672,612.9277,714.3672,616.9277,710.3672" style="stroke:#4F5D75;stroke-width:1;" /><line style="stroke:#4F5D75;stroke-width:1;" x1="411.0459" x2="618.9277" y1="710.3672" y2="710.3672" /><text fill="#2D3142" font-family="Arial" font-size="14" lengthAdjust="spacing" textLength="72.3789" x="418.0459" y="705.4004">LoginAsync</text></g><g class="message" data-participant-1="Service" data-participant-2="DB"><polygon fill="#4F5D75" points="980.9473,736.4658,990.9473,740.4658,980.9473,744.4658,984.9473,740.4658" style="stroke:#4F5D75;stroke-width:1;" /><line style="stroke:#4F5D75;stroke-width:1;" x1="624.9277" x2="986.9473" y1="740.4658" y2="740.4658" /><text fill="#2D3142" font-family="Arial" font-size="14" lengthAdjust="spacing" textLength="112.0342" x="631.9277" y="735.499">GetByEmailAsync</text></g><g class="message" data-participant-1="DB" data-participant-2="Service"><polygon fill="#4F5D75" points="635.9277,766.5645,625.9277,770.5645,635.9277,774.5645,631.9277,770.5645" style="stroke:#4F5D75;stroke-width:1;" /><line style="stroke:#4F5D75;stroke-width:1;stroke-dasharray:2.0,2.0;" x1="629.9277" x2="991.9473" y1="770.5645" y2="770.5645" /><text fill="#2D3142" font-family="Arial" font-size="14" lengthAdjust="spacing" textLength="87.165" x="641.9277" y="765.5977">user hoặc null</text></g><g class="message" data-participant-1="Service" data-participant-2="Service"><line style="stroke:#4F5D75;stroke-width:1;" x1="624.9277" x2="666.9277" y1="800.6631" y2="800.6631" /><line style="stroke:#4F5D75;stroke-width:1;" x1="666.9277" x2="666.9277" y1="800.6631" y2="813.6631" /><line style="stroke:#4F5D75;stroke-width:1;" x1="625.9277" x2="666.9277" y1="813.6631" y2="813.6631" /><polygon fill="#4F5D75" points="635.9277,809.6631,625.9277,813.6631,635.9277,817.6631,631.9277,813.6631" style="stroke:#4F5D75;stroke-width:1;" /><text fill="#2D3142" font-family="Arial" font-size="14" lengthAdjust="spacing" textLength="354.0195" x="631.9277" y="795.6963">kiểm user / PasswordHash không NULL rồi BCrypt.Verify</text></g><path d="M108.6787,828.6631 L167.0166,828.6631 L167.0166,836.7617 L157.0166,846.7617 L105.6787,846.7617 L105.6787,831.6631 A3,3 0 0 1 108.6787,828.6631" fill="#EEEEEE" style="stroke:#000000;stroke-width:1.5;" /><rect fill="none" height="217.8877" rx="3" ry="3" style="stroke:#000000;stroke-width:1.5;" width="1139.416" x="105.6787" y="828.6631" /><text fill="#2D3142" font-family="Arial" font-size="14" font-weight="bold" lengthAdjust="spacing" textLength="16.3379" x="120.6787" y="842.7949">alt</text><text fill="#2D3142" font-family="Arial" font-size="14" font-weight="bold" lengthAdjust="spacing" textLength="92.5381" x="182.0166" y="843.7949">[sai thông tin]</text><g class="message" data-participant-1="Service" data-participant-2="Controller"><polygon fill="#4F5D75" points="422.0459,865.959,412.0459,869.959,422.0459,873.959,418.0459,869.959" style="stroke:#4F5D75;stroke-width:1;" /><line style="stroke:#4F5D75;stroke-width:1;stroke-dasharray:2.0,2.0;" x1="416.0459" x2="623.9277" y1="869.959" y2="869.959" /><text fill="#2D3142" font-family="Arial" font-size="14" lengthAdjust="spacing" textLength="189.8818" x="428.0459" y="864.9922">UnauthorizedAccessException</text></g><g class="message" data-participant-1="Controller" data-participant-2="Web"><polygon fill="#4F5D75" points="199.4473,896.0576,189.4473,900.0576,199.4473,904.0576,195.4473,900.0576" style="stroke:#4F5D75;stroke-width:1;" /><line style="stroke:#4F5D75;stroke-width:1;stroke-dasharray:2.0,2.0;" x1="193.4473" x2="410.0459" y1="900.0576" y2="900.0576" /><text fill="#2D3142" font-family="Arial" font-size="14" lengthAdjust="spacing" textLength="98.834" x="205.4473" y="895.0908">middleware 401</text></g><line style="stroke:#000000;stroke-width:1;stroke-dasharray:2.0,2.0;" x1="105.6787" x2="1245.0947" y1="909.0576" y2="909.0576" /><text fill="#2D3142" font-family="Arial" font-size="14" font-weight="bold" lengthAdjust="spacing" textLength="43.5313" x="110.6787" y="922.1895">[đúng]</text><g class="message" data-participant-1="Service" data-participant-2="JWT"><polygon fill="#4F5D75" points="1154.6226,944.2549,1164.6226,948.2549,1154.6226,952.2549,1158.6226,948.2549" style="stroke:#4F5D75;stroke-width:1;" /><line style="stroke:#4F5D75;stroke-width:1;" x1="624.9277" x2="1160.6226" y1="948.2549" y2="948.2549" /><text fill="#2D3142" font-family="Arial" font-size="14" lengthAdjust="spacing" textLength="133.8408" x="631.9277" y="943.2881">GenerateToken(user)</text></g><g class="message" data-participant-1="JWT" data-participant-2="Service"><polygon fill="#4F5D75" points="635.9277,974.3535,625.9277,978.3535,635.9277,982.3535,631.9277,978.3535" style="stroke:#4F5D75;stroke-width:1;" /><line style="stroke:#4F5D75;stroke-width:1;stroke-dasharray:2.0,2.0;" x1="629.9277" x2="1165.6226" y1="978.3535" y2="978.3535" /><text fill="#2D3142" font-family="Arial" font-size="14" lengthAdjust="spacing" textLength="73.9102" x="641.9277" y="973.3867">signed JWT</text></g><g class="message" data-participant-1="Service" data-participant-2="Controller"><polygon fill="#4F5D75" points="422.0459,1004.4521,412.0459,1008.4521,422.0459,1012.4521,418.0459,1008.4521" style="stroke:#4F5D75;stroke-width:1;" /><line style="stroke:#4F5D75;stroke-width:1;stroke-dasharray:2.0,2.0;" x1="416.0459" x2="623.9277" y1="1008.4521" y2="1008.4521" /><text fill="#2D3142" font-family="Arial" font-size="14" lengthAdjust="spacing" textLength="91.8408" x="428.0459" y="1003.4854">AuthResponse</text></g><g class="message" data-participant-1="Controller" data-participant-2="Web"><polygon fill="#4F5D75" points="199.4473,1034.5508,189.4473,1038.5508,199.4473,1042.5508,195.4473,1038.5508" style="stroke:#4F5D75;stroke-width:1;" /><line style="stroke:#4F5D75;stroke-width:1;stroke-dasharray:2.0,2.0;" x1="193.4473" x2="410.0459" y1="1038.5508" y2="1038.5508" /><text fill="#2D3142" font-family="Arial" font-size="14" lengthAdjust="spacing" textLength="128.7959" x="205.4473" y="1033.584">200 token + UserDto</text></g><g class="message" data-participant-1="Web" data-participant-2="Web"><line style="stroke:#4F5D75;stroke-width:1;" x1="188.4473" x2="230.4473" y1="1082.6494" y2="1082.6494" /><line style="stroke:#4F5D75;stroke-width:1;" x1="230.4473" x2="230.4473" y1="1082.6494" y2="1095.6494" /><line style="stroke:#4F5D75;stroke-width:1;" x1="189.4473" x2="230.4473" y1="1095.6494" y2="1095.6494" /><polygon fill="#4F5D75" points="199.4473,1091.6494,189.4473,1095.6494,199.4473,1099.6494,195.4473,1095.6494" style="stroke:#4F5D75;stroke-width:1;" /><text fill="#2D3142" font-family="Arial" font-size="14" lengthAdjust="spacing" textLength="208.5986" x="195.4473" y="1077.6826">saveAuthSession nếu thành công</text></g><g class="message" data-participant-1="Web" data-participant-2="User"><polygon fill="#4F5D75" points="33.7793,1121.748,23.7793,1125.748,33.7793,1129.748,29.7793,1125.748" style="stroke:#4F5D75;stroke-width:1;" /><line style="stroke:#4F5D75;stroke-width:1;stroke-dasharray:2.0,2.0;" x1="27.7793" x2="187.4473" y1="1125.748" y2="1125.748" /><text fill="#2D3142" font-family="Arial" font-size="14" lengthAdjust="spacing" textLength="141.668" x="39.7793" y="1120.7813">kết quả đăng nhập / lỗi</text></g><!--SRC=[pLLDRnCn4BtlhnY52mYLfgM0r0DIafO2AYKq3JqxzYHhnR4NsziGJaZy0WGILwIUaP10Gag5EBJYVuHVmdYpRJOVJSkDH96IdUStCs_UEAuhTS8iwq6ByMx7cbIBcb76metslV2Et0L2O9kboZyosk-n7aAfOYLJfSM8Xdo3iBQnE9XdM1TtrpRM2v2AjQQV1pVQzyI3OdeNCs7wKdUWpPJ3GYIhcXkhqSBzmdEkc7CLxwrifHwVSAEpgie5ICzemsDhg9rPrZtZiJeh2lBmdaKPAz3cY5QRbtanXSDNAMgETMQzv39Xsi_HjhFN5OUAMUQaOzpB8-a7LrDV89VoESyMj3zVPmPRofHDuMgcCMmfK-gGCtUDgiw1IzaiSizqHrs3Rm9Ttgcq_3fqEMu1bvTU8JJouSEVjn-XMLifhy7P-xDtvFpkwKzOpHwjdp_IyMZu9ObegiJJT6YZPE8PAEsQZjJFZ62A3hBKnvL4be0vECJM5B92iHhjfZLAqHuHOl9h3jX0UoIfG4BbNoF1F6kHw50AHUnZOfoaaWQKjcwSxrXilDZDCczLf_YUzls1wQBUGTfV5heWpDF3WoZmmCh3K2biWajRFUc1MnIeFLqyBcBAqsWwqdagCOCHkj339jIVDmvWbILoDRI-EW4NK7Jcl9rDsCyH5JVGFBe846QhIk7jrnHrrS5sZqcLOoYmCiM16IY2K1u688tgz1ZuwRS89eopfJxHHqn9yJm98aYZjrzpJC8NEbIizaAGdXH2OPzPX8roEGAawolFn-FVNzbimcA9rPeT9FxEO-RYEgrTdwmOV1K4fpmuzX7CjLyH8ckQi0rsXBMObWAfqtaD78N5D0EDb0Bvb34R-KrQL7kBO24sGo0x6aNcWoMY1I_keqkCfglx4ftMosNm8HlSplhQyeR4qYBA15DXFwvbdXnvcNEoHRl4DZleh_1C409YCnh-uA1JfQB5S-lAqScxtXXDUvMFBemHkl7fTxeEzfgxks179n_a-P1VefNjmTYEZadmOw0FpLokR5E7fesbFqnHuHoT-pT3hkM69EiFTUT_Tm9zSWVabmtPTtpFEKSTWnuDVwL1kSywfhqY_SPuEf0j3Ks641vUfQFXyVJDJ7DIevDFyYy0]--></g></svg>
