<svg xmlns="http://www.w3.org/2000/svg" xmlns:xlink="http://www.w3.org/1999/xlink" contentStyleType="text/css" data-diagram-type="DESCRIPTION" height="820px" preserveAspectRatio="none" style="width:985px;height:820px;background:#F5F5F5;" version="1.1" viewBox="0 0 985 820" width="985px" zoomAndPan="magnify" role="img" aria-labelledby="dfd_context-title dfd_context-desc"><title id="dfd_context-title">DFD Level 0 — Context (Yourdon/DeMarco)</title><desc id="dfd_context-desc">AgriVision source baseline 99d6e56; xem README và traceability cho nguồn và giới hạn.</desc><defs /><g><rect fill="#F5F5F5" height="820" style="stroke:none;stroke-width:1;" width="985" x="0" y="0" /><text fill="#2D3142" font-family="Arial" font-size="14" font-weight="bold" lengthAdjust="spacing" textLength="287.8066" x="341.6587" y="23.1318">DFD Level 0 — Context (Yourdon/DeMarco)</text><!--entity Guest--><g class="entity" data-entity="Guest" data-source-line="28" data-uid="ent0002" id="dfd_context-entity_Guest"><rect fill="#FFFFFF" height="36.0986" style="stroke:#2D3142;stroke-width:0.5;" width="59.6963" x="857" y="74.6586" /><text fill="#2D3142" font-family="Arial" font-size="14" lengthAdjust="spacing" textLength="39.6963" x="867" y="97.7905">Khách</text></g><!--entity User--><g class="entity" data-entity="User" data-source-line="29" data-uid="ent0003" id="dfd_context-entity_User"><rect fill="#FFFFFF" height="36.0986" style="stroke:#2D3142;stroke-width:0.5;" width="184.124" x="795" y="222.6586" /><text fill="#2D3142" font-family="Arial" font-size="14" lengthAdjust="spacing" textLength="164.124" x="805" y="245.7905">Người dùng đã đăng nhập</text></g><!--entity Admin--><g class="entity" data-entity="Admin" data-source-line="30" data-uid="ent0004" id="dfd_context-entity_Admin"><rect fill="#FFFFFF" height="36.0986" style="stroke:#2D3142;stroke-width:0.5;" width="59.6826" x="857" y="346.6586" /><text fill="#2D3142" font-family="Arial" font-size="14" lengthAdjust="spacing" textLength="39.6826" x="867" y="369.7905">Admin</text></g><!--entity Ops--><g class="entity" data-entity="Ops" data-source-line="31" data-uid="ent0005" id="dfd_context-entity_Ops"><rect fill="#FFFFFF" height="36.0986" style="stroke:#2D3142;stroke-width:0.5;" width="121.0557" x="826.5" y="462.6586" /><text fill="#2D3142" font-family="Arial" font-size="14" lengthAdjust="spacing" textLength="101.0557" x="836.5" y="485.7905">Người vận hành</text></g><!--entity AI--><g class="entity" data-entity="AI" data-source-line="32" data-uid="ent0006" id="dfd_context-entity_AI"><rect fill="#FFFFFF" height="52.1973" style="stroke:#2D3142;stroke-width:0.5;" width="137.5098" x="818" y="580.6586" /><text fill="#2D3142" font-family="Arial" font-size="14" lengthAdjust="spacing" textLength="53.6689" x="828" y="603.7905">HTTP AI</text><text fill="#2D3142" font-family="Arial" font-size="14" lengthAdjust="spacing" textLength="117.5098" x="828" y="619.8891">contract phía client</text></g><!--entity Cloud--><g class="entity" data-entity="Cloud" data-source-line="33" data-uid="ent0007" id="dfd_context-entity_Cloud"><rect fill="#FFFFFF" height="36.0986" style="stroke:#2D3142;stroke-width:0.5;" width="86.9238" x="843.5" y="685.6586" /><text fill="#2D3142" font-family="Arial" font-size="14" lengthAdjust="spacing" textLength="66.9238" x="853.5" y="708.7905">Cloudinary</text></g><g class="entity" data-entity="System" data-source-line="34" data-uid="ent0008" id="dfd_context-entity_System"><ellipse cx="253.9177" cy="422.6924" fill="#FBECE5" rx="81.9177" ry="48.5338" style="stroke:#2D3142;stroke-width:0.5;" /><text fill="#2D3142" font-family="Arial" font-size="14" lengthAdjust="spacing" textLength="7.7861" x="250.0246" y="401.627">0</text><text fill="#2D3142" font-family="Arial" font-size="14" lengthAdjust="spacing" textLength="63.0273" x="222.404" y="417.7256">AgriVision</text><text fill="#2D3142" font-family="Arial" font-size="14" lengthAdjust="spacing" textLength="99.6064" x="204.1145" y="433.8243">web + API + DB</text><text fill="#2D3142" font-family="Arial" font-size="14" lengthAdjust="spacing" textLength="91.4443" x="208.1955" y="449.9229">+ local storage</text></g><g class="entity" data-entity="GMN21" data-source-line="48" data-uid="ent0022" id="dfd_context-entity_GMN21"><path d="M6,509.6586 L6,561.9545 A3,3 0 0 0 9,564.9545 L498.585,564.9545 A3,3 0 0 0 501.585,561.9545 L501.585,516.6586 L491.585,506.6586 L258,506.6586 L254,471.4786 L250,506.6586 L9,506.6586 A3,3 0 0 0 6,509.6586" fill="#ECECEC" style="stroke:#BFC0C0;stroke-width:0.5;" /><path d="M491.585,506.6586 L491.585,515.1586 A1.5,1.5 0 0 0 493.085,516.6586 L501.585,516.6586 L491.585,506.6586" fill="#ECECEC" style="stroke:#BFC0C0;stroke-width:0.5;" /><text fill="#2D3142" font-family="Arial" font-size="14" lengthAdjust="spacing" textLength="474.585" x="12" y="524.7905">Web chính chỉ mở sau đăng nhập/restore; khách gọi API công khai trực tiếp.</text><text fill="#2D3142" font-family="Arial" font-size="14" lengthAdjust="spacing" textLength="359.5361" x="12" y="540.8891">DB / browser storage / local ảnh nằm bên trong boundary.</text><text fill="#2D3142" font-family="Arial" font-size="14" lengthAdjust="spacing" textLength="425.7285" x="12" y="556.9877">AI server chưa xác minh; model không tự thêm thành external entity.</text></g><!--link Guest to System--><g class="link" data-entity-1="Guest" data-entity-2="System" data-source-line="35" data-uid="lnk9" id="dfd_context-link_Guest_System"><path d="M856.95,103.3186 C832.61,111.9986 796.85,124.1486 765,132.6586 C662.86,159.9686 626.71,133.6686 532,180.6586 C432.47,230.0486 344.2471,319.6061 295.3971,374.7861" fill="none" id="dfd_context-Guest-to-System" style="stroke:#4F5D75;stroke-width:1;" /><polygon fill="#4F5D75" points="291.42,379.2786,300.3807,375.1913,294.7343,375.5349,294.3907,369.8885,291.42,379.2786" style="stroke:#4F5D75;stroke-width:1;" /><text fill="#2D3142" font-family="Arial" font-size="14" lengthAdjust="spacing" textLength="125.2891" x="585.8857" y="112.7905">credentials trên web</text><text fill="#2D3142" font-family="Arial" font-size="14" lengthAdjust="spacing" textLength="214.0605" x="541.5" y="128.8891">ảnh / ID / tra cứu qua API trực tiếp</text></g><!--link System to Guest--><g class="link" data-entity-1="System" data-entity-2="Guest" data-source-line="36" data-uid="lnk10" id="dfd_context-link_System_Guest"><path d="M277.48,375.9886 C316.86,300.3286 406.26,153.4886 532,94.6586 C642.22,43.0986 787.871,68.7181 850.851,83.6081" fill="none" id="dfd_context-System-to-Guest" style="stroke:#4F5D75;stroke-width:1;" /><polygon fill="#4F5D75" points="856.69,84.9886,848.8518,79.0252,851.8241,83.8382,847.0111,86.8106,856.69,84.9886" style="stroke:#4F5D75;stroke-width:1;" /><text fill="#2D3142" font-family="Arial" font-size="14" lengthAdjust="spacing" textLength="185.1855" x="556" y="60.7905">JWT / kết quả / danh mục / lỗi</text></g><!--link User to System--><g class="link" data-entity-1="User" data-entity-2="System" data-source-line="37" data-uid="lnk11" id="dfd_context-link_User_System"><path d="M834.15,258.7586 C812.84,265.9386 787.85,274.0486 765,280.6586 C662.49,310.3186 634.87,310.2786 532,338.6586 C461.76,358.0386 387.9451,380.6232 332.1751,398.1132" fill="none" id="dfd_context-User-to-System" style="stroke:#4F5D75;stroke-width:1;" /><polygon fill="#4F5D75" points="326.45,399.9086,336.2346,401.0322,331.2209,398.4124,333.8406,393.3988,326.45,399.9086" style="stroke:#4F5D75;stroke-width:1;" /><text fill="#2D3142" font-family="Arial" font-size="14" lengthAdjust="spacing" textLength="231.7178" x="533" y="260.7905">JWT / ảnh / yêu cầu hồ sơ / profile UI</text><text fill="#2D3142" font-family="Arial" font-size="14" lengthAdjust="spacing" textLength="204.6953" x="546.5112" y="276.8891">history / xóa / đăng xuất / tra cứu</text></g><!--link System to User--><g class="link" data-entity-1="System" data-entity-2="User" data-source-line="38" data-uid="lnk12" id="dfd_context-link_System_User"><path d="M299.35,382.0886 C350.86,337.9586 440.52,270.0586 532,242.6586 C618.4,216.7886 716.1007,219.3123 788.8507,226.7023" fill="none" id="dfd_context-System-to-User" style="stroke:#4F5D75;stroke-width:1;" /><polygon fill="#4F5D75" points="794.82,227.3086,786.2703,222.4196,789.8456,226.8033,785.4618,230.3786,794.82,227.3086" style="stroke:#4F5D75;stroke-width:1;" /><text fill="#2D3142" font-family="Arial" font-size="14" lengthAdjust="spacing" textLength="146.1387" x="575.5" y="202.7905">hồ sơ / history / kết quả</text><text fill="#2D3142" font-family="Arial" font-size="14" lengthAdjust="spacing" textLength="82.4961" x="607.3213" y="218.8891">xác nhận / lỗi</text></g><!--link Admin to System--><g class="link" data-entity-1="Admin" data-entity-2="System" data-source-line="39" data-uid="lnk13" id="dfd_context-link_Admin_System"><path d="M856.53,374.2986 C832.25,381.7886 796.77,391.7086 765,396.6586 C614.99,420.0586 443.46,423.794 342.35,423.704" fill="none" id="dfd_context-Admin-to-System" style="stroke:#4F5D75;stroke-width:1;" /><polygon fill="#4F5D75" points="336.35,423.6986,345.3464,427.7066,341.35,423.7031,345.3536,419.7066,336.35,423.6986" style="stroke:#4F5D75;stroke-width:1;" /><text fill="#2D3142" font-family="Arial" font-size="14" lengthAdjust="spacing" textLength="196.8887" x="550.5" y="392.7905">JWT / dữ liệu cây-bệnh / ID xóa</text></g><!--link System to Admin--><g class="link" data-entity-1="System" data-entity-2="Admin" data-source-line="40" data-uid="lnk14" id="dfd_context-link_System_Admin"><path d="M331.31,406.3986 C386.72,395.3386 463.65,381.5186 532,374.6586 C651.91,362.6386 789.7107,363.0799 850.5407,363.9799" fill="none" id="dfd_context-System-to-Admin" style="stroke:#4F5D75;stroke-width:1;" /><polygon fill="#4F5D75" points="856.54,364.0686,847.6002,359.9359,851.5405,363.9947,847.4818,367.9351,856.54,364.0686" style="stroke:#4F5D75;stroke-width:1;" /><text fill="#2D3142" font-family="Arial" font-size="14" lengthAdjust="spacing" textLength="198.4541" x="549.5" y="360.7905">danh mục / kết quả thao tác / lỗi</text></g><!--link Ops to System--><g class="link" data-entity-1="Ops" data-entity-2="System" data-source-line="41" data-uid="lnk15" id="dfd_context-link_Ops_System"><path d="M829.97,498.7086 C809.72,504.3686 786.55,509.8586 765,512.6586 C662.31,526.0086 629.72,546.9386 532,512.6586 C515.89,507.0086 517.24,496.3686 502,488.6586 C448.82,461.7886 389.3754,446.1158 339.2554,436.1758" fill="none" id="dfd_context-Ops-to-System" style="stroke:#4F5D75;stroke-width:1;" /><polygon fill="#4F5D75" points="333.37,435.0086,341.4199,440.683,338.2745,435.9813,342.9762,432.8359,333.37,435.0086" style="stroke:#4F5D75;stroke-width:1;" /><text fill="#2D3142" font-family="Arial" font-size="14" lengthAdjust="spacing" textLength="139.3027" x="579" y="508.7905">yêu cầu health DB / AI</text></g><!--link System to Ops--><g class="link" data-entity-1="System" data-entity-2="Ops" data-source-line="42" data-uid="lnk16" id="dfd_context-link_System_Ops"><path d="M335.24,430.0386 C463.53,441.8286 706.0052,464.1193 820.0952,474.6093" fill="none" id="dfd_context-System-to-Ops" style="stroke:#4F5D75;stroke-width:1;" /><polygon fill="#4F5D75" points="826.07,475.1586,817.474,470.3514,821.091,474.7008,816.7416,478.3178,826.07,475.1586" style="stroke:#4F5D75;stroke-width:1;" /><text fill="#2D3142" font-family="Arial" font-size="14" lengthAdjust="spacing" textLength="92.5928" x="602.5" y="444.7905">status / checks</text></g><!--link System to AI--><g class="link" data-entity-1="System" data-entity-2="AI" data-source-line="43" data-uid="lnk17" id="dfd_context-link_System_AI"><path d="M335.91,426.4986 C388.67,432.9286 456,449.0586 502,488.6586 C527.34,510.4786 505.36,537.4486 532,557.6586 C575.68,590.8086 721.7945,601.3075 811.7945,604.7775" fill="none" id="dfd_context-System-to-AI" style="stroke:#4F5D75;stroke-width:1;" /><polygon fill="#4F5D75" points="817.79,605.0086,808.9508,600.6649,812.7937,604.816,808.6426,608.6589,817.79,605.0086" style="stroke:#4F5D75;stroke-width:1;" /><text fill="#2D3142" font-family="Arial" font-size="14" lengthAdjust="spacing" textLength="183.668" x="557" y="553.7905">multipart ảnh / yêu cầu health</text></g><!--link AI to System--><g class="link" data-entity-1="AI" data-entity-2="System" data-source-line="44" data-uid="lnk18" id="dfd_context-link_AI_System"><path d="M817.78,621.4386 C727.38,639.2886 574.38,662.9186 532,628.6586 C482.51,588.6586 545.86,534.7686 502,488.6586 C459.55,444.0386 396.535,428.9456 342.245,423.9756" fill="none" id="dfd_context-AI-to-System" style="stroke:#4F5D75;stroke-width:1;" /><polygon fill="#4F5D75" points="336.27,423.4286,344.8679,428.2325,341.2492,423.8845,345.5972,420.2658,336.27,423.4286" style="stroke:#4F5D75;stroke-width:1;" /><text fill="#2D3142" font-family="Arial" font-size="14" lengthAdjust="spacing" textLength="191.3926" x="553" y="624.7905">JSON prediction / HTTP status</text></g><!--link System to Cloud--><g class="link" data-entity-1="System" data-entity-2="Cloud" data-source-line="45" data-uid="lnk19" id="dfd_context-link_System_Cloud"><path d="M336.09,422.7086 C390.84,427.2786 460.45,442.7586 502,488.6586 C557.6,550.0886 471.28,616.2886 532,672.6586 C576.2,713.6886 753.3467,710.4223 837.4467,706.4423" fill="none" id="dfd_context-System-to-Cloud" style="stroke:#4F5D75;stroke-width:1;" /><polygon fill="#4F5D75" points="843.44,706.1586,834.261,702.5885,838.4456,706.395,834.6391,710.5796,843.44,706.1586" style="stroke:#4F5D75;stroke-width:1;" /><text fill="#2D3142" font-family="Arial" font-size="14" lengthAdjust="spacing" textLength="142.4199" x="577.5" y="668.7905">ảnh / public ID cần xóa</text></g><!--link Cloud to System--><g class="link" data-entity-1="Cloud" data-entity-2="System" data-source-line="46" data-uid="lnk20" id="dfd_context-link_Cloud_System"><path d="M850.35,721.6686 C779.91,754.3986 621.95,813.2686 532,733.6586 C449.85,660.9586 573.99,571.4386 502,488.6586 C461.22,441.7686 397.162,426.8932 342.052,422.6132" fill="none" id="dfd_context-Cloud-to-System" style="stroke:#4F5D75;stroke-width:1;" /><polygon fill="#4F5D75" points="336.07,422.1486,344.7333,426.8335,341.055,422.5358,345.3527,418.8575,336.07,422.1486" style="stroke:#4F5D75;stroke-width:1;" /><text fill="#2D3142" font-family="Arial" font-size="14" lengthAdjust="spacing" textLength="178.1992" x="559.5" y="729.7905">URL / public ID / kết quả xóa</text></g><!--SRC=[ZLP1Qnj75BxlhtWebvRWs4dj1XGeo5RSgaaTKziD1Lr6ixFQGQiPPUQjRVLKwA7qq4De8AVIfY6K6a8JsakzXnus-7ziVqdVp4hEh2raIx3QtVdUzttpvhqPsP5K4sRO60QCZuP6vohUqfasS2FPSD_8dYDYaR0ymssjS8UD1RGwHhAijHYn9xyHS7jzyU1CuKxyqUtrEm6aOum-cWsk9nlntL3UfYpMHr8D8M6P5S68TysrKSB0ny5xdZ5hEuX63d8KFQwLTxKMGCPQQPuQJTEvoBgZKMnUJ8hWxdiHfKqip0mnIFWQ3oMiU98BnSKkCoYvd325bsWJ_xaYA5Ivb3h6KHvAd5vDVOvSocUHBPZ-PPyUjfJ9hyBLJ3LiALDk1MVs6gxcmALiHd1aQfXTW-yzTFbCfU7NePlX5d2Xn4n0TxiB3yMXo60D_lls6MnHouXZX0- -rhc9jLhjYY-OuVh3A1C90cemSfWYnD8PbLf5vuQXzI0jN_2q1Sp2fxcm68xj3C_ULCNF4kBo7-ghTq_BbtHvzntTgxGwVJtnOGTMc22g4u-bSk_zpKAwGufLa9Q_gbhuqSI6kC_sztUXq-ihwaWqL8ymISlNZ4f02eK-ejCB0hOodSTICJDrG_ufcYqnjDRwgZCqyYjfQU9zTIG6S1CwkpswTZVxwYPachEC2bKRDXIUV6zgKOpXnlRc_Qtx6v5F2woiV38VQ0Ct8YOhjBrPG5EUA23UlgfENweKLg7NfGiv1ruLV-Jm96TU4KrLlEM0iZhzTnBDo1nlhT26pn_lK-28Xf62Y8sUOaQKuwfunUaXguhdCd89R_gf0-Voq_8a9-dJttD8g-8di6SlwEt4w4HIjWueiQbqyvtIs-FoBqO_irKz9j5N69eFRNhTTiZvdYSmtLV7L59rXQXpqtLPB70TLyMVaCcg-9vCbxzDLmPqEq-ZinTQg5dQpQo42SEKQK2dFnUcuchAXkaHBCEK2e7GL5A1a8jg- -qhjpJ8Ky57jk6aH-DZEh1eypMuCFUUF29WSzPxZtPeCKGiVIzIZA_tMYfKy8LC0NFgIJx897TPSVogpaqDQWWSVFcmWMuco4SfEfLWe17r67Go2uqUKszmwZHIuxJ8FxW4_mAMvSscNpN2hRgu1oE_Ty2mAdwKli9v-JV1HYcJpMA_5VaK3-ZuTZKqQpQtHBxvwXbI-xob_nckcz1euXcuJPAw-fRB8SKTKYXFpzumy0L6bP3UenCwfesGd3Xb94qgWV9axAwqlG3jYy8eqd3jYaGbL0nk-ly3]--></g></svg>
