<svg xmlns="http://www.w3.org/2000/svg" xmlns:xlink="http://www.w3.org/1999/xlink" contentStyleType="text/css" data-diagram-type="DESCRIPTION" height="1144px" preserveAspectRatio="none" style="width:1710px;height:1144px;background:#F5F5F5;" version="1.1" viewBox="0 0 1710 1144" width="1710px" zoomAndPan="magnify" role="img" aria-labelledby="dfd_level_2_prediction-title dfd_level_2_prediction-desc"><title id="dfd_level_2_prediction-title">DFD Level 2 — process 2: phân loại một ảnh — UC-05</title><desc id="dfd_level_2_prediction-desc">AgriVision source baseline 99d6e56; xem README và traceability cho nguồn và giới hạn.</desc><defs /><g><rect fill="#F5F5F5" height="1144" style="stroke:none;stroke-width:1;" width="1710" x="0" y="0" /><text fill="#2D3142" font-family="Arial" font-size="14" font-weight="bold" lengthAdjust="spacing" textLength="357.8545" x="669.248" y="23.1318">DFD Level 2 — process 2: phân loại một ảnh — UC-05</text><!--entity Human--><g class="entity" data-entity="Human" data-source-line="28" data-uid="ent0002" id="dfd_level_2_prediction-entity_Human"><rect fill="#FFFFFF" height="52.1973" style="stroke:#2D3142;stroke-width:0.5;" width="186.5439" x="917.5" y="44.0986" /><text fill="#2D3142" font-family="Arial" font-size="14" lengthAdjust="spacing" textLength="159.5508" x="927.5" y="67.2305">User: web sau đăng nhập</text><text fill="#2D3142" font-family="Arial" font-size="14" lengthAdjust="spacing" textLength="166.5439" x="927.5" y="83.3291">Khách / User: API trực tiếp</text></g><!--entity AI--><g class="entity" data-entity="AI" data-source-line="29" data-uid="ent0003" id="dfd_level_2_prediction-entity_AI"><rect fill="#FFFFFF" height="52.1973" style="stroke:#2D3142;stroke-width:0.5;" width="154.6406" x="425.5" y="771.0986" /><text fill="#2D3142" font-family="Arial" font-size="14" lengthAdjust="spacing" textLength="53.6689" x="435.5" y="794.2305">HTTP AI</text><text fill="#2D3142" font-family="Arial" font-size="14" lengthAdjust="spacing" textLength="134.6406" x="435.5" y="810.3291">chưa xác minh server</text></g><!--entity Cloud--><g class="entity" data-entity="Cloud" data-source-line="30" data-uid="ent0004" id="dfd_level_2_prediction-entity_Cloud"><rect fill="#FFFFFF" height="36.0986" style="stroke:#2D3142;stroke-width:0.5;" width="86.9238" x="620.5" y="627.0986" /><text fill="#2D3142" font-family="Arial" font-size="14" lengthAdjust="spacing" textLength="66.9238" x="630.5" y="650.2305">Cloudinary</text></g><!--entity D2--><g class="entity" data-entity="D2" data-source-line="31" data-uid="ent0005" id="dfd_level_2_prediction-entity_D2"><rect fill="#FFFFFF" height="52.1973" style="stroke:none;" width="237.6426" x="933" y="1075.0986" /><path d="M 933 1075.0986 h 237.6426 M 933 1127.2959 h 237.6426" style="fill:none;stroke:#2d3142;stroke-width:1;" /><text fill="#2D3142" font-family="Arial" font-size="14" lengthAdjust="spacing" textLength="217.6426" x="943" y="1114.3291">D2 | predictions / prediction_details</text></g><!--entity D3--><g class="entity" data-entity="D3" data-source-line="32" data-uid="ent0006" id="dfd_level_2_prediction-entity_D3"><rect fill="#FFFFFF" height="52.1973" style="stroke:none;" width="258.6631" x="533.5" y="923.0986" /><path d="M 533.5 923.0986 h 258.6631 M 533.5 975.2959 h 258.6631" style="fill:none;stroke:#2d3142;stroke-width:1;" /><text fill="#2D3142" font-family="Arial" font-size="14" lengthAdjust="spacing" textLength="238.6631" x="543.5" y="962.3291">D3 | plants / diseases / plant_diseases</text></g><!--entity D5--><g class="entity" data-entity="D5" data-source-line="33" data-uid="ent0007" id="dfd_level_2_prediction-entity_D5"><rect fill="#FFFFFF" height="52.1973" style="stroke:none;" width="131.8018" x="912" y="619.0986" /><path d="M 912 619.0986 h 131.8018 M 912 671.2959 h 131.8018" style="fill:none;stroke:#2d3142;stroke-width:1;" /><text fill="#2D3142" font-family="Arial" font-size="14" lengthAdjust="spacing" textLength="111.8018" x="922" y="658.3291">D5 | Local images</text></g><g class="entity" data-entity="P21" data-source-line="34" data-uid="ent0008" id="dfd_level_2_prediction-entity_P21"><ellipse cx="792.0141" cy="211.249" fill="#FFFFFF" rx="77.5141" ry="37.1504" style="stroke:#2D3142;stroke-width:0.5;" /><text fill="#2D3142" font-family="Arial" font-size="14" lengthAdjust="spacing" textLength="19.4619" x="782.2832" y="198.2329">2.1</text><text fill="#2D3142" font-family="Arial" font-size="14" lengthAdjust="spacing" textLength="93.3789" x="745.3247" y="214.3315">Chọn / preview</text><text fill="#2D3142" font-family="Arial" font-size="14" lengthAdjust="spacing" textLength="81.7305" x="751.1489" y="230.4301">nhận request</text></g><g class="entity" data-entity="P22" data-source-line="35" data-uid="ent0009" id="dfd_level_2_prediction-entity_P22"><ellipse cx="792.2111" cy="363.249" fill="#FFFFFF" rx="63.2111" ry="37.1504" style="stroke:#2D3142;stroke-width:0.5;" /><text fill="#2D3142" font-family="Arial" font-size="14" lengthAdjust="spacing" textLength="19.4619" x="782.4802" y="350.2329">2.2</text><text fill="#2D3142" font-family="Arial" font-size="14" lengthAdjust="spacing" textLength="53.6826" x="765.3698" y="366.3315">Kiểm file</text><text fill="#2D3142" font-family="Arial" font-size="14" lengthAdjust="spacing" textLength="73.1514" x="755.6354" y="382.4301">buffer bytes</text></g><g class="entity" data-entity="P23" data-source-line="36" data-uid="ent0010" id="dfd_level_2_prediction-entity_P23"><ellipse cx="710.8909" cy="503.8655" fill="#FFFFFF" rx="48.3909" ry="25.7669" style="stroke:#2D3142;stroke-width:0.5;" /><text fill="#2D3142" font-family="Arial" font-size="14" lengthAdjust="spacing" textLength="19.4619" x="701.1599" y="498.8987">2.3</text><text fill="#2D3142" font-family="Arial" font-size="14" lengthAdjust="spacing" textLength="52.1924" x="684.7947" y="514.9974">Lưu ảnh</text></g><g class="entity" data-entity="P24" data-source-line="37" data-uid="ent0011" id="dfd_level_2_prediction-entity_P24"><ellipse cx="320.861" cy="645.249" fill="#FBECE5" rx="75.861" ry="37.1504" style="stroke:#2D3142;stroke-width:0.5;" /><text fill="#2D3142" font-family="Arial" font-size="14" lengthAdjust="spacing" textLength="19.4619" x="311.13" y="632.2329">2.4</text><text fill="#2D3142" font-family="Arial" font-size="14" lengthAdjust="spacing" textLength="79.3447" x="281.1886" y="648.3315">Gọi HTTP AI</text><text fill="#2D3142" font-family="Arial" font-size="14" lengthAdjust="spacing" textLength="91.041" x="275.3405" y="664.4301">kiểm response</text></g><g class="entity" data-entity="P25" data-source-line="38" data-uid="ent0012" id="dfd_level_2_prediction-entity_P25"><ellipse cx="828.8084" cy="797.249" fill="#FFFFFF" rx="64.3084" ry="37.1504" style="stroke:#2D3142;stroke-width:0.5;" /><text fill="#2D3142" font-family="Arial" font-size="14" lengthAdjust="spacing" textLength="19.4619" x="819.0774" y="784.2329">2.5</text><text fill="#2D3142" font-family="Arial" font-size="14" lengthAdjust="spacing" textLength="53.7031" x="801.9568" y="800.3315">Mapping</text><text fill="#2D3142" font-family="Arial" font-size="14" lengthAdjust="spacing" textLength="74.7031" x="791.4568" y="816.4301">top-1 / top-k</text></g><g class="entity" data-entity="P26" data-source-line="39" data-uid="ent0013" id="dfd_level_2_prediction-entity_P26"><ellipse cx="1117.9089" cy="949.249" fill="#FFFFFF" rx="54.4089" ry="37.1504" style="stroke:#2D3142;stroke-width:0.5;" /><text fill="#2D3142" font-family="Arial" font-size="14" lengthAdjust="spacing" textLength="19.4619" x="1108.1779" y="936.2329">2.6</text><text fill="#2D3142" font-family="Arial" font-size="14" lengthAdjust="spacing" textLength="24.9443" x="1105.4367" y="952.3315">Lưu</text><text fill="#2D3142" font-family="Arial" font-size="14" lengthAdjust="spacing" textLength="60.7031" x="1087.5573" y="968.4301">prediction</text></g><g class="entity" data-entity="P27" data-source-line="40" data-uid="ent0014" id="dfd_level_2_prediction-entity_P27"><ellipse cx="1341.8895" cy="1101.249" fill="#FFFFFF" rx="54.3895" ry="37.1504" style="stroke:#2D3142;stroke-width:0.5;" /><text fill="#2D3142" font-family="Arial" font-size="14" lengthAdjust="spacing" textLength="19.4619" x="1332.1586" y="1088.2329">2.7</text><text fill="#2D3142" font-family="Arial" font-size="14" lengthAdjust="spacing" textLength="60.6758" x="1311.5516" y="1104.3315">Map DTO</text><text fill="#2D3142" font-family="Arial" font-size="14" lengthAdjust="spacing" textLength="45.1445" x="1319.3173" y="1120.4301">hiển thị</text></g><g class="entity" data-entity="GMN38" data-source-line="65" data-uid="ent0039" id="dfd_level_2_prediction-entity_GMN38"><path d="M6,771.0986 L6,823.3945 A3,3 0 0 0 9,826.3945 L386.5713,826.3945 A3,3 0 0 0 389.5713,823.3945 L389.5713,778.0986 L379.5713,768.0986 L9,768.0986 A3,3 0 0 0 6,771.0986" fill="#ECECEC" style="stroke:#BFC0C0;stroke-width:0.5;" /><path d="M379.5713,768.0986 L379.5713,776.5986 A1.5,1.5 0 0 0 381.0713,778.0986 L389.5713,778.0986 L379.5713,768.0986" fill="#ECECEC" style="stroke:#BFC0C0;stroke-width:1;" /><text fill="#2D3142" font-family="Arial" font-size="14" lengthAdjust="spacing" textLength="350.1641" x="12" y="786.2305">Preprocessing và model HTTP không có implementation</text><text fill="#2D3142" font-family="Arial" font-size="14" lengthAdjust="spacing" textLength="294.9297" x="12" y="802.3291">server trong checkout: không thêm process giả.</text><text fill="#2D3142" font-family="Arial" font-size="14" lengthAdjust="spacing" textLength="362.5713" x="12" y="818.4277">DFD mô tả dữ liệu; thứ tự/nhánh nằm ở activity/sequence.</text></g><!--link Human to P21--><g class="link" data-entity-1="Human" data-entity-2="P21" data-source-line="41" data-uid="lnk15" id="dfd_level_2_prediction-link_Human_P21"><path d="M917.41,72.3786 C824.06,75.8686 689.93,87.6586 657,126.0986 C630.96,156.4986 672.0012,177.6251 717.4512,191.7751" fill="none" id="dfd_level_2_prediction-Human-to-P21" style="stroke:#4F5D75;stroke-width:1;" /><polygon fill="#4F5D75" points="723.18,193.5586,715.7759,187.0641,718.406,192.0723,713.3978,194.7025,723.18,193.5586" style="stroke:#4F5D75;stroke-width:1;" /><text fill="#2D3142" font-family="Arial" font-size="14" lengthAdjust="spacing" textLength="136.9443" x="658" y="140.2305">một ảnh / JWT nếu có</text></g><!--link P21 to Human--><g class="link" data-entity-1="P21" data-entity-2="Human" data-source-line="42" data-uid="lnk16" id="dfd_level_2_prediction-link_P21_Human"><path d="M803.13,174.0486 C809.93,157.3786 820.22,138.5586 835,126.0986 C858.26,106.4986 882.7152,95.4971 911.5452,87.3671" fill="none" id="dfd_level_2_prediction-P21-to-Human" style="stroke:#4F5D75;stroke-width:1;" /><polygon fill="#4F5D75" points="917.32,85.7386,907.5722,84.3315,912.5077,87.0957,909.7435,92.0312,917.32,85.7386" style="stroke:#4F5D75;stroke-width:1;" /><text fill="#2D3142" font-family="Arial" font-size="14" lengthAdjust="spacing" textLength="148.6133" x="836" y="140.2305">lỗi MIME / size / decode</text></g><!--link P21 to P22--><g class="link" data-entity-1="P21" data-entity-2="P22" data-source-line="43" data-uid="lnk17" id="dfd_level_2_prediction-link_P21_P22"><path d="M792,248.4086 C792,271.9086 792,296.3786 792,319.8586" fill="none" id="dfd_level_2_prediction-P21-to-P22" style="stroke:#4F5D75;stroke-width:1;" /><polygon fill="#4F5D75" points="792,325.8586,796,316.8586,792,320.8586,788,316.8586,792,325.8586" style="stroke:#4F5D75;stroke-width:1;" /><text fill="#2D3142" font-family="Arial" font-size="14" lengthAdjust="spacing" textLength="180.5234" x="793" y="292.2305">multipart file / UserId nullable</text></g><!--link P22 to Human--><g class="link" data-entity-1="P22" data-entity-2="Human" data-source-line="44" data-uid="lnk18" id="dfd_level_2_prediction-link_P22_Human"><path d="M854.24,357.1686 C896.85,350.3386 951.06,334.1786 982,296.0986 C1029.31,237.8686 1023.146,147.6443 1016.446,102.2443" fill="none" id="dfd_level_2_prediction-P22-to-Human" style="stroke:#4F5D75;stroke-width:1;" /><polygon fill="#4F5D75" points="1015.57,96.3086,1012.9268,105.7962,1016.3,101.2551,1020.8411,104.6282,1015.57,96.3086" style="stroke:#4F5D75;stroke-width:1;" /><text fill="#2D3142" font-family="Arial" font-size="14" lengthAdjust="spacing" textLength="105.8408" x="1021" y="216.2305">lỗi file rỗng / đuôi</text></g><!--link P22 to P23--><g class="link" data-entity-1="P22" data-entity-2="P23" data-source-line="45" data-uid="lnk19" id="dfd_level_2_prediction-link_P22_P23"><path d="M771.98,398.4586 C757.36,423.5386 740.9299,451.724 727.9699,473.974" fill="none" id="dfd_level_2_prediction-P22-to-P23" style="stroke:#4F5D75;stroke-width:1;" /><polygon fill="#4F5D75" points="724.95,479.1586,732.9363,473.395,727.4666,474.8381,726.0234,469.3684,724.95,479.1586" style="stroke:#4F5D75;stroke-width:1;" /><text fill="#2D3142" font-family="Arial" font-size="14" lengthAdjust="spacing" textLength="147.8477" x="753" y="444.2305">bytes / filename / owner</text></g><!--link P23 to Cloud--><g class="link" data-entity-1="P23" data-entity-2="Cloud" data-source-line="46" data-uid="lnk20" id="dfd_level_2_prediction-link_P23_Cloud"><path d="M673.08,520.4786 C656.38,529.3886 638.44,542.3986 629,560.0986 C617.1,582.3986 629.9484,604.9967 644.1084,622.2867" fill="none" id="dfd_level_2_prediction-P23-to-Cloud" style="stroke:#4F5D75;stroke-width:1;" /><polygon fill="#4F5D75" points="647.91,626.9286,645.3022,617.4313,644.742,623.0603,639.1129,622.5001,647.91,626.9286" style="stroke:#4F5D75;stroke-width:1;" /><text fill="#2D3142" font-family="Arial" font-size="14" lengthAdjust="spacing" textLength="23.3584" x="630" y="574.2305">ảnh</text></g><!--link Cloud to P23--><g class="link" data-entity-1="Cloud" data-entity-2="P23" data-source-line="47" data-uid="lnk21" id="dfd_level_2_prediction-link_Cloud_P23"><path d="M669.81,626.9186 C678.04,602.5786 691.217,563.5921 700.677,535.6321" fill="none" id="dfd_level_2_prediction-Cloud-to-P23" style="stroke:#4F5D75;stroke-width:1;" /><polygon fill="#4F5D75" points="702.6,529.9486,695.9266,537.1919,700.9975,534.6849,703.5046,539.7559,702.6,529.9486" style="stroke:#4F5D75;stroke-width:1;" /><text fill="#2D3142" font-family="Arial" font-size="14" lengthAdjust="spacing" textLength="165.751" x="693" y="574.2305">URL / public ID / lỗi upload</text></g><!--link P23 to D5--><g class="link" data-entity-1="P23" data-entity-2="D5" data-source-line="48" data-uid="lnk22" id="dfd_level_2_prediction-link_P23_D5"><path d="M759.49,506.0386 C840.66,508.7586 998.58,519.2986 1033,560.0986 C1048.51,578.4886 1035.7757,597.4403 1016.6257,614.7103" fill="none" id="dfd_level_2_prediction-P23-to-D5" style="stroke:#4F5D75;stroke-width:1;" /><polygon fill="#4F5D75" points="1012.17,618.7286,1021.5324,615.6717,1015.8831,615.3801,1016.1747,609.7307,1012.17,618.7286" style="stroke:#4F5D75;stroke-width:1;" /><text fill="#2D3142" font-family="Arial" font-size="14" lengthAdjust="spacing" textLength="74.7168" x="1040" y="574.2305">ảnh fallback</text></g><!--link D5 to P23--><g class="link" data-entity-1="D5" data-entity-2="P23" data-source-line="49" data-uid="lnk23" id="dfd_level_2_prediction-link_D5_P23"><path d="M949.4,619.0886 C927.47,600.8586 895.82,576.5886 865,560.0986 C829.2,540.9486 791.091,527.7491 759.351,518.3091" fill="none" id="dfd_level_2_prediction-D5-to-P23" style="stroke:#4F5D75;stroke-width:1;" /><polygon fill="#4F5D75" points="753.6,516.5986,761.0862,522.9983,758.3925,518.024,763.3668,515.3303,753.6,516.5986" style="stroke:#4F5D75;stroke-width:1;" /><text fill="#2D3142" font-family="Arial" font-size="14" lengthAdjust="spacing" textLength="126.8271" x="896" y="574.2305">local URL / public ID</text></g><!--link P23 to P24--><g class="link" data-entity-1="P23" data-entity-2="P24" data-source-line="50" data-uid="lnk24" id="dfd_level_2_prediction-link_P23_P24"><path d="M662.71,507.1286 C577.92,511.5886 406.86,524.7886 360,560.0986 C344.59,571.7086 336.9803,585.2042 331.2003,602.3142" fill="none" id="dfd_level_2_prediction-P23-to-P24" style="stroke:#4F5D75;stroke-width:1;" /><polygon fill="#4F5D75" points="329.28,607.9986,335.95,600.7522,330.8802,603.2616,328.3708,598.1918,329.28,607.9986" style="stroke:#4F5D75;stroke-width:1;" /><text fill="#2D3142" font-family="Arial" font-size="14" lengthAdjust="spacing" textLength="255.2471" x="361" y="574.2305">bytes / filename / tham chiếu ảnh / owner</text></g><!--link P24 to AI--><g class="link" data-entity-1="P24" data-entity-2="AI" data-source-line="51" data-uid="lnk25" id="dfd_level_2_prediction-link_P24_AI"><path d="M294.73,679.9986 C285.41,696.3486 279.72,715.5286 291,730.0986 C323.6,772.2086 356.22,744.0586 407,760.0986 C417.44,763.3986 422.758,765.1471 433.398,768.9971" fill="none" id="dfd_level_2_prediction-P24-to-AI" style="stroke:#4F5D75;stroke-width:1;" /><polygon fill="#4F5D75" points="439.04,771.0386,431.938,764.215,434.3383,769.3374,429.216,771.7377,439.04,771.0386" style="stroke:#4F5D75;stroke-width:1;" /><text fill="#2D3142" font-family="Arial" font-size="14" lengthAdjust="spacing" textLength="167.2754" x="292" y="726.2305">POST /predict multipart file</text></g><!--link AI to P24--><g class="link" data-entity-1="AI" data-entity-2="P24" data-source-line="52" data-uid="lnk26" id="dfd_level_2_prediction-link_AI_P24"><path d="M496.43,770.9386 C490.54,752.6486 480.28,728.3386 464,712.0986 C442.42,690.5686 418.1053,677.4348 391.2153,667.0248" fill="none" id="dfd_level_2_prediction-AI-to-P24" style="stroke:#4F5D75;stroke-width:1;" /><polygon fill="#4F5D75" points="385.62,664.8586,392.5689,671.8381,390.2828,666.6637,395.4571,664.3776,385.62,664.8586" style="stroke:#4F5D75;stroke-width:1;" /><text fill="#2D3142" font-family="Arial" font-size="14" lengthAdjust="spacing" textLength="284.8262" x="479" y="726.2305">class_index / class_name / confidence / top_k</text></g><!--link P24 to Human--><g class="link" data-entity-1="P24" data-entity-2="Human" data-source-line="53" data-uid="lnk27" id="dfd_level_2_prediction-link_P24_Human"><path d="M303.36,609.0586 C291.12,581.5186 277,541.7986 277,505.0986 C277,210.0986 277,210.0986 277,210.0986 C277,145.6586 713.4456,98.0518 911.3156,79.7318" fill="none" id="dfd_level_2_prediction-P24-to-Human" style="stroke:#4F5D75;stroke-width:1;" /><polygon fill="#4F5D75" points="917.29,79.1786,907.9596,76.0254,912.3113,79.6396,908.6971,83.9913,917.29,79.1786" style="stroke:#4F5D75;stroke-width:1;" /><text fill="#2D3142" font-family="Arial" font-size="14" lengthAdjust="spacing" textLength="198.4063" x="278" y="368.2305">lỗi AI HTTP / timeout / response</text></g><!--link P24 to P25--><g class="link" data-entity-1="P24" data-entity-2="P25" data-source-line="54" data-uid="lnk28" id="dfd_level_2_prediction-link_P24_P25"><path d="M394.25,655.2586 C517.89,670.9286 756.16,702.1686 772,712.0986 C790.37,723.6086 801.3868,738.1805 810.8468,755.6805" fill="none" id="dfd_level_2_prediction-P24-to-P25" style="stroke:#4F5D75;stroke-width:1;" /><polygon fill="#4F5D75" points="813.7,760.9586,812.9389,751.1392,811.3223,756.5602,805.9014,754.9435,813.7,760.9586" style="stroke:#4F5D75;stroke-width:1;" /><text fill="#2D3142" font-family="Arial" font-size="14" lengthAdjust="spacing" textLength="271.585" x="794" y="726.2305">AiPredictionResult / tham chiếu ảnh / owner</text></g><!--link P25 to D3--><g class="link" data-entity-1="P25" data-entity-2="D3" data-source-line="55" data-uid="lnk29" id="dfd_level_2_prediction-link_P25_D3"><path d="M766.48,806.6186 C677.53,819.3786 523.32,844.0886 507,864.0986 C485.51,890.4386 506.0035,907.6319 542.6435,921.0019" fill="none" id="dfd_level_2_prediction-P25-to-D3" style="stroke:#4F5D75;stroke-width:1;" /><polygon fill="#4F5D75" points="548.28,923.0586,541.1965,916.2159,543.5829,921.3447,538.4541,923.7311,548.28,923.0586" style="stroke:#4F5D75;stroke-width:1;" /><text fill="#2D3142" font-family="Arial" font-size="14" lengthAdjust="spacing" textLength="264.5576" x="508" y="878.2305">class index / class name / truy vấn fallback</text></g><!--link D3 to P25--><g class="link" data-entity-1="D3" data-entity-2="P25" data-source-line="56" data-uid="lnk30" id="dfd_level_2_prediction-link_D3_P25"><path d="M718.67,922.9786 C738.56,912.2586 760.18,898.4286 777,882.0986 C791.4,868.1186 800.6176,854.6309 809.5076,838.4009" fill="none" id="dfd_level_2_prediction-D3-to-P25" style="stroke:#4F5D75;stroke-width:1;" /><polygon fill="#4F5D75" points="812.39,833.1386,804.5582,839.1104,809.988,837.5239,811.5746,842.9537,812.39,833.1386" style="stroke:#4F5D75;stroke-width:1;" /><text fill="#2D3142" font-family="Arial" font-size="14" lengthAdjust="spacing" textLength="191.4404" x="793" y="878.2305">PlantDisease / danh mục trống</text></g><!--link P25 to Human--><g class="link" data-entity-1="P25" data-entity-2="Human" data-source-line="57" data-uid="lnk31" id="dfd_level_2_prediction-link_P25_Human"><path d="M893.73,795.5486 C992.88,790.8986 1171,765.8786 1171,646.0986 C1171,210.0986 1171,210.0986 1171,210.0986 C1171,156.3786 1124.3227,121.4096 1079.6027,98.9696" fill="none" id="dfd_level_2_prediction-P25-to-Human" style="stroke:#4F5D75;stroke-width:1;" /><polygon fill="#4F5D75" points="1074.24,96.2786,1080.4901,103.8902,1078.7089,98.5211,1084.078,96.7399,1074.24,96.2786" style="stroke:#4F5D75;stroke-width:1;" /><text fill="#2D3142" font-family="Arial" font-size="14" lengthAdjust="spacing" textLength="159.5576" x="1172" y="444.2305">lỗi không có mapping nào</text></g><!--link P25 to P26--><g class="link" data-entity-1="P25" data-entity-2="P26" data-source-line="58" data-uid="lnk32" id="dfd_level_2_prediction-link_P25_P26"><path d="M883.83,816.8886 C916.32,828.8186 957.88,845.4886 993,864.0986 C1024.42,880.7486 1052.8784,899.8923 1077.1984,917.4823" fill="none" id="dfd_level_2_prediction-P25-to-P26" style="stroke:#4F5D75;stroke-width:1;" /><polygon fill="#4F5D75" points="1082.06,920.9986,1077.1117,912.4831,1078.0086,918.0684,1072.4233,918.9653,1082.06,920.9986" style="stroke:#4F5D75;stroke-width:1;" /><text fill="#2D3142" font-family="Arial" font-size="14" lengthAdjust="spacing" textLength="281.3125" x="1022" y="878.2305">Prediction + details / owner / image reference</text></g><!--link P26 to D2--><g class="link" data-entity-1="P26" data-entity-2="D2" data-source-line="59" data-uid="lnk33" id="dfd_level_2_prediction-link_P26_D2"><path d="M1065.41,958.8486 C1007.98,969.5886 921.54,989.6986 902,1016.0986 C882.47,1042.4886 901.8173,1059.5616 936.6273,1072.9016" fill="none" id="dfd_level_2_prediction-P26-to-D2" style="stroke:#4F5D75;stroke-width:1;" /><polygon fill="#4F5D75" points="942.23,1075.0486,935.2574,1068.0929,937.5611,1073.2594,932.3946,1075.5631,942.23,1075.0486" style="stroke:#4F5D75;stroke-width:1;" /><text fill="#2D3142" font-family="Arial" font-size="14" lengthAdjust="spacing" textLength="171.9717" x="903" y="1030.2305">Prediction / PredictionDetail</text></g><!--link D2 to P26--><g class="link" data-entity-1="D2" data-entity-2="P26" data-source-line="60" data-uid="lnk34" id="dfd_level_2_prediction-link_D2_P26"><path d="M1063.1,1074.8686 C1073.96,1050.1886 1088.1634,1017.9004 1100.2734,990.3804" fill="none" id="dfd_level_2_prediction-D2-to-P26" style="stroke:#4F5D75;stroke-width:1;" /><polygon fill="#4F5D75" points="1102.69,984.8886,1095.4039,991.5152,1100.6761,989.4651,1102.7263,994.7374,1102.69,984.8886" style="stroke:#4F5D75;stroke-width:1;" /><text fill="#2D3142" font-family="Arial" font-size="14" lengthAdjust="spacing" textLength="117.5098" x="1089" y="1030.2305">kết quả ghi / lỗi DB</text></g><!--link P26 to Human--><g class="link" data-entity-1="P26" data-entity-2="Human" data-source-line="61" data-uid="lnk35" id="dfd_level_2_prediction-link_P26_Human"><path d="M1171.61,941.0786 C1213.95,933.0986 1272.3,916.4186 1312,882.0986 C1343.73,854.6686 1355,840.0386 1355,798.0986 C1355,210.0986 1355,210.0986 1355,210.0986 C1355,155.9086 1212.2613,114.2362 1110.4013,91.1262" fill="none" id="dfd_level_2_prediction-P26-to-Human" style="stroke:#4F5D75;stroke-width:1;" /><polygon fill="#4F5D75" points="1104.55,89.7986,1112.4419,95.6908,1109.4261,90.9049,1114.212,87.8891,1104.55,89.7986" style="stroke:#4F5D75;stroke-width:1;" /><text fill="#2D3142" font-family="Arial" font-size="14" lengthAdjust="spacing" textLength="61.5029" x="1356" y="509.2305">lỗi lưu DB</text></g><!--link P26 to P27--><g class="link" data-entity-1="P26" data-entity-2="P27" data-source-line="62" data-uid="lnk36" id="dfd_level_2_prediction-link_P26_P27"><path d="M1156.25,975.7186 C1197.49,1003.3286 1257.7442,1043.6807 1298.9242,1071.2507" fill="none" id="dfd_level_2_prediction-P26-to-P27" style="stroke:#4F5D75;stroke-width:1;" /><polygon fill="#4F5D75" points="1303.91,1074.5886,1298.6567,1066.2578,1299.7552,1071.807,1294.206,1072.9055,1303.91,1074.5886" style="stroke:#4F5D75;stroke-width:1;" /><text fill="#2D3142" font-family="Arial" font-size="14" lengthAdjust="spacing" textLength="169.6953" x="1244" y="1030.2305">prediction đã lưu / mapping</text></g><!--link P27 to Human--><g class="link" data-entity-1="P27" data-entity-2="Human" data-source-line="63" data-uid="lnk37" id="dfd_level_2_prediction-link_P27_Human"><path d="M1382.46,1076.0686 C1420.29,1050.1886 1471,1005.2286 1471,950.0986 C1471,210.0986 1471,210.0986 1471,210.0986 C1471,134.2886 1245.099,96.7587 1110.599,80.9587" fill="none" id="dfd_level_2_prediction-P27-to-Human" style="stroke:#4F5D75;stroke-width:1;" /><polygon fill="#4F5D75" points="1104.64,80.2586,1113.1119,85.2813,1109.6059,80.842,1114.0452,77.336,1104.64,80.2586" style="stroke:#4F5D75;stroke-width:1;" /><text fill="#2D3142" font-family="Arial" font-size="14" lengthAdjust="spacing" textLength="230.3506" x="1472" y="574.2305">PredictionResultDto / kết quả hiển thị</text></g><!--link P24 to GMN38--><g class="link" data-entity-1="P24" data-entity-2="GMN38" data-source-line="65" data-uid="lnk40" id="dfd_level_2_prediction-link_P24_GMN38"><path d="M284.01,677.7086 C272.81,688.1186 260.87,700.1086 251,712.0986 C236.64,729.5386 223.1,751.1286 213.3,768.0486" fill="none" id="dfd_level_2_prediction-P24-GMN38" style="stroke:#4F5D75;stroke-width:1;stroke-dasharray:7.0,7.0;" /></g><!--SRC=[ZLRFQnj75BxlN_5mZiMMlP9iS8D1jkn6hPs8nAONWHdDZhI3PcSskxDoN7eevD13wI5G23qrgScXXTAO-cGTUb38_x7zI_fczeTMif0j7QJT-TxtVimtxqqyuZ8a4GcWJ-Xe6Ab4UWTAg0WU3PhcwyGbmcC3aWXzfAH-IW86Qws84x6s7F62VyTWgx5yCVVWUlMjXbk1jA98NUIBZK7JswcwZttYgGikXp0W8cQL5HirLP5a4MnNtbD1uhYbTSJxYMOTggIDQhC22PHKr8yKfhF8-bHfjhzO54RDTn6b8ez5EQ8_e9kqwY9cBnCcAUkII7FAGoBr7Tg1_TnZLFLoftI4QZxc-l9-wXAvaY_MP4dwT-Eqi9LCTXVkPyfWAvcIc54IFo2g0hYIBM9K4paK3-2RGLTdoYFw4BeSjuHBSoqOj8_QSCp6J80B__tm2uIHeYoEmTs5q9_-Ba6ezFOzXo2T_AeXlRsIliMT7QnlDXsjGj0A-afhXQUEc-2vaawP1AoTnIpQXGlMXvWayEdDfzTuggIVtluLzkGt_lGzzQ466QhLxO2Eqiar1StJst_3DI0nF4a2CaVvvFIq2wrEJrB_yqS2hv030ew18ScOHTQerQbO70YLU5oIwD8isQSgNzk5xp5nvd4RVOpnp9xEFQO95x5bHUJZnnxH9DOgOdjxSonrmoBmz1W2ZySCPM6vpBlpuaN6Kr_1qqIUOqM901wGOM7HNB38TGThxiPMJnxuwUHdcGK-vkoY9ss99Se93tUiBKVNtQgQkLX_davU1p3WWlLaFnaCiAlrBtNki-kwLNoz9uy_Vqmo4UI0UXNGwCclC0mEvGQDClw8nI7MbUL63NXqj7zuSDYi6ZTxyeI48VRSdaHPhMzXCkPtb1lDWRUpK7fojayvRBiAsx6Sq3vzrfE-2KM2naBzb6Dt72ijM5_VCxM1tJcLr-3hRqz1eWmJeDD_78CmoCnc5qGwUSlXf7DoYD3OD7lSTKQLnqee5j2GuYJ2hXffM-TSx1qFP284wGi3TvSmMp0UXhTuNcfuS9Bf3I-XM7a4sgt2HGELPapMG5tWP7BCie5PgIFGPkHaJpFpi-V7HZ59Nt0AdJR-ppmdeL34AqbGUZc3cLl236y7tyruX1Nh0bjfRlPxQQZQD_t9vxR2HSsB-1lMjjL1q-wp5wTGotTwePeE8cPER5y_vz9Zhv0gUygTuK0USC-CkKnNvwFIoNpPaT3A5r4yO2hH-A_GRsc2SaI35k-MydlEOWpilgooghNhHQmm5oiKXOcIInYdjnzafU3rYkEkwIZjhA4OrH5qWjBzG6ttV2E7fQlvt4R-z0RLX6g683jh8AVlL8d6usFOowJW2yYxNv43_jgcX2N1Nc7AwHWZcvKxRrkhFBGjYzDsAsv6M24DBnEi4GnzNggllLzIpaSlJFEfhE81nhLP1y0pChtAKBKYFyU0gbIBEzR6yLMRYwNQA1o9LwvYlAc1aPc33FcGDFKRJz_XnSx3-MbLKwam3qB10YRnrc96OZQRS8EKMVSP7Q6sTWi3xK__3ChXEqJrN6quPZO7qnlG9YmldVmD0cFxCVdI1lS7lfzSroIEKDn-x5FN0QIJtyexLwsursquJ6AtmKp-1m00]--></g></svg>
