<svg xmlns="http://www.w3.org/2000/svg" xmlns:xlink="http://www.w3.org/1999/xlink" contentStyleType="text/css" data-diagram-type="SEQUENCE" height="888px" preserveAspectRatio="none" style="width:1297px;height:888px;background:#F5F5F5;" version="1.1" viewBox="0 0 1297 888" width="1297px" zoomAndPan="magnify" role="img" aria-labelledby="sequence_delete-title sequence_delete-desc"><title id="sequence_delete-title">Sequence — UC-07 xóa prediction server</title><desc id="sequence_delete-desc">AgriVision source baseline 99d6e56; xem README và traceability cho nguồn và giới hạn.</desc><defs /><g><rect fill="#F5F5F5" height="888" style="stroke:none;stroke-width:1;" width="1297" x="0" y="0" /><text fill="#2D3142" font-family="Arial" font-size="14" font-weight="bold" lengthAdjust="spacing" textLength="273.875" x="512.6426" y="28.1318">Sequence — UC-07 xóa prediction server</text><rect fill="none" height="474.9727" rx="3" ry="3" style="stroke:#000000;stroke-width:1.5;" width="1122.4956" x="167.6646" y="285.6904" /><rect fill="none" height="363.4795" rx="3" ry="3" style="stroke:#000000;stroke-width:1.5;" width="1102.4956" x="177.6646" y="390.1836" /><rect fill="none" height="79.3945" rx="3" ry="3" style="stroke:#000000;stroke-width:1.5;" width="394.9912" x="708.8799" y="494.6768" /><g><title>Owner / Admin</title><rect fill="#000000" fill-opacity="0.00000" height="689.5645" width="8" x="50.293" y="118.1973" /><line style="stroke:#181818;stroke-width:0.5;stroke-dasharray:5.0,5.0;" x1="54" x2="54" y1="118.1973" y2="807.7617" /></g><g><title>App / predictionApi</title><rect fill="#000000" fill-opacity="0.00000" height="689.5645" width="8" x="249.4229" y="118.1973" /><line style="stroke:#181818;stroke-width:0.5;stroke-dasharray:5.0,5.0;" x1="252.6646" x2="252.6646" y1="118.1973" y2="807.7617" /></g><g><title>PredictionsController + middleware</title><rect fill="#000000" fill-opacity="0.00000" height="689.5645" width="8" x="494.7979" y="118.1973" /><line style="stroke:#181818;stroke-width:0.5;stroke-dasharray:5.0,5.0;" x1="498.0552" x2="498.0552" y1="118.1973" y2="807.7617" /></g><g><title>PredictionService</title><rect fill="#000000" fill-opacity="0.00000" height="689.5645" width="8" x="776.3486" y="118.1973" /><line style="stroke:#181818;stroke-width:0.5;stroke-dasharray:5.0,5.0;" x1="779.8799" x2="779.8799" y1="118.1973" y2="807.7617" /></g><g><title>IImageStorage</title><rect fill="#000000" fill-opacity="0.00000" height="689.5645" width="8" x="1036.9541" y="118.1973" /><line style="stroke:#181818;stroke-width:0.5;stroke-dasharray:5.0,5.0;" x1="1040.0371" x2="1040.0371" y1="118.1973" y2="807.7617" /></g><g><title>PredictionRepository / DB</title><rect fill="#000000" fill-opacity="0.00000" height="689.5645" width="8" x="1183.0156" y="118.1973" /><line style="stroke:#181818;stroke-width:0.5;stroke-dasharray:5.0,5.0;" x1="1186.8711" x2="1186.8711" y1="118.1973" y2="807.7617" /></g><g class="participant participant-head" data-participant="User"><text fill="#2D3142" font-family="Arial" font-size="14" lengthAdjust="spacing" textLength="92.5859" x="5" y="115.2305">Owner / Admin</text><ellipse cx="54.293" cy="50.5986" fill="#E2E2F0" rx="8" ry="8" style="stroke:#181818;stroke-width:0.5;" /><path d="M54.293,58.5986 L54.293,85.5986 M41.293,66.5986 L67.293,66.5986 M54.293,85.5986 L41.293,100.5986 M54.293,85.5986 L67.293,100.5986" fill="none" style="stroke:#181818;stroke-width:0.5;" /></g><g class="participant participant-tail" data-participant="User"><text fill="#2D3142" font-family="Arial" font-size="14" lengthAdjust="spacing" textLength="92.5859" x="5" y="819.8936">Owner / Admin</text><ellipse cx="54.293" cy="831.3604" fill="#E2E2F0" rx="8" ry="8" style="stroke:#181818;stroke-width:0.5;" /><path d="M54.293,839.3604 L54.293,866.3604 M41.293,847.3604 L67.293,847.3604 M54.293,866.3604 L41.293,881.3604 M54.293,866.3604 L67.293,881.3604" fill="none" style="stroke:#181818;stroke-width:0.5;" /></g><g class="participant participant-head" data-participant="Web"><rect fill="#FFFFFF" height="30.0986" rx="3" ry="3" style="stroke:#2D3142;stroke-width:0.5;" width="131.5166" x="187.6646" y="87.0986" /><text fill="#2D3142" font-family="Arial" font-size="14" lengthAdjust="spacing" textLength="117.5166" x="194.6646" y="107.2305">App / predictionApi</text></g><g class="participant participant-tail" data-participant="Web"><rect fill="#FFFFFF" height="30.0986" rx="3" ry="3" style="stroke:#2D3142;stroke-width:0.5;" width="131.5166" x="187.6646" y="806.7617" /><text fill="#2D3142" font-family="Arial" font-size="14" lengthAdjust="spacing" textLength="117.5166" x="194.6646" y="826.8936">App / predictionApi</text></g><g class="participant participant-head" data-participant="API"><rect fill="#FFFFFF" height="30.0986" rx="3" ry="3" style="stroke:#2D3142;stroke-width:0.5;" width="231.4854" x="383.0552" y="87.0986" /><text fill="#2D3142" font-family="Arial" font-size="14" lengthAdjust="spacing" textLength="217.4854" x="390.0552" y="107.2305">PredictionsController + middleware</text></g><g class="participant participant-tail" data-participant="API"><rect fill="#FFFFFF" height="30.0986" rx="3" ry="3" style="stroke:#2D3142;stroke-width:0.5;" width="231.4854" x="383.0552" y="806.7617" /><text fill="#2D3142" font-family="Arial" font-size="14" lengthAdjust="spacing" textLength="217.4854" x="390.0552" y="826.8936">PredictionsController + middleware</text></g><g class="participant participant-head" data-participant="Service"><rect fill="#FFFFFF" height="30.0986" rx="3" ry="3" style="stroke:#2D3142;stroke-width:0.5;" width="122.9375" x="718.8799" y="87.0986" /><text fill="#2D3142" font-family="Arial" font-size="14" lengthAdjust="spacing" textLength="108.9375" x="725.8799" y="107.2305">PredictionService</text></g><g class="participant participant-tail" data-participant="Service"><rect fill="#FFFFFF" height="30.0986" rx="3" ry="3" style="stroke:#2D3142;stroke-width:0.5;" width="122.9375" x="718.8799" y="806.7617" /><text fill="#2D3142" font-family="Arial" font-size="14" lengthAdjust="spacing" textLength="108.9375" x="725.8799" y="826.8936">PredictionService</text></g><g class="participant participant-head" data-participant="Storage"><rect fill="#FFFFFF" height="30.0986" rx="3" ry="3" style="stroke:#2D3142;stroke-width:0.5;" width="105.834" x="988.0371" y="87.0986" /><text fill="#2D3142" font-family="Arial" font-size="14" lengthAdjust="spacing" textLength="91.834" x="995.0371" y="107.2305">IImageStorage</text></g><g class="participant participant-tail" data-participant="Storage"><rect fill="#FFFFFF" height="30.0986" rx="3" ry="3" style="stroke:#2D3142;stroke-width:0.5;" width="105.834" x="988.0371" y="806.7617" /><text fill="#2D3142" font-family="Arial" font-size="14" lengthAdjust="spacing" textLength="91.834" x="995.0371" y="826.8936">IImageStorage</text></g><g class="participant participant-head" data-participant="DB"><text fill="#2D3142" font-family="Arial" font-size="14" lengthAdjust="spacing" textLength="160.2891" x="1103.8711" y="115.2305">PredictionRepository / DB</text><path d="M1169.0156,66.0986 C1169.0156,56.0986 1187.0156,56.0986 1187.0156,56.0986 C1187.0156,56.0986 1205.0156,56.0986 1205.0156,66.0986 L1205.0156,92.0986 C1205.0156,102.0986 1187.0156,102.0986 1187.0156,102.0986 C1187.0156,102.0986 1169.0156,102.0986 1169.0156,92.0986 L1169.0156,66.0986" fill="#E2E2F0" style="stroke:#181818;stroke-width:1.5;" /><path d="M1169.0156,66.0986 C1169.0156,76.0986 1187.0156,76.0986 1187.0156,76.0986 C1187.0156,76.0986 1205.0156,76.0986 1205.0156,66.0986" fill="none" style="stroke:#181818;stroke-width:1.5;" /></g><g class="participant participant-tail" data-participant="DB"><text fill="#2D3142" font-family="Arial" font-size="14" lengthAdjust="spacing" textLength="160.2891" x="1103.8711" y="819.8936">PredictionRepository / DB</text><path d="M1169.0156,832.8604 C1169.0156,822.8604 1187.0156,822.8604 1187.0156,822.8604 C1187.0156,822.8604 1205.0156,822.8604 1205.0156,832.8604 L1205.0156,858.8604 C1205.0156,868.8604 1187.0156,868.8604 1187.0156,868.8604 C1187.0156,868.8604 1169.0156,868.8604 1169.0156,858.8604 L1169.0156,832.8604" fill="#E2E2F0" style="stroke:#181818;stroke-width:1.5;" /><path d="M1169.0156,832.8604 C1169.0156,842.8604 1187.0156,842.8604 1187.0156,842.8604 C1187.0156,842.8604 1205.0156,842.8604 1205.0156,832.8604" fill="none" style="stroke:#181818;stroke-width:1.5;" /></g><g class="message" data-participant-1="User" data-participant-2="Web"><polygon fill="#4F5D75" points="241.4229,146.2959,251.4229,150.2959,241.4229,154.2959,245.4229,150.2959" style="stroke:#4F5D75;stroke-width:1;" /><line style="stroke:#4F5D75;stroke-width:1;" x1="54.293" x2="247.4229" y1="150.2959" y2="150.2959" /><text fill="#2D3142" font-family="Arial" font-size="14" lengthAdjust="spacing" textLength="83.2822" x="61.293" y="145.3291">xác nhận xóa</text></g><g class="message" data-participant-1="Web" data-participant-2="API"><polygon fill="#4F5D75" points="486.7979,176.3945,496.7979,180.3945,486.7979,184.3945,490.7979,180.3945" style="stroke:#4F5D75;stroke-width:1;" /><line style="stroke:#4F5D75;stroke-width:1;" x1="253.4229" x2="492.7979" y1="180.3945" y2="180.3945" /><text fill="#2D3142" font-family="Arial" font-size="14" lengthAdjust="spacing" textLength="221.375" x="260.4229" y="175.4277">DELETE /api/predictions/{id} + JWT</text></g><g class="message" data-participant-1="API" data-participant-2="Service"><polygon fill="#4F5D75" points="768.3486,206.4932,778.3486,210.4932,768.3486,214.4932,772.3486,210.4932" style="stroke:#4F5D75;stroke-width:1;" /><line style="stroke:#4F5D75;stroke-width:1;" x1="498.7979" x2="774.3486" y1="210.4932" y2="210.4932" /><text fill="#2D3142" font-family="Arial" font-size="14" lengthAdjust="spacing" textLength="257.5508" x="505.7979" y="205.5264">DeletePredictionAsync(id,userId,isAdmin)</text></g><g class="message" data-participant-1="Service" data-participant-2="DB"><polygon fill="#4F5D75" points="1175.0156,236.5918,1185.0156,240.5918,1175.0156,244.5918,1179.0156,240.5918" style="stroke:#4F5D75;stroke-width:1;" /><line style="stroke:#4F5D75;stroke-width:1;" x1="780.3486" x2="1181.0156" y1="240.5918" y2="240.5918" /><text fill="#2D3142" font-family="Arial" font-size="14" lengthAdjust="spacing" textLength="88.7031" x="787.3486" y="235.625">GetByIdAsync</text></g><g class="message" data-participant-1="DB" data-participant-2="Service"><polygon fill="#4F5D75" points="791.3486,266.6904,781.3486,270.6904,791.3486,274.6904,787.3486,270.6904" style="stroke:#4F5D75;stroke-width:1;" /><line style="stroke:#4F5D75;stroke-width:1;stroke-dasharray:2.0,2.0;" x1="785.3486" x2="1186.0156" y1="270.6904" y2="270.6904" /><text fill="#2D3142" font-family="Arial" font-size="14" lengthAdjust="spacing" textLength="120.6338" x="797.3486" y="265.7236">prediction hoặc null</text></g><path d="M170.6646,285.6904 L229.0024,285.6904 L229.0024,293.7891 L219.0024,303.7891 L167.6646,303.7891 L167.6646,288.6904 A3,3 0 0 1 170.6646,285.6904" fill="#EEEEEE" style="stroke:#000000;stroke-width:1.5;" /><rect fill="none" height="474.9727" rx="3" ry="3" style="stroke:#000000;stroke-width:1.5;" width="1122.4956" x="167.6646" y="285.6904" /><text fill="#2D3142" font-family="Arial" font-size="14" font-weight="bold" lengthAdjust="spacing" textLength="16.3379" x="182.6646" y="299.8223">alt</text><text fill="#2D3142" font-family="Arial" font-size="14" font-weight="bold" lengthAdjust="spacing" textLength="125.207" x="244.0024" y="300.8223">[không có bản ghi]</text><g class="message" data-participant-1="Service" data-participant-2="API"><polygon fill="#4F5D75" points="509.7979,322.9863,499.7979,326.9863,509.7979,330.9863,505.7979,326.9863" style="stroke:#4F5D75;stroke-width:1;" /><line style="stroke:#4F5D75;stroke-width:1;stroke-dasharray:2.0,2.0;" x1="503.7979" x2="779.3486" y1="326.9863" y2="326.9863" /><text fill="#2D3142" font-family="Arial" font-size="14" lengthAdjust="spacing" textLength="147.0889" x="515.7979" y="322.0195">KeyNotFoundException</text></g><g class="message" data-participant-1="API" data-participant-2="Web"><polygon fill="#4F5D75" points="264.4229,353.085,254.4229,357.085,264.4229,361.085,260.4229,357.085" style="stroke:#4F5D75;stroke-width:1;" /><line style="stroke:#4F5D75;stroke-width:1;stroke-dasharray:2.0,2.0;" x1="258.4229" x2="497.7979" y1="357.085" y2="357.085" /><text fill="#2D3142" font-family="Arial" font-size="14" lengthAdjust="spacing" textLength="23.3584" x="270.4229" y="352.1182">404</text></g><line style="stroke:#000000;stroke-width:1;stroke-dasharray:2.0,2.0;" x1="167.6646" x2="1290.1602" y1="366.085" y2="366.085" /><text fill="#2D3142" font-family="Arial" font-size="14" font-weight="bold" lengthAdjust="spacing" textLength="79.3242" x="172.6646" y="379.2168">[có bản ghi]</text><path d="M180.6646,390.1836 L239.0024,390.1836 L239.0024,398.2822 L229.0024,408.2822 L177.6646,408.2822 L177.6646,393.1836 A3,3 0 0 1 180.6646,390.1836" fill="#EEEEEE" style="stroke:#000000;stroke-width:1.5;" /><rect fill="none" height="363.4795" rx="3" ry="3" style="stroke:#000000;stroke-width:1.5;" width="1102.4956" x="177.6646" y="390.1836" /><text fill="#2D3142" font-family="Arial" font-size="14" font-weight="bold" lengthAdjust="spacing" textLength="16.3379" x="192.6646" y="404.3154">alt</text><text fill="#2D3142" font-family="Arial" font-size="14" font-weight="bold" lengthAdjust="spacing" textLength="186.6895" x="254.0024" y="405.3154">[sai owner và không Admin]</text><g class="message" data-participant-1="Service" data-participant-2="API"><polygon fill="#4F5D75" points="509.7979,427.4795,499.7979,431.4795,509.7979,435.4795,505.7979,431.4795" style="stroke:#4F5D75;stroke-width:1;" /><line style="stroke:#4F5D75;stroke-width:1;stroke-dasharray:2.0,2.0;" x1="503.7979" x2="779.3486" y1="431.4795" y2="431.4795" /><text fill="#2D3142" font-family="Arial" font-size="14" lengthAdjust="spacing" textLength="189.8818" x="515.7979" y="426.5127">UnauthorizedAccessException</text></g><g class="message" data-participant-1="API" data-participant-2="Web"><polygon fill="#4F5D75" points="264.4229,457.5781,254.4229,461.5781,264.4229,465.5781,260.4229,461.5781" style="stroke:#4F5D75;stroke-width:1;" /><line style="stroke:#4F5D75;stroke-width:1;stroke-dasharray:2.0,2.0;" x1="258.4229" x2="497.7979" y1="461.5781" y2="461.5781" /><text fill="#2D3142" font-family="Arial" font-size="14" lengthAdjust="spacing" textLength="23.3584" x="270.4229" y="456.6113">401</text></g><line style="stroke:#000000;stroke-width:1;stroke-dasharray:2.0,2.0;" x1="177.6646" x2="1280.1602" y1="470.5781" y2="470.5781" /><text fill="#2D3142" font-family="Arial" font-size="14" font-weight="bold" lengthAdjust="spacing" textLength="83.084" x="182.6646" y="483.71">[được phép]</text><path d="M711.8799,494.6768 L775.6455,494.6768 L775.6455,502.7754 L765.6455,512.7754 L708.8799,512.7754 L708.8799,497.6768 A3,3 0 0 1 711.8799,494.6768" fill="#EEEEEE" style="stroke:#000000;stroke-width:1.5;" /><rect fill="none" height="79.3945" rx="3" ry="3" style="stroke:#000000;stroke-width:1.5;" width="394.9912" x="708.8799" y="494.6768" /><text fill="#2D3142" font-family="Arial" font-size="14" font-weight="bold" lengthAdjust="spacing" textLength="21.7656" x="723.8799" y="508.8086">opt</text><text fill="#2D3142" font-family="Arial" font-size="14" font-weight="bold" lengthAdjust="spacing" textLength="185.1104" x="790.6455" y="509.8086">[ImagePublicId không rỗng]</text><g class="message" data-participant-1="Service" data-participant-2="Storage"><polygon fill="#4F5D75" points="1028.9541,531.9727,1038.9541,535.9727,1028.9541,539.9727,1032.9541,535.9727" style="stroke:#4F5D75;stroke-width:1;" /><line style="stroke:#4F5D75;stroke-width:1;" x1="780.3486" x2="1034.9541" y1="535.9727" y2="535.9727" /><text fill="#2D3142" font-family="Arial" font-size="14" lengthAdjust="spacing" textLength="175.082" x="787.3486" y="531.0059">DeleteImageAsync(publicId)</text></g><g class="message" data-participant-1="Storage" data-participant-2="Service"><polygon fill="#4F5D75" points="791.3486,562.0713,781.3486,566.0713,791.3486,570.0713,787.3486,566.0713" style="stroke:#4F5D75;stroke-width:1;" /><line style="stroke:#4F5D75;stroke-width:1;stroke-dasharray:2.0,2.0;" x1="785.3486" x2="1039.9541" y1="566.0713" y2="566.0713" /><text fill="#2D3142" font-family="Arial" font-size="14" lengthAdjust="spacing" textLength="236.6055" x="797.3486" y="561.1045">bool (chưa kiểm false) hoặc exception</text></g><path d="M710,589.0713 L710,609.0713 A3,3 0 0 0 713,612.0713 L1253,612.0713 A3,3 0 0 0 1256,609.0713 L1256,596.0713 L1246,586.0713 L713,586.0713 A3,3 0 0 0 710,589.0713" fill="#ECECEC" style="stroke:#BFC0C0;stroke-width:0.5;" /><path d="M1246,586.0713 L1246,594.5713 A1.5,1.5 0 0 0 1247.5,596.0713 L1256,596.0713 L1246,586.0713" fill="#ECECEC" style="stroke:#BFC0C0;stroke-width:0.5;" /><text fill="#2D3142" font-family="Arial" font-size="14" lengthAdjust="spacing" textLength="272.2617" x="842.5093" y="604.2031">Exception storage dừng trước DELETE DB.</text><g class="message" data-participant-1="Service" data-participant-2="DB"><polygon fill="#4F5D75" points="1175.0156,651.3672,1185.0156,655.3672,1175.0156,659.3672,1179.0156,655.3672" style="stroke:#4F5D75;stroke-width:1;" /><line style="stroke:#4F5D75;stroke-width:1;" x1="780.3486" x2="1181.0156" y1="655.3672" y2="655.3672" /><text fill="#2D3142" font-family="Arial" font-size="14" lengthAdjust="spacing" textLength="178.2129" x="787.3486" y="634.3018">DeleteAsync / SaveChanges</text><text fill="#2D3142" font-family="Arial" font-size="14" lengthAdjust="spacing" textLength="112.041" x="787.3486" y="650.4004">CASCADE details</text></g><g class="message" data-participant-1="DB" data-participant-2="Service"><polygon fill="#4F5D75" points="791.3486,681.4658,781.3486,685.4658,791.3486,689.4658,787.3486,685.4658" style="stroke:#4F5D75;stroke-width:1;" /><line style="stroke:#4F5D75;stroke-width:1;stroke-dasharray:2.0,2.0;" x1="785.3486" x2="1186.0156" y1="685.4658" y2="685.4658" /><text fill="#2D3142" font-family="Arial" font-size="14" lengthAdjust="spacing" textLength="31.1445" x="797.3486" y="680.499">done</text></g><g class="message" data-participant-1="Service" data-participant-2="API"><polygon fill="#4F5D75" points="509.7979,711.5645,499.7979,715.5645,509.7979,719.5645,505.7979,715.5645" style="stroke:#4F5D75;stroke-width:1;" /><line style="stroke:#4F5D75;stroke-width:1;stroke-dasharray:2.0,2.0;" x1="503.7979" x2="779.3486" y1="715.5645" y2="715.5645" /><text fill="#2D3142" font-family="Arial" font-size="14" lengthAdjust="spacing" textLength="31.1445" x="515.7979" y="710.5977">done</text></g><g class="message" data-participant-1="API" data-participant-2="Web"><polygon fill="#4F5D75" points="264.4229,741.6631,254.4229,745.6631,264.4229,749.6631,260.4229,745.6631" style="stroke:#4F5D75;stroke-width:1;" /><line style="stroke:#4F5D75;stroke-width:1;stroke-dasharray:2.0,2.0;" x1="258.4229" x2="497.7979" y1="745.6631" y2="745.6631" /><text fill="#2D3142" font-family="Arial" font-size="14" lengthAdjust="spacing" textLength="23.3584" x="270.4229" y="740.6963">204</text></g><g class="message" data-participant-1="Web" data-participant-2="User"><polygon fill="#4F5D75" points="65.293,785.7617,55.293,789.7617,65.293,793.7617,61.293,789.7617" style="stroke:#4F5D75;stroke-width:1;" /><line style="stroke:#4F5D75;stroke-width:1;stroke-dasharray:2.0,2.0;" x1="59.293" x2="252.4229" y1="789.7617" y2="789.7617" /><text fill="#2D3142" font-family="Arial" font-size="14" lengthAdjust="spacing" textLength="175.1299" x="71.293" y="784.7949">cập nhật danh sách / báo lỗi</text></g><!--SRC=[ZLNTQXD15BxVfpZK6ukD_J5Qw8Mm-L6YeiMqUEFDxCn9TkXaPfsPj8qY23w187ZXZUALY20e2ErbnFU8J-BPoIRPD25jbcoMFT_vpdT-viGTIPqnotgGC7xKjQQlHTqeO-5QvtP-HMwA4DXXVUNl6UqVinx2McmbKslB4Mtv4c6xkjnOHDWHjxQhEoL8RAqvAOpLpcsnMmxlKYRCYTHTw33bi6G9ghcn6YtSARtdYZaNUszbqlVOuaO7LLibICzemrDhA9sBh8-Dnzh5eY3FhuieOmNQ0f5q-1OlXt3uee-QupwpNdAPCUqNQ3lXSubJESf2wHZtybZwmUNKK-HAFkVPalGNTGROIgRGXSkPnh2LJ7s7dBahg9e0Lx9Pv9xfhhe2tmowEbDf-LNe2jmIBY-zGcWNpOT_Rzx3ORsojGkdmvyCCej2KlUCflcmnsWZwYLvhpqvoKT_4sBHateDc8D30aJPR7Zei6OP8MOKSIO3yXacyy3zASJLwQnQenIHtu2U54BX2RCO_EBzrfpVpArDsYIf9r3nE1-WrUgnBhP9EVq4hk8v4iopX1fN5l4KC-Ca0GOalr4B-4OjoXE4ojrSFknHUJvpqEdexBiEfOhorsGbaMHjD1yr3vgmoJAvEIk0stmbnMjAxC6pWoW74duYdNnGeSUPZDWDDByknGRDbcs93Ub2iTUZYGjvDshaU1zzRT0I0H_HcyeSRQc5gHcT_IRLVQKYfZmSfSDVjDpuy2SaexCl6hgfZAQkbMas3t50I-TUFc3DKuvPJXO5MsLQZ-fMDK9QPnVPyZYEIJ1XO8w7doPHGp8HB0btg5dVfyRIvXGnv-XSAUf2sEq8Gjm_x_x-69r_uP2bmwyP0Ktc8VHzlvyeoLjY4jcEpZ_eBY6WLCbY8APz29xZ5cI5_tfmAN3pHKwCKN2Tftz_C3YIe_EtlV5oNv_K74iPe1PqrxJ6mT2Hcj1iD6fxCCsKzjmua1YTVoFHtkRfVUIJqMhKRaPp2OHH66iFicbss-mOwocj4NJFTJrkr-D6a_uKFPFAaVF2g0YZSMb72iDywNUeuo6N_1kcdqpXaEm1ftEHZO-71y5q2exEIqgQak5d0uew8Fy3]--></g></svg>
