<svg xmlns="http://www.w3.org/2000/svg" xmlns:xlink="http://www.w3.org/1999/xlink" contentStyleType="text/css" data-diagram-type="DESCRIPTION" height="1030px" preserveAspectRatio="none" style="width:1024px;height:1030px;background:#F5F5F5;" version="1.1" viewBox="0 0 1024 1030" width="1024px" zoomAndPan="magnify" role="img" aria-labelledby="use_cases-title use_cases-desc"><title id="use_cases-title">Use Case — hiện trạng, 10 mục tiêu nghiệp vụ</title><desc id="use_cases-desc">AgriVision source baseline 99d6e56; xem README và traceability cho nguồn và giới hạn.</desc><defs /><g><rect fill="#F5F5F5" height="1030" style="stroke:none;stroke-width:1;" width="1024" x="0" y="0" /><text fill="#2D3142" font-family="Arial" font-size="14" font-weight="bold" lengthAdjust="spacing" textLength="307.2959" x="351.4727" y="23.1318">Use Case — hiện trạng, 10 mục tiêu nghiệp vụ</text><!--cluster AgriVision (web + API + DB + local storage)--><g class="cluster" data-entity="AgriVision (web + API + DB + local storage)" data-source-line="38" data-uid="ent0010" id="use_cases-cluster_AgriVision (web + API + DB + local storage)"><rect fill="#FFFFFF" height="859" rx="3" ry="3" style="stroke:#2D3142;stroke-width:1;" width="304" x="569" y="44.0986" /><text fill="#2D3142" font-family="Arial" font-size="14" font-weight="bold" lengthAdjust="spacing" textLength="288.2373" x="576.8813" y="59.2305">AgriVision (web + API + DB + local storage)</text></g><g class="entity" data-entity="U1" data-source-line="39" data-uid="ent0011" id="use_cases-entity_U1"><ellipse cx="720.8012" cy="440.8655" fill="#FFFFFF" rx="47.8012" ry="25.7669" style="stroke:#2D3142;stroke-width:0.5;" /><text fill="#2D3142" font-family="Arial" font-size="14" lengthAdjust="spacing" textLength="40.4551" x="700.5736" y="435.8987">UC-01</text><text fill="#2D3142" font-family="Arial" font-size="14" lengthAdjust="spacing" textLength="51.3584" x="695.122" y="451.9974">Đăng ký</text></g><g class="entity" data-entity="U2" data-source-line="40" data-uid="ent0012" id="use_cases-entity_U2"><ellipse cx="720.9242" cy="524.8655" fill="#FFFFFF" rx="59.9242" ry="25.7669" style="stroke:#2D3142;stroke-width:0.5;" /><text fill="#2D3142" font-family="Arial" font-size="14" lengthAdjust="spacing" textLength="40.4551" x="700.6966" y="519.8987">UC-02</text><text fill="#2D3142" font-family="Arial" font-size="14" lengthAdjust="spacing" textLength="68.5029" x="686.6727" y="535.9974">Đăng nhập</text></g><g class="entity" data-entity="U3" data-source-line="41" data-uid="ent0013" id="use_cases-entity_U3"><ellipse cx="720.9327" cy="104.8655" fill="#FFFFFF" rx="115.9327" ry="25.7669" style="stroke:#2D3142;stroke-width:0.5;" /><text fill="#2D3142" font-family="Arial" font-size="14" lengthAdjust="spacing" textLength="40.4551" x="700.7051" y="99.8987">UC-03</text><text fill="#2D3142" font-family="Arial" font-size="14" lengthAdjust="spacing" textLength="147.7109" x="647.0772" y="115.9974">Hồ sơ / khôi phục phiên</text></g><g class="entity" data-entity="U4" data-source-line="42" data-uid="ent0014" id="use_cases-entity_U4"><ellipse cx="721.0724" cy="188.8655" fill="#FFFFFF" rx="94.5724" ry="25.7669" style="stroke:#2D3142;stroke-width:0.5;" /><text fill="#2D3142" font-family="Arial" font-size="14" lengthAdjust="spacing" textLength="40.4551" x="700.8449" y="183.8987">UC-04</text><text fill="#2D3142" font-family="Arial" font-size="14" lengthAdjust="spacing" textLength="117.5029" x="662.3209" y="199.9974">Đăng xuất browser</text></g><g class="entity" data-entity="U5" data-source-line="43" data-uid="ent0015" id="use_cases-entity_U5"><ellipse cx="720.7855" cy="608.8655" fill="#FBECE5" rx="91.2855" ry="25.7669" style="stroke:#2D3142;stroke-width:0.5;" /><text fill="#2D3142" font-family="Arial" font-size="14" lengthAdjust="spacing" textLength="40.4551" x="700.5579" y="603.8987">UC-05</text><text fill="#2D3142" font-family="Arial" font-size="14" lengthAdjust="spacing" textLength="112.8545" x="664.3582" y="619.9974">Phân loại một ảnh</text></g><g class="entity" data-entity="U6" data-source-line="44" data-uid="ent0016" id="use_cases-entity_U6"><ellipse cx="720.9961" cy="692.8655" fill="#FFFFFF" rx="104.4961" ry="25.7669" style="stroke:#2D3142;stroke-width:0.5;" /><text fill="#2D3142" font-family="Arial" font-size="14" lengthAdjust="spacing" textLength="40.4551" x="700.7685" y="687.8987">UC-06</text><text fill="#2D3142" font-family="Arial" font-size="14" lengthAdjust="spacing" textLength="131.5371" x="655.2275" y="703.9974">Xem kết quả / lịch sử</text></g><g class="entity" data-entity="U7" data-source-line="45" data-uid="ent0017" id="use_cases-entity_U7"><ellipse cx="720.8229" cy="272.8655" fill="#FFFFFF" rx="64.3229" ry="25.7669" style="stroke:#2D3142;stroke-width:0.5;" /><text fill="#2D3142" font-family="Arial" font-size="14" lengthAdjust="spacing" textLength="40.4551" x="700.5953" y="267.8987">UC-07</text><text fill="#2D3142" font-family="Arial" font-size="14" lengthAdjust="spacing" textLength="74.7236" x="683.4611" y="283.9974">Xóa kết quả</text></g><g class="entity" data-entity="U8" data-source-line="46" data-uid="ent0018" id="use_cases-entity_U8"><ellipse cx="721.0958" cy="356.8655" fill="#FFFFFF" rx="89.0958" ry="25.7669" style="stroke:#2D3142;stroke-width:0.5;" /><text fill="#2D3142" font-family="Arial" font-size="14" lengthAdjust="spacing" textLength="40.4551" x="700.8682" y="351.8987">UC-08</text><text fill="#2D3142" font-family="Arial" font-size="14" lengthAdjust="spacing" textLength="109.7578" x="666.2169" y="367.9974">Tra cứu cây/bệnh</text></g><g class="entity" data-entity="U9" data-source-line="47" data-uid="ent0019" id="use_cases-entity_U9"><ellipse cx="720.8268" cy="776.8655" fill="#FFFFFF" rx="91.8268" ry="25.7669" style="stroke:#2D3142;stroke-width:0.5;" /><text fill="#2D3142" font-family="Arial" font-size="14" lengthAdjust="spacing" textLength="40.4551" x="700.5993" y="771.8987">UC-09</text><text fill="#2D3142" font-family="Arial" font-size="14" lengthAdjust="spacing" textLength="113.6201" x="664.0168" y="787.9974">Quản lý danh mục</text></g><g class="entity" data-entity="U10" data-source-line="48" data-uid="ent0020" id="use_cases-entity_U10"><ellipse cx="720.9591" cy="860.8655" fill="#FFFFFF" rx="82.4591" ry="25.7669" style="stroke:#2D3142;stroke-width:0.5;" /><text fill="#2D3142" font-family="Arial" font-size="14" lengthAdjust="spacing" textLength="40.4551" x="700.7315" y="855.8987">UC-10</text><text fill="#2D3142" font-family="Arial" font-size="14" lengthAdjust="spacing" textLength="100.3721" x="670.773" y="871.9974">Kiểm tra dịch vụ</text></g><!--entity Guest--><g class="entity" data-entity="Guest" data-source-line="30" data-uid="ent0002" id="use_cases-entity_Guest"><ellipse cx="377.8481" cy="428.5986" fill="#F1F1F1" rx="8" ry="8" style="stroke:#181818;stroke-width:0.5;" /><path d="M377.8481,436.5986 L377.8481,463.5986 M364.8481,444.5986 L390.8481,444.5986 M377.8481,463.5986 L364.8481,478.5986 M377.8481,463.5986 L390.8481,478.5986" fill="none" style="stroke:#181818;stroke-width:0.5;" /><text fill="#2D3142" font-family="Arial" font-size="14" lengthAdjust="spacing" textLength="39.6963" x="358" y="493.2305">Khách</text></g><!--entity User--><g class="entity" data-entity="User" data-source-line="31" data-uid="ent0003" id="use_cases-entity_User"><ellipse cx="135.8203" cy="332.5986" fill="#F1F1F1" rx="8" ry="8" style="stroke:#181818;stroke-width:0.5;" /><path d="M135.8203,340.5986 L135.8203,367.5986 M122.8203,348.5986 L148.8203,348.5986 M135.8203,367.5986 L122.8203,382.5986 M135.8203,367.5986 L148.8203,382.5986" fill="none" style="stroke:#181818;stroke-width:0.5;" /><text fill="#2D3142" font-family="Arial" font-size="14" lengthAdjust="spacing" textLength="74.5938" x="93" y="397.2305">Người dùng</text><text fill="#2D3142" font-family="Arial" font-size="14" lengthAdjust="spacing" textLength="85.6406" x="93" y="413.3291">đã đăng nhập</text></g><!--entity Admin--><g class="entity" data-entity="Admin" data-source-line="32" data-uid="ent0004" id="use_cases-entity_Admin"><ellipse cx="25.8413" cy="726.5986" fill="#F1F1F1" rx="8" ry="8" style="stroke:#181818;stroke-width:0.5;" /><path d="M25.8413,734.5986 L25.8413,761.5986 M12.8413,742.5986 L38.8413,742.5986 M25.8413,761.5986 L12.8413,776.5986 M25.8413,761.5986 L38.8413,776.5986" fill="none" style="stroke:#181818;stroke-width:0.5;" /><text fill="#2D3142" font-family="Arial" font-size="14" lengthAdjust="spacing" textLength="39.6826" x="6" y="791.2305">Admin</text></g><!--entity Ops--><g class="entity" data-entity="Ops" data-source-line="33" data-uid="ent0005" id="use_cases-entity_Ops"><ellipse cx="378.0278" cy="832.5986" fill="#F1F1F1" rx="8" ry="8" style="stroke:#181818;stroke-width:0.5;" /><path d="M378.0278,840.5986 L378.0278,867.5986 M365.0278,848.5986 L391.0278,848.5986 M378.0278,867.5986 L365.0278,882.5986 M378.0278,867.5986 L391.0278,882.5986" fill="none" style="stroke:#181818;stroke-width:0.5;" /><text fill="#2D3142" font-family="Arial" font-size="14" lengthAdjust="spacing" textLength="101.0557" x="327.5" y="897.2305">Người vận hành</text></g><!--entity AI--><g class="entity" data-entity="AI" data-source-line="34" data-uid="ent0006" id="use_cases-entity_AI"><ellipse cx="965.1206" cy="629.5986" fill="#F1F1F1" rx="8" ry="8" style="stroke:#181818;stroke-width:0.5;" /><path d="M965.1206,637.5986 L965.1206,664.5986 M952.1206,645.5986 L978.1206,645.5986 M965.1206,664.5986 L952.1206,679.5986 M965.1206,664.5986 L978.1206,679.5986" fill="none" style="stroke:#181818;stroke-width:0.5;" /><text fill="#2D3142" font-family="Arial" font-size="14" lengthAdjust="spacing" textLength="104.2412" x="913" y="694.2305">Dịch vụ HTTP AI</text></g><!--entity Cloud--><g class="entity" data-entity="Cloud" data-source-line="35" data-uid="ent0007" id="use_cases-entity_Cloud"><ellipse cx="964.9619" cy="445.5986" fill="#F1F1F1" rx="8" ry="8" style="stroke:#181818;stroke-width:0.5;" /><path d="M964.9619,453.5986 L964.9619,480.5986 M951.9619,461.5986 L977.9619,461.5986 M964.9619,480.5986 L951.9619,495.5986 M964.9619,480.5986 L977.9619,495.5986" fill="none" style="stroke:#181818;stroke-width:0.5;" /><text fill="#2D3142" font-family="Arial" font-size="14" lengthAdjust="spacing" textLength="66.9238" x="931.5" y="510.2305">Cloudinary</text></g><!--link User to Guest--><g class="link" data-entity-1="User" data-entity-2="Guest" data-source-line="36" data-uid="lnk8" id="use_cases-link_User_Guest"><path d="M179.08,385.5286 C231.64,404.7986 302.4511,430.7597 340.9711,444.8897" fill="none" id="use_cases-User-to-Guest" style="stroke:#4F5D75;stroke-width:1;" /><polygon fill="none" points="357.87,451.0886,343.0374,439.2568,338.9048,450.5227,357.87,451.0886" style="stroke:#4F5D75;stroke-width:1;" /></g><!--link Admin to User--><g class="link" data-entity-1="Admin" data-entity-2="User" data-source-line="37" data-uid="lnk9" id="use_cases-link_Admin_User"><path d="M37.65,718.0286 C57.61,646.7086 95.699,510.5526 117.259,433.5126" fill="none" id="use_cases-Admin-to-User" style="stroke:#4F5D75;stroke-width:1;" /><polygon fill="none" points="122.11,416.1786,111.481,431.8956,123.037,435.1296,122.11,416.1786" style="stroke:#4F5D75;stroke-width:1;" /></g><!--link Guest to U1--><g class="link" data-entity-1="Guest" data-entity-2="U1" data-source-line="50" data-uid="lnk21" id="use_cases-link_Guest_U1"><path d="M398.31,457.1386 C450.79,454.5186 597.18,447.2186 673.06,443.4386" fill="none" id="use_cases-Guest-U1" style="stroke:#4F5D75;stroke-width:1;" /></g><!--link Guest to U2--><g class="link" data-entity-1="Guest" data-entity-2="U2" data-source-line="51" data-uid="lnk22" id="use_cases-link_Guest_U2"><path d="M398.31,461.8886 C449.24,471.8986 588.62,499.2886 666.16,514.5186" fill="none" id="use_cases-Guest-U2" style="stroke:#4F5D75;stroke-width:1;" /></g><!--link Guest to U5--><g class="link" data-entity-1="Guest" data-entity-2="U5" data-source-line="52" data-uid="lnk23" id="use_cases-link_Guest_U5"><path d="M398.32,474.3686 C414.7,487.5486 439.27,505.8586 463,518.0986 C500.6,537.4886 521.82,520.5086 553,549.0986 C559.45,555.0186 554.33,561.4186 561,567.0986 C581.43,584.4986 608.3,594.7786 634.12,600.8286" fill="none" id="use_cases-Guest-U5" style="stroke:#4F5D75;stroke-width:1;" /><text fill="#2D3142" font-family="Arial" font-size="14" lengthAdjust="spacing" textLength="77.8408" x="469.5" y="514.2305">API trực tiếp</text></g><!--link Guest to U6--><g class="link" data-entity-1="Guest" data-entity-2="U6" data-source-line="53" data-uid="lnk24" id="use_cases-link_Guest_U6"><path d="M398.01,489.5286 C413.74,514.2186 437.58,548.7186 463,575.0986 C501.25,614.7886 511.59,626.6786 561,651.0986 C584.42,662.6686 611.41,671.3386 636.43,677.6986" fill="none" id="use_cases-Guest-U6" style="stroke:#4F5D75;stroke-width:1;" /><text fill="#2D3142" font-family="Arial" font-size="14" lengthAdjust="spacing" textLength="88.7031" x="464" y="571.2305">chỉ chi tiết API</text></g><!--link Guest to U8--><g class="link" data-entity-1="Guest" data-entity-2="U8" data-source-line="54" data-uid="lnk25" id="use_cases-link_Guest_U8"><path d="M398.21,450.5386 C415.14,443.9886 440.54,434.4386 463,427.0986 C526.4,406.3686 599.95,386.7786 652.08,373.6186" fill="none" id="use_cases-Guest-U8" style="stroke:#4F5D75;stroke-width:1;" /><text fill="#2D3142" font-family="Arial" font-size="14" lengthAdjust="spacing" textLength="77.8408" x="469.5" y="398.2305">API trực tiếp</text></g><!--link User to U3--><g class="link" data-entity-1="User" data-entity-2="U3" data-source-line="55" data-uid="lnk26" id="use_cases-link_User_U3"><path d="M157.1,323.9786 C167.94,303.4286 183.02,280.2686 202,264.0986 C318.78,164.5486 497.06,127.3086 611.05,113.3886" fill="none" id="use_cases-User-U3" style="stroke:#4F5D75;stroke-width:1;" /></g><!--link User to U4--><g class="link" data-entity-1="User" data-entity-2="U4" data-source-line="56" data-uid="lnk27" id="use_cases-link_User_U4"><path d="M179.21,323.8986 C186.34,317.9086 194.04,312.3886 202,308.0986 C339.52,234.0786 521.62,205.9186 629.24,195.3286" fill="none" id="use_cases-User-U4" style="stroke:#4F5D75;stroke-width:1;" /></g><!--link User to U5--><g class="link" data-entity-1="User" data-entity-2="U5" data-source-line="57" data-uid="lnk28" id="use_cases-link_User_U5"><path d="M178.85,416.1586 C236.05,474.8486 345.1,572.1786 463,601.0986 C518.06,614.6086 581.74,616.6786 631.94,615.3386" fill="none" id="use_cases-User-U5" style="stroke:#4F5D75;stroke-width:1;" /><text fill="#2D3142" font-family="Arial" font-size="14" lengthAdjust="spacing" textLength="122.2129" x="317" y="529.2305">web sau đăng nhập</text></g><!--link User to U6--><g class="link" data-entity-1="User" data-entity-2="U6" data-source-line="58" data-uid="lnk29" id="use_cases-link_User_U6"><path d="M150.04,416.1986 C160.64,448.4586 177.81,491.4586 202,524.0986 C241.27,577.0886 256.27,591.1286 316,619.0986 C412.22,664.1586 533.29,681.8286 617.69,688.7386" fill="none" id="use_cases-User-U6" style="stroke:#4F5D75;stroke-width:1;" /><text fill="#2D3142" font-family="Arial" font-size="14" lengthAdjust="spacing" textLength="113.6406" x="321.5" y="615.2305">lịch sử riêng / web</text></g><!--link User to U7--><g class="link" data-entity-1="User" data-entity-2="U7" data-source-line="59" data-uid="lnk30" id="use_cases-link_User_U7"><path d="M179.1,350.7586 C186.61,347.8486 194.45,345.1386 202,343.0986 C362.31,299.7586 558.13,282.6086 656.77,276.3586" fill="none" id="use_cases-User-U7" style="stroke:#4F5D75;stroke-width:1;" /></g><!--link User to U8--><g class="link" data-entity-1="User" data-entity-2="U8" data-source-line="60" data-uid="lnk31" id="use_cases-link_User_U8"><path d="M179.4,369.1486 C274.19,367.0386 504.9,361.8986 632.15,359.0586" fill="none" id="use_cases-User-U8" style="stroke:#4F5D75;stroke-width:1;" /><text fill="#2D3142" font-family="Arial" font-size="14" lengthAdjust="spacing" textLength="122.2129" x="317" y="360.2305">web sau đăng nhập</text></g><!--link Admin to U9--><g class="link" data-entity-1="Admin" data-entity-2="U9" data-source-line="61" data-uid="lnk32" id="use_cases-link_Admin_U9"><path d="M46.26,756.6786 C130.04,759.2186 465.89,769.3986 629.51,774.3586" fill="none" id="use_cases-Admin-U9" style="stroke:#4F5D75;stroke-width:1;" /><text fill="#2D3142" font-family="Arial" font-size="14" lengthAdjust="spacing" textLength="89.5303" x="203" y="758.2305">tạo / sửa / xóa</text></g><!--link Ops to U10--><g class="link" data-entity-1="Ops" data-entity-2="U10" data-source-line="62" data-uid="lnk33" id="use_cases-link_Ops_U10"><path d="M428.58,861.9486 C483.54,861.7886 573.02,861.5286 638.35,861.3386" fill="none" id="use_cases-Ops-U10" style="stroke:#4F5D75;stroke-width:1;" /></g><!--link U5 to AI--><g class="link" data-entity-1="U5" data-entity-2="AI" data-source-line="63" data-uid="lnk34" id="use_cases-link_U5_AI"><path d="M795.59,624.3086 C833.56,632.1486 878.91,641.5186 912.99,648.5586" fill="none" id="use_cases-U5-AI" style="stroke:#4F5D75;stroke-width:1;" /></g><!--link U5 to Cloud--><g class="link" data-entity-1="U5" data-entity-2="Cloud" data-source-line="64" data-uid="lnk35" id="use_cases-link_U5_Cloud"><path d="M802.86,597.2086 C829.09,590.9386 857.48,581.4386 881,567.0986 C903.41,553.4386 923.31,531.8986 938,513.0986" fill="none" id="use_cases-U5-Cloud" style="stroke:#4F5D75;stroke-width:1;" /></g><!--link U7 to Cloud--><g class="link" data-entity-1="U7" data-entity-2="Cloud" data-source-line="65" data-uid="lnk36" id="use_cases-link_U7_Cloud"><path d="M784.74,277.6786 C816.43,282.7686 853.81,293.3286 881,315.0986 C919.84,346.1986 942.45,400.3886 954.01,436.9886" fill="none" id="use_cases-U7-Cloud" style="stroke:#4F5D75;stroke-width:1;" /></g><!--link U10 to AI--><g class="link" data-entity-1="U10" data-entity-2="AI" data-source-line="66" data-uid="lnk37" id="use_cases-link_U10_AI"><path d="M800.3,853.6386 C828.12,847.7686 858.16,837.3886 881,819.0986 C919.84,787.9986 942.45,733.8086 954.01,697.2086" fill="none" id="use_cases-U10-AI" style="stroke:#4F5D75;stroke-width:1;" /></g><rect fill="none" height="90.4932" rx="3" ry="3" style="stroke:#000000;stroke-width:1;" width="493.8613" x="258.1899" y="920.0986" /><text fill="#2D3142" font-family="Arial" font-size="14" lengthAdjust="spacing" textLength="483.8613" x="263.1899" y="938.2305">HIỆN TRẠNG: web chính mở sau login/restore; khách gọi API public trực tiếp.</text><text fill="#2D3142" font-family="Arial" font-size="14" lengthAdjust="spacing" textLength="434.2188" x="263.1899" y="954.3291">UC-03: đọc/restore và sửa UI chỉ state; UC-06: lịch sử riêng cần JWT.</text><text fill="#2D3142" font-family="Arial" font-size="14" lengthAdjust="spacing" textLength="410.1016" x="263.1899" y="970.4277">UC-07: owner/Admin; UC-09: Admin qua API, chưa có UI quản trị.</text><text fill="#2D3142" font-family="Arial" font-size="14" lengthAdjust="spacing" textLength="441.8613" x="263.1899" y="986.5264">Các bước kiểm ảnh / storage / AI / DB nằm trong Activity và Sequence.</text><text fill="#2D3142" font-family="Arial" font-size="14" lengthAdjust="spacing" textLength="457.6113" x="263.1899" y="1002.625">Cloudinary tùy cấu hình; HTTP AI client không chứng minh inference thật.</text><!--SRC=[ZLPRQnj757xVNt5GNbeQsv8jMRv0GLOkLWEkszXj7_GocXtj3bhDABEpTjmB508j9HGQsfTIIkqOKr9gI4XV8X7wiCR_O_jBUcPs9QtNYcqBLiSpt_dE_Qp27XS3eaWVEeJsF2KZuJPb81NSwjRCnmad29TrIHJeUrBeBT9dK6eeJeBIRCH3_YM3IdNsPMPXqLsgL1Tpa8PISZ-xh7PhRZrlFlI9A_UvyA1BWf3bRgpNL2h152pdpcb0mh2XjUATIBCMbS9wLSv1-b98wYk9uHHPjwHc6yMaC6e-HPHKBbCPejEbPPet4R974HEKRHEbEUK38lGbsgxzkqOfR-LIwWZLV8_hW-kf9yWh-K9DPeH_sKyBkvB9Lk5wfXHs9LCKCah26tWr1bx9fXZLH7Z13VYcqAiZvOhUX2x3pU3IN0SCTaC6JVGV_lls5_1vClfUW5R9y4Xujw5IXduoEg6WUVnN1CApW07iuQ4JiAu6BK5npzVWSkCubo9dMqYNXMm0InTIGKJF75Ph3dO7-bDwuCT7r2y12U5-n48zFj_opbycezyvkF4RuRN5sRFu6CwUdJt1iHH-CZmTM1sCG6Kg3RVFnINrFOGAyED3aHhvU12ECNUIqLFgstXWSsTd6nej2scqCaGpa97B1L47vjZ-vnY3C3VtzOUPkzPgUc1zcLGGjvQd-6SynBJ0U_ki0nz0Oxk5ppiR-0Wa9G5sjLJ4O- -Nu2i7njq4fTtcNBc2CVzam-t5RzDOAqNCuWIJJybY4RRK5fl9w6S8puzW0Nf-_0-7WMzhE_2nk2BLMohgLIVqZwDaUAAXWriJWqpXrIAyrXRRVlnSO6pOGjnqpwyQak5nblhT6jowjt6tURTMr5nkYozO7th9y5yDZz3MCVePfEK9az5fghvSLAkZMloQvFLIPBs8N6cB7KM09gCN4T3u-S52npHxvjTA4RxQ5fyODWmbVWik4Nuw2YbyjG2lbDlY0Sx6apuE3m5tsbPPsShEDuxj5kmJKyMfl9YJQx1c6mG7SFJAJ1r6DSZTB-CznQhzW4-UNckZa8EipAJ8MjOKU29MfwAnQzep9D750Pj2ZEbSEN3giMayh17gJL7rgRZoJixnl60Q4QEnKIJo65Q2tu-nd0wEQ9geieFEeOG3cGhP2DPpCcwf514mZmaNEb9hsNSsMydekotO-JGP7cxTJvsXVdoQLl8FwrWWFIuM53D3oDRDNE0c0YyP_SXj5WTH9-3qOZBd7JjGQnWLukXO6_RYmoo8tLPM9Vl6MWVRtpFJHvFXdm8- -dmd9QslWTp7NnOBDaMfukfQkjQmkOdnwJPodx_4HevV6qEFqYOr7ZwTTvheFtJCtlkDGYzjI3jz9i7fea6fqS87hY2H35-PXfNeIIDxKzim7cQ_291mklzq_ER0E7mIuIxzM_Zhuus9hrFEXBPRnSI4eR_0R_JP1owwJ1agqARuUjx12gLr-Xy0]--></g></svg>
